STARTFONT 2.1
FONT HAN-GB2312
SIZE 14 72 72
FONTBOUNDINGBOX 14 14 0 0
STARTPROPERTIES 1
BITCOUNT 8
ENDPROPERTIES
CHARS 7677
STARTCHAR  00A4
ENCODING  164
SWIDTH  1000 0
DWIDTH  14 0
BBX  12 12 1 -1
BITMAP
00A03020C0FFF0A01060A000
0080E0E080303080E0F08000
0010E0300000000060FF3000
00A080000000000000A0A000
10FF2000000000000060E000
30FF0000000000000030FF00
10FF2000000000000040E000
00C060000000000000A0A000
0030E0100000000030E01000
0060F0E040001060E0F04000
00C06040E0FFFFE03080A000
000000000020200000000000
ENDCHAR
STARTCHAR  00A7
ENCODING  167
SWIDTH  1000 0
DWIDTH  15 0
BBX  8 14 3 -2
BITMAP
0080E0F0FFF0E040
20FFA030303080E0
30FF8000000030FF
00E0FFC040001030
0080FFE0FFE06000
10FF30002080F0A0
30FF1000000040F0
00E0E080100040F0
001080E0FFA0E0A0
1040000040C0FF80
30FF0000000060F0
20FF4010101080E0
0080F0FFFFFFFF60
0000001010100000
ENDCHAR
STARTCHAR  00A8
ENCODING  168
SWIDTH  1000 0
DWIDTH  14 0
BBX  5 2 4 12
BITMAP
30FF0030FF
0030000030
ENDCHAR
STARTCHAR  00B0
ENCODING  176
SWIDTH  1000 0
DWIDTH  13 0
BBX  5 5 0 8
BITMAP
0080F0A000
10FF40E040
20FF20E040
00A0FFE000
0000200000
ENDCHAR
STARTCHAR  00B1
ENCODING  177
SWIDTH  1000 0
DWIDTH  15 0
BBX  11 11 2 0
BITMAP
0000000030FF0000000000
0000000030FF0000000000
0000000030FF0000000000
60FFFFFFFFFFFFFFFFFF30
1030303060FF3030303000
0000000030FF0000000000
0000000030FF0000000000
0000000030FF0000000000
0000000000000000000000
30FFFFFFFFFFFFFFFFFF10
1030303030303030303000
ENDCHAR
STARTCHAR  00B7
ENCODING  183
SWIDTH  1000 0
DWIDTH  13 0
BBX  2 2 5 4
BITMAP
30FF
0030
ENDCHAR
STARTCHAR  00D7
ENCODING  215
SWIDTH  1000 0
DWIDTH  14 0
BBX  8 9 3 1
BITMAP
4030000000004030
40E020000040E030
0060E02030E04000
000060E0E0400000
000020E0E0100000
0010E06060E01000
10E080000080C010
80A000000000A080
0000000000000000
ENDCHAR
STARTCHAR  00E0
ENCODING  224
SWIDTH  1000 0
DWIDTH  14 0
BBX  9 12 2 0
BITMAP
000000108040000000
0000000080E0000000
000000000060200000
000000000000000000
0030C0F0F0F0E0A0F0
00E0A030202040A0FF
20FF100000000030FF
30FF000000000030FF
30FF000000000030FF
30FF200000000030FF
00E0C030203040C0FF
0030E0FFFFFFE0A0FF
ENDCHAR
STARTCHAR  00E1
ENCODING  225
SWIDTH  1000 0
DWIDTH  14 0
BBX  9 12 2 0
BITMAP
000000000080200000
0000000080E0000000
000000108040000000
000000000000000000
0030C0F0F0F0E0A0F0
00E0A030202040A0FF
20FF100000000030FF
30FF000000000030FF
30FF000000000030FF
30FF200000000030FF
00E0C030203040C0FF
0030E0FFFFFFE0A0FF
ENDCHAR
STARTCHAR  00E8
ENCODING  232
SWIDTH  1000 0
DWIDTH  14 0
BBX  10 12 2 0
BITMAP
00000020804000000000
00000000A0E000000000
00000000008010000000
00000000000000000000
0030C0F0F0F0F0A02000
00F08030202030A0C000
30FF100000000030FF00
30FFFFFFFFFFFFFFFF00
30FF3030303030303000
30FF100000000030FF00
10F0A030202030A0C000
0040C0F0FFFFFFC02000
ENDCHAR
STARTCHAR  00E9
ENCODING  233
SWIDTH  1000 0
DWIDTH  14 0
BBX  10 12 2 0
BITMAP
00000000008010000000
00000000A0E000000000
00000010803000000000
00000000000000000000
0030C0F0F0F0F0A02000
00F08030202030A0C000
30FF100000000030FF00
30FFFFFFFFFFFFFFFF00
30FF3030303030303000
30FF100000000030FF00
10F0A030202030A0C000
0040C0F0FFFFFFC02000
ENDCHAR
STARTCHAR  00EA
ENCODING  234
SWIDTH  1000 0
DWIDTH  14 0
BBX  10 12 2 0
BITMAP
00000000806000000000
00000080E0E060000000
00001080303080000000
00000000000000000000
0030C0F0F0F0F0A02000
00F08030202030A0C000
30FF100000000030FF00
30FFFFFFFFFFFFFFFF00
30FF3030303030303000
30FF100000000030FF00
10F0A030202030A0C000
0040C0F0FFFFFFC02000
ENDCHAR
STARTCHAR  00EC
ENCODING  236
SWIDTH  1000 0
DWIDTH  14 0
BBX  3 12 6 0
BITMAP
80F010
00C060
000010
000000
30FF00
30FF00
30FF00
30FF00
30FF00
30FF00
30FF00
30FF00
ENDCHAR
STARTCHAR  00ED
ENCODING  237
SWIDTH  1000 0
DWIDTH  14 0
BBX  3 12 6 0
BITMAP
00C060
80F010
101000
000000
30FF00
30FF00
30FF00
30FF00
30FF00
30FF00
30FF00
30FF00
ENDCHAR
STARTCHAR  00F2
ENCODING  242
SWIDTH  1000 0
DWIDTH  14 0
BBX  9 12 2 0
BITMAP
000000208030000000
00000000A0C0000000
000000000080100000
000000000000000000
0030C0F0F0F0F0A010
00E0A040202040C0C0
30FF100000000040F0
30FF000000000030FF
30FF000000000030FF
20FF100000000040FF
00E0A030202040E0C0
0020C0F0FFFFE0A010
ENDCHAR
STARTCHAR  00F3
ENCODING  243
SWIDTH  1000 0
DWIDTH  14 0
BBX  9 12 2 0
BITMAP
000000001080100000
00000000A0C0000000
000000208030000000
000000000000000000
0030C0F0F0F0F0A010
00E0A040202040C0C0
30FF100000000040F0
30FF000000000030FF
30FF000000000030FF
20FF100000000040FF
00E0A030202040E0C0
0020C0F0FFFFE0A010
ENDCHAR
STARTCHAR  00F7
ENCODING  247
SWIDTH  1000 0
DWIDTH  13 0
BBX  10 9 1 1
BITMAP
0000000030FF00000000
00000000003000000000
00000000000000000000
00000000000000000000
20FFFFFFFFFFFFFFFFF0
00303030303030303020
00000000000000000000
0000000030FF00000000
00000000003000000000
ENDCHAR
STARTCHAR  00F9
ENCODING  249
SWIDTH  1000 0
DWIDTH  15 0
BBX  10 12 3 0
BITMAP
00000010100000000000
00000080F01000000000
00000000C06000000000
00000000000000000000
30FF0000000030FF0000
30FF0000000030FF0000
30FF0000000030FF0000
30FF0000000030FF0000
30FF0000000030FF0000
30FF1000000030FF0000
10F080202040C0FF4010
0040E0FFFFE080A0FF60
ENDCHAR
STARTCHAR  00FA
ENCODING  250
SWIDTH  1000 0
DWIDTH  15 0
BBX  10 12 3 0
BITMAP
00000000C06000000000
00000080F01000000000
00000010100000000000
20C00000000020C00000
30FF0000000030FF0000
30FF0000000030FF0000
30FF0000000030FF0000
30FF0000000030FF0000
30FF0000000030FF0000
30FF1000000030FF0000
00F080202040E0FF4010
0040E0FFFFE080A0FF60
ENDCHAR
STARTCHAR  00FC
ENCODING  252
SWIDTH  1000 0
DWIDTH  15 0
BBX  10 11 3 0
BITMAP
000030FF30FF00000000
00000030003000000000
10800000000010800000
30FF0000000030FF0000
30FF0000000030FF0000
30FF0000000030FF0000
30FF0000000030FF0000
30FF0000000030FF0000
30FF1000000030FF0000
00F0A0302040C0FF4010
0040E0FFFFE080A0FF60
ENDCHAR
STARTCHAR  0101
ENCODING  257
SWIDTH  1000 0
DWIDTH  14 0
BBX  9 11 2 0
BITMAP
000000FFFFFFFF0000
000000202020200000
000000000000000000
0030C0F0F0F0E0A0FF
00E0A030303040A0FF
20FF100000000030FF
30FF000000000030FF
30FF000000000030FF
30FF200000000030FF
00E0C030203040C0FF
0030C0FFFFFFE0A0FF
ENDCHAR
STARTCHAR  0113
ENCODING  275
SWIDTH  1000 0
DWIDTH  14 0
BBX  10 11 2 0
BITMAP
000000FFFFFFFF000000
00000020202020000000
00000000000000000000
0030C0F0FFF0F0C02000
00F0A030303030A0C000
30FF100000000030FF00
30FFFFFFFFFFFFFFFF00
30FF3030303030303000
30FF100000000030FF00
10F0A030202030A0C000
0040C0F0FFFFFFC02000
ENDCHAR
STARTCHAR  011B
ENCODING  283
SWIDTH  1000 0
DWIDTH  14 0
BBX  10 12 2 0
BITMAP
00001080303080000000
00000080E0E060000000
00000000806000000000
00000000000000000000
0030C0F0F0F0F0A02000
00F08030202030A0C000
30FF100000000030FF00
30FFFFFFFFFFFFFFFF00
30FF3030303030303000
30FF100000000030FF00
10F0A030202030A0C000
0040C0F0FFFFFFC02000
ENDCHAR
STARTCHAR  012B
ENCODING  299
SWIDTH  1000 0
DWIDTH  14 0
BBX  4 11 5 0
BITMAP
FFFFFFFF
20202020
00000000
0030FF00
0030FF00
0030FF00
0030FF00
0030FF00
0030FF00
0030FF00
0030FF00
ENDCHAR
STARTCHAR  0144
ENCODING  324
SWIDTH  1000 0
DWIDTH  13 0
BBX  8 12 2 0
BITMAP
0000000040400000
00000020F0300000
0000004060000000
0000000000000000
30FFA0E0FFFFE040
30FFA0201020A0E0
30FF0000000030FF
30FF0000000030FF
30FF0000000030FF
30FF0000000030FF
30FF0000000030FF
30FF0000000030FF
ENDCHAR
STARTCHAR  0148
ENCODING  328
SWIDTH  1000 0
DWIDTH  13 0
BBX  8 12 2 0
BITMAP
0000306000802000
000010E0C0C00000
0000003080100000
0000000000000000
30FFA0E0FFFFE040
30FFA0201020A0E0
30FF0000000030FF
30FF0000000030FF
30FF0000000030FF
30FF0000000030FF
30FF0000000030FF
30FF0000000030FF
ENDCHAR
STARTCHAR  014D
ENCODING  333
SWIDTH  1000 0
DWIDTH  14 0
BBX  9 11 2 0
BITMAP
000000FFFFFFFF0000
000000202020200000
000000000000000000
0030C0F0FFFFF0A020
00E0C040303040C0C0
30FF100000000040F0
30FF000000000030FF
30FF000000000030FF
20FF100000000040FF
00E0A030202040E0C0
0020C0F0FFFFE0A010
ENDCHAR
STARTCHAR  016B
ENCODING  363
SWIDTH  1000 0
DWIDTH  15 0
BBX  10 11 3 0
BITMAP
0000FFFFFFFF00000000
00002020202000000000
10600000000010600000
30FF0000000030FF0000
30FF0000000030FF0000
30FF0000000030FF0000
30FF0000000030FF0000
30FF0000000030FF0000
30FF1000000030FF0000
10F080202040E0FF4010
0040E0FFFFE080A0FF60
ENDCHAR
STARTCHAR  01CE
ENCODING  462
SWIDTH  1000 0
DWIDTH  14 0
BBX  9 11 2 0
BITMAP
000000C08060C01000
00000030F0F0300000
000000000000000000
0030C0F0F0F0E0A0F0
00E0A030202040A0FF
20FF100000000030FF
30FF000000000030FF
30FF000000000030FF
30FF200000000030FF
00E0C030203040C0FF
0030E0FFFFFFE0A0FF
ENDCHAR
STARTCHAR  01D0
ENCODING  464
SWIDTH  1000 0
DWIDTH  14 0
BBX  5 12 5 0
BITMAP
4060008030
10F0A0C000
0040802000
0000000000
0030FF0000
0030FF0000
0030FF0000
0030FF0000
0030FF0000
0030FF0000
0030FF0000
0030FF0000
ENDCHAR
STARTCHAR  01D2
ENCODING  466
SWIDTH  1000 0
DWIDTH  14 0
BBX  9 12 2 0
BITMAP
000010802040800000
000000A0C0E0600000
000000008060000000
000000000000000000
0030C0F0F0F0F0A010
00E0A040202040C0C0
30FF100000000040F0
30FF000000000030FF
30FF000000000030FF
20FF100000000040FF
00E0A030202040E0C0
0020C0F0FFFFE0A010
ENDCHAR
STARTCHAR  01D4
ENCODING  468
SWIDTH  1000 0
DWIDTH  15 0
BBX  10 12 3 0
BITMAP
00004060008020000000
000010E0C0C000000000
00000040801000000000
20800000000020800000
30FF0000000030FF0000
30FF0000000030FF0000
30FF0000000030FF0000
30FF0000000030FF0000
30FF0000000030FF0000
30FF1000000030FF0000
00F080202040C0FF4000
0040E0FFFFE0A0A0FF60
ENDCHAR
STARTCHAR  01D6
ENCODING  470
SWIDTH  1000 0
DWIDTH  15 0
BBX  10 14 3 0
BITMAP
000030FFFFFF00000000
00000030303000000000
00000000000000000000
000030FF30FF00000000
00000030003000000000
10800000000010800000
30FF0000000030FF0000
30FF0000000030FF0000
30FF0000000030FF0000
30FF0000000030FF0000
30FF0000000030FF0000
30FF1000000030FF0000
00F0A0302040C0FF4010
0040E0FFFFE080A0FF60
ENDCHAR
STARTCHAR  01D8
ENCODING  472
SWIDTH  1000 0
DWIDTH  15 0
BBX  10 14 3 0
BITMAP
00000000A06000000000
00000030E00000000000
00000000000000000000
000030FF30FF00000000
00002080208000000000
10300000000010300000
30FF0000000030FF0000
30FF0000000030FF0000
30FF0000000030FF0000
30FF0000000030FF0000
30FF0000000030FF0000
30FF1000000030FF0000
10F0A0302040C0FF4010
0040E0FFFFE080A0FF60
ENDCHAR
STARTCHAR  01DA
ENCODING  474
SWIDTH  1000 0
DWIDTH  15 0
BBX  10 14 3 0
BITMAP
000030F060E010000000
00000060F03000000000
00000000000000000000
000030FF30FF00000000
00002080208000000000
10300000000010300000
30FF0000000030FF0000
30FF0000000030FF0000
30FF0000000030FF0000
30FF0000000030FF0000
30FF0000000030FF0000
30FF1000000030FF0000
10F0A0302040C0FF4010
0040E0FFFFE080A0FF60
ENDCHAR
STARTCHAR  01DC
ENCODING  476
SWIDTH  1000 0
DWIDTH  15 0
BBX  10 14 3 0
BITMAP
00000040E00000000000
00000000C03000000000
00000000000000000000
000030FF30FF00000000
00002080208000000000
10300000000010300000
30FF0000000030FF0000
30FF0000000030FF0000
30FF0000000030FF0000
30FF0000000030FF0000
30FF0000000030FF0000
30FF1000000030FF0000
10F0A0302040C0FF4010
0040E0FFFFE080A0FF60
ENDCHAR
STARTCHAR  0251
ENCODING  593
SWIDTH  1000 0
DWIDTH  14 0
BBX  9 8 2 0
BITMAP
0030C0F0F0F0E0A0FF
00E0A030303040A0FF
20FF100000000030FF
30FF000000000030FF
30FF000000000030FF
30FF200000000030FF
00E0C030203040C0FF
0030E0FFFFFFE0A0FF
ENDCHAR
STARTCHAR  0261
ENCODING  609
SWIDTH  1000 0
DWIDTH  14 0
BBX  9 12 2 -3
BITMAP
0030C0F0FFF0F0C0FF
00E0C040303040C0FF
20FF300000000030FF
30FF100000000030FF
30FF000000000030FF
30FF000000000030FF
20FF100000000030FF
00E0A020202040C0FF
0030C0F0FFFFF0C0FF
20C0000000000030FF
20FF4020202030A0C0
0080F0FFFFFFFFC020
ENDCHAR
STARTCHAR  02C7
ENCODING  711
SWIDTH  1000 0
DWIDTH  14 0
BBX  6 2 4 12
BITMAP
00C0A080C000
0020F0E02000
ENDCHAR
STARTCHAR  02C9
ENCODING  713
SWIDTH  1000 0
DWIDTH  14 0
BBX  4 2 5 12
BITMAP
FFFFFFFF
30303030
ENDCHAR
STARTCHAR  0391
ENCODING  913
SWIDTH  1000 0
DWIDTH  14 0
BBX  12 11 1 0
BITMAP
00000040FFFFFFFF60000000
00000080C03030C0A0000000
000000E060000060E0000000
000020FF20000010FF300000
000060E000000000E0800000
0000C0800000000080C00000
0010F0400000000030FF1000
0040FFFFFFFFFFFFFFFF6000
00A0C0303030303030C0A000
00E06000000000000060E000
30FF2000000000000020FF30
ENDCHAR
STARTCHAR  0392
ENCODING  914
SWIDTH  1000 0
DWIDTH  14 0
BBX  11 11 2 0
BITMAP
30FFFFFFFFFFF0F0A02000
30FF303030303040E0C000
30FF00000000000040F000
30FF00000000000040FF00
30FF000000000010A0C000
30FFFFFFFFFFFFFFF03000
30FF303030303040C0E000
30FF00000000000030FF30
30FF00000000000020FF30
30FF202020202030A0F010
30FFFFFFFFFFFFFFE04000
ENDCHAR
STARTCHAR  0393
ENCODING  915
SWIDTH  1000 0
DWIDTH  14 0
BBX  9 11 3 0
BITMAP
30FFFFFFFFFFFFFF20
30FF30303030303000
30FF00000000000000
30FF00000000000000
30FF00000000000000
30FF00000000000000
30FF00000000000000
30FF00000000000000
30FF00000000000000
30FF00000000000000
30FF00000000000000
ENDCHAR
STARTCHAR  0394
ENCODING  916
SWIDTH  1000 0
DWIDTH  15 0
BBX  11 12 2 0
BITMAP
0000000020801000000000
00000000A0FF8000000000
00000020FFC0F010000000
00000080E010F080000000
000010F0600080E0000000
000080F0100010F0600000
0000E08000000080E00000
0060F01000000010F06000
00E0800000000000A0E000
60FF20000000000020FF40
C0A010101010101010A0C0
FFFFFFFFFFFFFFFFFFFFFF
ENDCHAR
STARTCHAR  0395
ENCODING  917
SWIDTH  1000 0
DWIDTH  14 0
BBX  9 11 2 0
BITMAP
30FFFFFFFFFFFFFFFF
30FF30303030303030
30FF00000000000000
30FF00000000000000
30FF00000000000000
30FFFFFFFFFFFFFF80
30FF30303030303010
30FF00000000000000
30FF00000000000000
30FF20202020202020
30FFFFFFFFFFFFFFFF
ENDCHAR
STARTCHAR  0396
ENCODING  918
SWIDTH  1000 0
DWIDTH  14 0
BBX  10 11 2 0
BITMAP
FFFFFFFFFFFFFFFFFF00
30303030303030C0E000
00000000000080E01000
000000000060F0200000
0000000040F040000000
00000030F06000000000
000020E0800000000000
0010E0A0000000000000
00C0C000000000000000
A0E03020202020202020
FFFFFFFFFFFFFFFFFFFF
ENDCHAR
STARTCHAR  0397
ENCODING  919
SWIDTH  1000 0
DWIDTH  15 0
BBX  10 11 2 0
BITMAP
30FF00000000000030FF
30FF00000000000030FF
30FF00000000000030FF
30FF00000000000030FF
30FFFFFFFFFFFFFFFFFF
30FF30303030303060FF
30FF00000000000030FF
30FF00000000000030FF
30FF00000000000030FF
30FF00000000000030FF
30FF00000000000030FF
ENDCHAR
STARTCHAR  0398
ENCODING  920
SWIDTH  1000 0
DWIDTH  14 0
BBX  11 12 1 0
BITMAP
0010A0F0FFFFFFF0E06000
00C0E0403030303060F080
10FF3000000000000060E0
30FF0000000000000030FF
30FF0000000000000030FF
30FF0000000000000030FF
30FF00F0F0F0F0F00030FF
30FF0020202020200030FF
30FF0000000000000030FF
10FF2000000000000060F0
00C0E0403020203060E0A0
0010A0E0FFFFFFFFE0A010
ENDCHAR
STARTCHAR  0399
ENCODING  921
SWIDTH  1000 0
DWIDTH  14 0
BBX  2 11 6 0
BITMAP
30FF
30FF
30FF
30FF
30FF
30FF
30FF
30FF
30FF
30FF
30FF
ENDCHAR
STARTCHAR  039A
ENCODING  922
SWIDTH  1000 0
DWIDTH  14 0
BBX  11 11 2 0
BITMAP
30FF00000000000080E000
30FF000000000040FF3000
30FF0000000010E0800000
30FF00000000A0E0000000
30FF00000060FF30000000
30FFFFFFFFFF8000000000
30FF30303080F020000000
30FF00000000A0E0000000
30FF0000000010E0800000
30FF000000000040FF4000
30FF00000000000080E010
ENDCHAR
STARTCHAR  039B
ENCODING  923
SWIDTH  1000 0
DWIDTH  14 0
BBX  12 11 1 0
BITMAP
00000040FFFFFFFF40000000
00000080C03030C0A0000000
000000E060000060E0000000
000020FF20000020FF200000
000060E000000000E0800000
0000C0800000000080C00000
0010FF400000000040FF1000
0040F0000000000000F04000
00A0A0000000000000A0A000
00E06000000000000060E000
30FF2000000000000020FF30
ENDCHAR
STARTCHAR  039C
ENCODING  924
SWIDTH  1000 0
DWIDTH  13 0
BBX  12 11 0 0
BITMAP
30FFE000000000000010F0FF
30FFE060000000000080E0FF
30FF40E01000000020F040FF
30FF00A080000000A08030FF
30FF0020F0200030F01030FF
30FF000080A000C0600030FF
30FF000010E080E0000030FF
30FF00000060FF60000030FF
30FF000000000000000030FF
30FF000000000000000030FF
30FF000000000000000030FF
ENDCHAR
STARTCHAR  039D
ENCODING  925
SWIDTH  1000 0
DWIDTH  13 0
BBX  10 11 1 0
BITMAP
30FFE0000000000030FF
30FFC0800000000030FF
30FF20F02000000030FF
30FF0080C000000030FF
30FF0000E060000030FF
30FF000030F0100030FF
30FF00000080A00030FF
30FF00000010E04030FF
30FF0000000040E040FF
30FF0000000000A0C0FF
30FF000000000010F0FF
ENDCHAR
STARTCHAR  039E
ENCODING  926
SWIDTH  1000 0
DWIDTH  14 0
BBX  11 11 1 0
BITMAP
30FFFFFFFFFFFFFFFFFFFF
30FF3030303030303060FF
30FF0000000000000030FF
30E00000000000000030E0
0000000000000000000000
0000FFFFFFFFFFFFFF0000
0000303030303030300000
1080000000000000001080
30FF0000000000000030FF
30FF2020202020202080F0
30FFFFFFFFFFFFFFFFF080
ENDCHAR
STARTCHAR  039F
ENCODING  927
SWIDTH  1000 0
DWIDTH  13 0
BBX  10 11 1 0
BITMAP
0010A0F0F0FFFFF0A010
00C0E04030303040E0A0
10FF30000000000060E0
30FF00000000000030FF
30FF00000000000030FF
30FF00000000000030FF
30FF00000000000030FF
30FF00000000000030FF
20FF20000000000060E0
00E0C03020202040E0A0
0030C0FFFFFFFFF0A010
ENDCHAR
STARTCHAR  03A0
ENCODING  928
SWIDTH  1000 0
DWIDTH  14 0
BBX  10 11 2 0
BITMAP
FFFFFFFFFFFFFFFFFFFF
3060FF3030303060FF30
0030FF0000000030FF00
0030FF0000000030FF00
0030FF0000000030FF00
0030FF0000000030FF00
0030FF0000000030FF00
0030FF0000000030FF00
0030FF0000000030FF00
0030FF0000000030FF00
0030FF0000000030FF00
ENDCHAR
STARTCHAR  03A1
ENCODING  929
SWIDTH  1000 0
DWIDTH  13 0
BBX  9 11 2 0
BITMAP
30FFFFFFFFFFF0E030
30FF3030303030A0E0
30FF000000000030FF
30FF000000000030FF
30FF000000000080E0
30FFFFFFFFFFFFF040
30FF30303030201000
30FF00000000000000
30FF00000000000000
30FF00000000000000
30FF00000000000000
ENDCHAR
STARTCHAR  03A3
ENCODING  931
SWIDTH  1000 0
DWIDTH  13 0
BBX  9 11 2 0
BITMAP
FFFFFFFFFFFFFFFFFF
A0F060303030303030
0080F0400000000000
000060F06000000000
00000040F080000000
0000000060FF600000
00000040F080000000
000060F06000000000
0080F0400000000000
A0F060202020202020
FFFFFFFFFFFFFFFFFF
ENDCHAR
STARTCHAR  03A4
ENCODING  932
SWIDTH  1000 0
DWIDTH  14 0
BBX  10 11 2 0
BITMAP
FFFFFFFFFFFFFFFFFFFF
3030303060FF30303030
0000000030FF00000000
0000000030FF00000000
0000000030FF00000000
0000000030FF00000000
0000000030FF00000000
0000000030FF00000000
0000000030FF00000000
0000000030FF00000000
0000000030FF00000000
ENDCHAR
STARTCHAR  03A5
ENCODING  933
SWIDTH  1000 0
DWIDTH  13 0
BBX  10 11 1 0
BITMAP
0080F0F0C030E0F0F060
20FF6030A0F0803080F0
30FF000030FF000030FF
1060000030FF00001060
0000000030FF00000000
0000000030FF00000000
0000000030FF00000000
0000000030FF00000000
0000000030FF00000000
0000000030FF00000000
0000000030FF00000000
ENDCHAR
STARTCHAR  03A6
ENCODING  934
SWIDTH  1000 0
DWIDTH  15 0
BBX  12 11 1 0
BITMAP
000000000030FF0000000000
0020C0F0FFFFFFFFF0E08000
00E0C0403060FF303060F080
30FF20000030FF00000060E0
30FF00000030FF00000030FF
30FF00000030FF00000030FF
30FF00000030FF00000030FF
20FF20000030FF00000040F0
00E0A0200030FF000010C0A0
0020C0FFFFFFFFF0FFFFC010
000000102060FF3020200000
ENDCHAR
STARTCHAR  03A7
ENCODING  935
SWIDTH  1000 0
DWIDTH  14 0
BBX  12 11 1 0
BITMAP
0080E0100000000010E08000
0000C0C000000000C0C00000
000010E080000080E0200000
00000040F04040F040000000
0000000080F0F06000000000
0000000010F0F00000000000
00000000A0E0E0A000000000
00000060F02020F060000000
000040F040000040F0400000
0020E0800000000080E02000
00C0A0000000000000C0C000
ENDCHAR
STARTCHAR  03A8
ENCODING  936
SWIDTH  1000 0
DWIDTH  13 0
BBX  11 11 1 0
BITMAP
F0A0000030FF000000E0C0
60FF000030FF000030FF30
30FF000030FF000030FF00
30FF000030FF000030FF00
30FF000030FF000030FF00
30FF000030FF000030FF00
30FF000030FF000030FF00
30FF000030FF000030FF00
10F0600030FF0000A0E000
0060F0FFFFFFFFFFF04000
0000102060FF3020000000
ENDCHAR
STARTCHAR  03A9
ENCODING  937
SWIDTH  1000 0
DWIDTH  13 0
BBX  11 12 1 0
BITMAP
0010A0E0F0FFFFF0A01000
00C0E04030303040E0A000
20FF20000000000040F000
30FF00000000000030FF00
30FF00000000000030FF00
30FF00000000000030FF00
30FF10000000000040FF00
00F0800000000000A0E000
0060F0FFFF30FFFFF04000
00001040FF30FF20100000
10202040FF30FF20202000
40FFFFFFFF30FFFFFFFF10
ENDCHAR
STARTCHAR  03B1
ENCODING  945
SWIDTH  1000 0
DWIDTH  14 0
BBX  11 8 1 0
BITMAP
0060E0F0F0C0300080C000
10F0803030C0E010F04000
30FF00000020FFA0E00000
30FF00000000C0FF600000
30FF0000000080FF100000
20FF00000010E0FF600000
00F0601020A0E080E02000
0040E0FFF0C02010E0FF60
ENDCHAR
STARTCHAR  03B2
ENCODING  946
SWIDTH  1000 0
DWIDTH  14 0
BBX  7 15 3 -3
BITMAP
0040E0F0F0C020
10F0A03030A0C0
30FF10000040FF
30FF00000030FF
30FF00000080E0
30FF20FFFFFF40
30FF003030A0A0
30FF00000040F0
30FF00000030FF
30FF00000030FF
30FF102020A0E0
30FF80FFFFE040
30FF0000000000
30FF0000000000
30FF0000000000
ENDCHAR
STARTCHAR  03B3
ENCODING  947
SWIDTH  1000 0
DWIDTH  14 0
BBX  10 12 2 -3
BITMAP
FFE0800000000040E0FF
3060F080000010E08030
000060FF300080C00000
000000A0E030F0300000
00000010E0F0A0000000
0000000040FF10000000
0000000030FF00000000
0000000030FF00000000
0000000030FF00000000
0000000030FF00000000
0000000030FF00000000
0000000030FF00000000
ENDCHAR
STARTCHAR  03B4
ENCODING  948
SWIDTH  1000 0
DWIDTH  14 0
BBX  8 12 3 0
BITMAP
0020C0F0FFF0E040
0080E0403030A0E0
00A0A000000030FF
0060FF8010001060
000060F0E0600000
0010A0FFA0F0C010
00C0C0200010C0A0
20FF2000000040F0
30FF0000000030FF
30FF0000000030F0
10FF80202030A0E0
0060E0FFFFFFF060
ENDCHAR
STARTCHAR  03B5
ENCODING  949
SWIDTH  1000 0
DWIDTH  15 0
BBX  8 8 3 0
BITMAP
0080F0F0FFF0E060
30FF8030303080F0
30FF600000002080
00A0FFFFFFFF4000
10F0603030301000
30FF0000000030FF
20FF4010101080E0
0080F0FFFFFFF060
ENDCHAR
STARTCHAR  03B6
ENCODING  950
SWIDTH  1000 0
DWIDTH  14 0
BBX  7 15 3 -3
BITMAP
00408000000000
00E08000000000
20FF3000000000
00A0FFF0F0F0F0
10E08020202020
30FF1000000000
30FF0000000000
30FF0000000000
20FF3000000000
00C0FFFFF0E040
0000203030A0E0
000000000040FF
000000000030FF
0010202030A0E0
0060FFFFFFE040
ENDCHAR
STARTCHAR  03B7
ENCODING  951
SWIDTH  1000 0
DWIDTH  14 0
BBX  8 12 2 -3
BITMAP
A0F080C0F0F0E030
2060FF803030A0E0
0030FF00000030FF
0030FF00000030FF
0030FF00000030FF
0030FF00000030FF
0030FF00000030FF
0030FF00000030FF
0030FF00000030FF
00000000000030FF
00000000000030FF
00000000000030FF
ENDCHAR
STARTCHAR  03B8
ENCODING  952
SWIDTH  1000 0
DWIDTH  14 0
BBX  8 12 3 0
BITMAP
0040E0F0FFF0C020
00F080303030C0A0
20FF1000000040F0
30FF0000000030FF
30FF0000000030FF
30FFFFFFFFFFFFFF
30FF3030303060FF
30FF0000000030FF
30FF0000000030FF
20FF1000000040F0
00E0A0302030C0C0
0040E0FFFFFFE030
ENDCHAR
STARTCHAR  03B9
ENCODING  953
SWIDTH  1000 0
DWIDTH  14 0
BBX  7 9 5 0
BITMAP
20800000000000
30FF0000000000
30FF0000000000
30FF0000000000
30FF0000000000
30FF0000000000
30FF0000000000
10F06020202010
0060F0FFFFFF60
ENDCHAR
STARTCHAR  03BA
ENCODING  954
SWIDTH  1000 0
DWIDTH  14 0
BBX  8 8 3 0
BITMAP
30FF00000020F060
30FF000010E0A000
30FF0010C0C00000
30FFFFFFE0100000
30FF3040F0600000
30FF000040F02000
30FF000000A0E000
30FF00000010E080
ENDCHAR
STARTCHAR  03BB
ENCODING  955
SWIDTH  1000 0
DWIDTH  14 0
BBX  10 11 2 0
BITMAP
00FFF0E0200000000000
003030C0A00000000000
00000040FF2000000000
00000030FF8000000000
000000A0F0E000000000
000030FF40FF40000000
0000A0C000A0C0000000
0030FF300040FF200000
00A0C0000000E0800000
20FF4000000080F04010
A0C00000000010C0FF80
ENDCHAR
STARTCHAR  03BC
ENCODING  956
SWIDTH  1000 0
DWIDTH  15 0
BBX  10 12 3 -3
BITMAP
30FF0000000030FF0000
30FF0000000030FF0000
30FF0000000030FF0000
30FF0000000030FF0000
30FF0000000030FF0000
30FF0000000030FF0000
30FF0000000030FF0000
30FFA0302040C0FF4000
30FFA0FFFFFFC0A0FF40
30FF0000000000000000
30FF0000000000000000
30FF0000000000000000
ENDCHAR
STARTCHAR  03BD
ENCODING  957
SWIDTH  1000 0
DWIDTH  14 0
BBX  9 9 3 0
BITMAP
F0C01000000000C060
30E08000000020FF20
0080C000000060E000
0040F0000000C08000
0010FF300000F04000
0000E0600040F00000
000080A000A0A00000
000040F020E0600000
000010FFFFFF100000
ENDCHAR
STARTCHAR  03BE
ENCODING  958
SWIDTH  1000 0
DWIDTH  14 0
BBX  8 15 3 -3
BITMAP
0040600000000000
00F0600000000000
00A0FFFFFFFFFFA0
00F0603030303020
00FF400000000000
0080FFFFFFFFFFA0
00E0803030303020
10FF200000000000
10FF600000000000
00A0FFFFFFF0E040
000020303030A0E0
00000000000030FF
00000000000030FF
00002020202080E0
0030FFFFFFFFE040
ENDCHAR
STARTCHAR  03BF
ENCODING  959
SWIDTH  1000 0
DWIDTH  14 0
BBX  8 8 3 0
BITMAP
0030C0F0FFF0A010
00E0A0303030C0A0
30FF1000000040F0
30FF0000000030FF
30FF0000000030FF
30FF1000000040F0
10F0A0302030C0C0
0040E0FFFFFFE020
ENDCHAR
STARTCHAR  03C0
ENCODING  960
SWIDTH  1000 0
DWIDTH  15 0
BBX  9 8 3 0
BITMAP
FFFFFFFFFFFFFFFFFF
3060FF303060FF3030
0030FF000030FF0000
0030FF000030FF0000
0030FF000030FF0000
0030FF000030FF0000
2080F0000020FF6020
FFF06000000080F0FF
ENDCHAR
STARTCHAR  03C1
ENCODING  961
SWIDTH  1000 0
DWIDTH  15 0
BBX  8 12 3 -3
BITMAP
0030E0F0FFF0C020
00E0A0303030C0C0
20FF1000000040FF
30FF0000000030FF
30FF0000000030FF
30FF0000000030FF
30FF0000000040FF
30FF00202020C0C0
30FF40FFFFFFE030
30FF000000000000
30FF000000000000
30FF000000000000
ENDCHAR
STARTCHAR  03C3
ENCODING  963
SWIDTH  1000 0
DWIDTH  14 0
BBX  9 8 3 0
BITMAP
0030C0F0FFFFFFFF40
00E0A0403030303010
30FF1080FFF0C03000
30FF00103030A0C000
30FF0000000040FF00
20FF1000000030F000
00F080302030A0C000
0060E0FFFFFFE03000
ENDCHAR
STARTCHAR  03C4
ENCODING  964
SWIDTH  1000 0
DWIDTH  14 0
BBX  7 8 4 0
BITMAP
FFFFFFFFFFFFFF
3060FF30303030
0030FF00000000
0030FF00000000
0030FF00000000
0030FF00000000
0010FF60202020
000060F0FFFFC0
ENDCHAR
STARTCHAR  03C5
ENCODING  965
SWIDTH  1000 0
DWIDTH  14 0
BBX  8 8 2 0
BITMAP
20F0A000000030FF
0060FF00000030FF
0030FF00000030FF
0030FF00000030FF
0030FF00000030FF
0030FF00000030FF
0010F0802030A0E0
000060E0FFFFE040
ENDCHAR
STARTCHAR  03C6
ENCODING  966
SWIDTH  1000 0
DWIDTH  14 0
BBX  9 12 2 -3
BITMAP
0060E0E000A0F0F060
10FF602020FF4080E0
30FF000030FF0030FF
30FF000030FF0030FF
30FF000030FF0030FF
30FF000030FF0030FF
20FF100030FF0030FF
00E0A03040FF2080E0
0030E0FFFFFFFFF060
0000000030FF000000
0000000030FF000000
0000000030FF000000
ENDCHAR
STARTCHAR  03C7
ENCODING  967
SWIDTH  1000 0
DWIDTH  14 0
BBX  10 12 2 -3
BITMAP
00F0E04000000020F060
0030A0E0000000A0C000
000000E0600040FF3000
00000080E010E0800000
00000010F0E0E0100000
0000000080FF60000000
00000000C0FF60000000
00000060F0A0E0000000
000010F08010F0600000
0000A0E0000080E00000
0040FF30000010F08010
10E0800000000040E0FF
ENDCHAR
STARTCHAR  03C8
ENCODING  968
SWIDTH  1000 0
DWIDTH  15 0
BBX  11 12 2 -3
BITMAP
0000000030FF0000000000
F0A0000030FF000000C0E0
60FF000030FF000030FF30
30FF000030FF000030FF00
30FF000030FF000030FF00
30FF000030FF000030FF00
30FF000030FF000030FF00
10FF802040FF2030A0E000
0060E0FFFFFFFFFFE04000
0000000030FF0000000000
0000000030FF0000000000
0000000030FF0000000000
ENDCHAR
STARTCHAR  03C9
ENCODING  969
SWIDTH  1000 0
DWIDTH  14 0
BBX  11 8 1 0
BITMAP
0060E0F0400040FFF0C020
10F080301000103030C0E0
30FF000020C000000040FF
30FF000030FF00000030FF
30FF000030FF00000030FF
30FF000030FF00000030FF
10FF602080E080303080E0
0080FFFFE020C0FFFFE040
ENDCHAR
STARTCHAR  0401
ENCODING  1025
SWIDTH  1000 0
DWIDTH  14 0
BBX  10 14 2 0
BITMAP
000030FF0030FF000000
00000030000030000000
00000000000000000000
30FFFFFFFFFFFFFFFF30
30FF3030303030303000
30FF0000000000000000
30FF0000000000000000
30FF0000000000000000
30FFFFFFFFFFFFFFA000
30FF3030303030302000
30FF0000000000000000
30FF0000000000000000
30FF2020202020202000
30FFFFFFFFFFFFFFFF30
ENDCHAR
STARTCHAR  0410
ENCODING  1040
SWIDTH  1000 0
DWIDTH  14 0
BBX  12 12 1 0
BITMAP
00000040FFFFFFFF40000000
00000080C03030C0A0000000
000000E080000060E0000000
000010FF30000030FF200000
000060F000000000F0600000
0000A0C000000000A0A00000
0000E0800000000060E00000
0020FF300000000030FF2000
0060FFFFFFFFFFFFFFFF6000
00A0C0303030303030A0A000
00F06000000000000060F000
30FF1000000000000010FF30
ENDCHAR
STARTCHAR  0411
ENCODING  1041
SWIDTH  1000 0
DWIDTH  14 0
BBX  9 11 3 0
BITMAP
30FFFFFFFFFFFFA000
30FF30303030302000
30FF00000000000000
30FF00000000000000
30FFFFFFFFF0C02000
30FF30303030C0C000
30FF0000000040FF00
30FF0000000030FF00
30FF0000000040FF00
30FF20202030C0C000
30FFFFFFFFFFC02000
ENDCHAR
STARTCHAR  0412
ENCODING  1042
SWIDTH  1000 0
DWIDTH  14 0
BBX  10 11 2 0
BITMAP
30FFFFFFFFFFF0F0A020
30FF303030303040E0C0
30FF00000000000040F0
30FF00000000000040FF
30FF000000000010A0C0
30FFFFFFFFFFFFFFF030
30FF303030303040C0C0
30FF00000000000030F0
30FF00000000000020F0
30FF202020202030A0C0
30FFFFFFFFFFFFF0C020
ENDCHAR
STARTCHAR  0413
ENCODING  1043
SWIDTH  1000 0
DWIDTH  14 0
BBX  9 11 3 0
BITMAP
30FFFFFFFFFFFFFF20
30FF30303030303000
30FF00000000000000
30FF00000000000000
30FF00000000000000
30FF00000000000000
30FF00000000000000
30FF00000000000000
30FF00000000000000
30FF00000000000000
30FF00000000000000
ENDCHAR
STARTCHAR  0414
ENCODING  1044
SWIDTH  1000 0
DWIDTH  14 0
BBX  11 14 1 -2
BITMAP
000000000060FFFFFFFF00
0000000000C0A03060FF00
0000000020FF300030FF00
0000000080E0000030FF00
00000000E080000030FF00
00000030FF20000030FF00
00000080C000000030FF00
000000E06000000030FF00
000040FF1000000030FF00
0000A0C00000000030FF00
0020F0802020202040FF20
30FFFFFFFFFFFFFFFFFFFF
30FF0000000000000000FF
20C00000000000000000C0
ENDCHAR
STARTCHAR  0415
ENCODING  1045
SWIDTH  1000 0
DWIDTH  14 0
BBX  10 11 2 0
BITMAP
30FFFFFFFFFFFFFFFF00
30FF3030303030303000
30FF0000000000000000
30FF0000000000000000
30FF0000000000000000
30FFFFFFFFFFFFFF8000
30FF3030303030301000
30FF0000000000000000
30FF0000000000000000
30FF2020202020202000
30FFFFFFFFFFFFFFFF00
ENDCHAR
STARTCHAR  0416
ENCODING  1046
SWIDTH  1000 0
DWIDTH  14 0
BBX  13 11 1 0
BITMAP
60F0A0000030FF000010C0F020
1040F0300030FF000060E03000
0000C0800030FF0000A0800000
000060E00030FF0010F0400000
000020FF2030FF0040F0000000
000000E0FFFFFFFFFFA0000000
000020FF4060FF3060E0000000
000080E00030FF0010F0300000
0000E0800030FF0000C0800000
1040FF200030FF000060E03000
60FFA0000030FF000010C0FF30
ENDCHAR
STARTCHAR  0417
ENCODING  1047
SWIDTH  1000 0
DWIDTH  14 0
BBX  9 11 2 0
BITMAP
0030C0F0F0F0E08000
00E0A040303040E060
20FF100000000080A0
30E000000000008080
00000000000010C060
00000080FFFFFFE010
00000010303030A0C0
20C0000000000040FF
30FF100000000040FF
00F08030202030A0E0
0040E0FFFFFFFFE030
ENDCHAR
STARTCHAR  0418
ENCODING  1048
SWIDTH  1000 0
DWIDTH  14 0
BBX  9 11 2 0
BITMAP
30FF0000000000A0FF
30FF0000000040FFFF
30FF00000000E0A0FF
30FF00000080C030FF
30FF000020F03030FF
30FF0000C0800030FF
30FF0060E0000030FF
30FF10F040000030FF
30FFA0A000000030FF
30FFF01000000030FF
30FF600000000030FF
ENDCHAR
STARTCHAR  0419
ENCODING  1049
SWIDTH  1000 0
DWIDTH  14 0
BBX  9 14 2 0
BITMAP
000080600000806000
000080FFFFFFFF6000
000000203030200000
30FF0000000000A0FF
30FF0000000040FFFF
30FF00000000E0A0FF
30FF00000080C030FF
30FF000020F03030FF
30FF0000C0800030FF
30FF0060E0000030FF
30FF10F040000030FF
30FFA0A000000030FF
30FFF01000000030FF
30FF600000000030FF
ENDCHAR
STARTCHAR  041A
ENCODING  1050
SWIDTH  1000 0
DWIDTH  14 0
BBX  10 11 2 0
BITMAP
30FF0000000010C0F040
30FF0000000080E04010
30FF00000020F0600000
30FF000000A0C0000000
30FF000030FF40000000
30FFFFFFFFC000000000
30FF303060F020000000
30FF000000C0A0000000
30FF00000030FF400000
30FF00000000A0E03010
30FF0000000010E0FF60
ENDCHAR
STARTCHAR  041B
ENCODING  1051
SWIDTH  1000 0
DWIDTH  14 0
BBX  10 12 2 0
BITMAP
00000000406000000000
00000000E0F010000000
00000020FFE060000000
00000080C080E0000000
000000E08020FF300000
000030FF2000C0800000
000080C0000060E00000
0000E060000010F04000
0030FF10000000A0A000
0080C00000000040F010
30E0600000000000E060
FFC010000000000080E0
ENDCHAR
STARTCHAR  041C
ENCODING  1052
SWIDTH  1000 0
DWIDTH  13 0
BBX  12 11 0 0
BITMAP
30FFE000000000000010F0FF
30FFE060000000000080E0FF
30FF40E01000000020F040FF
30FF00A080000000A08030FF
30FF0020F0200030F01030FF
30FF000080A000C0600030FF
30FF000010E080E0000030FF
30FF00000060FF60000030FF
30FF000000000000000030FF
30FF000000000000000030FF
30FF000000000000000030FF
ENDCHAR
STARTCHAR  041D
ENCODING  1053
SWIDTH  1000 0
DWIDTH  15 0
BBX  10 11 2 0
BITMAP
30FF00000000000030FF
30FF00000000000030FF
30FF00000000000030FF
30FF00000000000030FF
30FFFFFFFFFFFFFFFFFF
30FF30303030303060FF
30FF00000000000030FF
30FF00000000000030FF
30FF00000000000030FF
30FF00000000000030FF
30FF00000000000030FF
ENDCHAR
STARTCHAR  041E
ENCODING  1054
SWIDTH  1000 0
DWIDTH  13 0
BBX  10 11 1 0
BITMAP
0010A0F0F0FFFFF0A010
00C0E04030303040E0A0
10FF30000000000060E0
30FF00000000000030FF
30FF00000000000030FF
30FF00000000000030FF
30FF00000000000030FF
30FF00000000000030FF
20FF20000000000060E0
00E0C03020202040E0A0
0030C0FFFFFFFFF0A010
ENDCHAR
STARTCHAR  041F
ENCODING  1055
SWIDTH  1000 0
DWIDTH  14 0
BBX  9 11 2 0
BITMAP
30FFFFFFFFFFFFFFFF
30FF303030303060FF
30FF000000000030FF
30FF000000000030FF
30FF000000000030FF
30FF000000000030FF
30FF000000000030FF
30FF000000000030FF
30FF000000000030FF
30FF000000000030FF
30FF000000000030FF
ENDCHAR
STARTCHAR  0420
ENCODING  1056
SWIDTH  1000 0
DWIDTH  13 0
BBX  9 12 2 0
BITMAP
30FFFFFFFFFFF0E030
30FF3030303030A0C0
30FF000000000040FF
30FF000000000030FF
30FF000000000030FF
30FF000000000080E0
30FFFFFFFFFFFFF040
30FF30303030200000
30FF00000000000000
30FF00000000000000
30FF00000000000000
30FF00000000000000
ENDCHAR
STARTCHAR  0421
ENCODING  1057
SWIDTH  1000 0
DWIDTH  13 0
BBX  10 12 1 0
BITMAP
001080E0F0FFFFF0A010
00A0E04030303040E0A0
00F040000000000060E0
20FF10000000000030FF
30FF00000000000020C0
30FF0000000000000000
30FF0000000000000000
30FF00000000000030F0
20FF20000000000030FF
00F060000000000060E0
00A0E04020202040F080
0010A0F0FFFFFFE08000
ENDCHAR
STARTCHAR  0422
ENCODING  1058
SWIDTH  1000 0
DWIDTH  14 0
BBX  10 12 2 0
BITMAP
FFFFFFFFFFFFFFFFFFFF
3030303060FF30303030
0000000030FF00000000
0000000030FF00000000
0000000030FF00000000
0000000030FF00000000
0000000030FF00000000
0000000030FF00000000
0000000030FF00000000
0000000030FF00000000
0000000030FF00000000
0000000030FF00000000
ENDCHAR
STARTCHAR  0423
ENCODING  1059
SWIDTH  1000 0
DWIDTH  14 0
BBX  10 12 2 0
BITMAP
20800000000000008020
10F0400000000060E000
0080C000000000E08000
0020FF20000040F01000
0000A0A00000A0A00000
000040F01020FF300000
000000E06080C0000000
00000060E0F040000000
00000000F0E000000000
00000000E06000000000
00202080F01000000000
00FFFFE0400000000000
ENDCHAR
STARTCHAR  0424
ENCODING  1060
SWIDTH  1000 0
DWIDTH  13 0
BBX  10 11 1 0
BITMAP
0000000030FF00000000
0010A0F0FFFFF0E08000
00C0E04060FF3040E080
10FF300030FF000060E0
30FF000030FF000030FF
30FF000030FF000030FF
30FF000030FF000030FF
20FF200030FF000060F0
00E0A01030FF0020E0C0
0030E0FFFFFFFFFFC020
0000002060FF20100000
ENDCHAR
STARTCHAR  0425
ENCODING  1061
SWIDTH  1000 0
DWIDTH  14 0
BBX  12 11 1 0
BITMAP
0080E0100000000010E0A000
0000C0C000000000C0C00000
000020E080000080E0200000
00000040FF4040FF40000000
0000000080F0F08000000000
0000000010F0F00000000000
00000000A0E0E0A000000000
00000060F02020F060000000
000040F040000040F0400000
0020E0800000000080E02000
00C0A0000000000000C0C000
ENDCHAR
STARTCHAR  0426
ENCODING  1062
SWIDTH  1000 0
DWIDTH  14 0
BBX  10 14 2 -2
BITMAP
20800000000000208000
30FF000000000030FF00
30FF000000000030FF00
30FF000000000030FF00
30FF000000000030FF00
30FF000000000030FF00
30FF000000000030FF00
30FF000000000030FF00
30FF000000000030FF00
30FF000000000030FF00
30FF202020202040FF00
30FFFFFFFFFFFFFFFFA0
000000000000000040FF
00000000000000002080
ENDCHAR
STARTCHAR  0427
ENCODING  1063
SWIDTH  1000 0
DWIDTH  14 0
BBX  9 11 2 0
BITMAP
30FF000000000030FF
30FF000000000030FF
30FF000000000030FF
30FF000000000030FF
30FF000000000030FF
30FF000000000030FF
00F0600000000030FF
0060F0FFFFFFFFFFFF
0000002030303060FF
0000000000000030FF
0000000000000030FF
ENDCHAR
STARTCHAR  0428
ENCODING  1064
SWIDTH  1000 0
DWIDTH  15 0
BBX  12 12 1 0
BITMAP
208000000020800000002080
30FF00000030FF00000030FF
30FF00000030FF00000030FF
30FF00000030FF00000030FF
30FF00000030FF00000030FF
30FF00000030FF00000030FF
30FF00000030FF00000030FF
30FF00000030FF00000030FF
30FF00000030FF00000030FF
30FF00000030FF00000030FF
30FF20202040FF20202040FF
30FFFFFFFFFFFFFFFFFFFFFF
ENDCHAR
STARTCHAR  0429
ENCODING  1065
SWIDTH  1000 0
DWIDTH  14 0
BBX  12 14 1 -2
BITMAP
208000000020800000208000
30FF00000030FF000030FF00
30FF00000030FF000030FF00
30FF00000030FF000030FF00
30FF00000030FF000030FF00
30FF00000030FF000030FF00
30FF00000030FF000030FF00
30FF00000030FF000030FF00
30FF00000030FF000030FF00
30FF00000030FF000030FF00
30FF20202040FF202040FF00
30FFFFFFFFFFFFFFFFFFFFA0
0000000000000000000040FF
000000000000000000002080
ENDCHAR
STARTCHAR  042A
ENCODING  1066
SWIDTH  1000 0
DWIDTH  14 0
BBX  10 11 1 0
BITMAP
40FFFFFF000000000000
103060FF000000000000
000030FF000000000000
000030FF000000000000
000030FFFFFFFFF0C020
000030FF30303030C0C0
000030FF0000000040F0
000030FF0000000030FF
000030FF0000000040FF
000030FF20202030C0E0
000030FFFFFFFFFFC020
ENDCHAR
STARTCHAR  042B
ENCODING  1067
SWIDTH  1000 0
DWIDTH  14 0
BBX  10 11 2 0
BITMAP
30FF00000000000030FF
30FF00000000000030FF
30FF00000000000030FF
30FF00000000000030FF
30FFFFFFFFF0C02030FF
30FF30303040E0C030FF
30FF0000000040FF30FF
30FF0000000030FF30FF
30FF0000000040FF30FF
30FF20202030C0C030FF
30FFFFFFFFF0C02030FF
ENDCHAR
STARTCHAR  042C
ENCODING  1068
SWIDTH  1000 0
DWIDTH  14 0
BBX  8 12 3 0
BITMAP
2080000000000000
30FF000000000000
30FF000000000000
30FF000000000000
30FF000000000000
30FFFFFFFFF0C030
30FF30303030C0E0
30FF0000000040FF
30FF0000000030FF
30FF0000000040FF
30FF20202030C0E0
30FFFFFFFFFFC030
ENDCHAR
STARTCHAR  042D
ENCODING  1069
SWIDTH  1000 0
DWIDTH  14 0
BBX  9 11 2 0
BITMAP
0040E0F0FFFFF0A010
00E0A030303040E0C0
20FF100000000040F0
30FF000000000030FF
0020000000000030FF
00000080FFFFFFFFFF
0010001030303060FF
30FF000000000030FF
30FF100000000040F0
10F08030202040E0A0
0040E0FFFFFFF0A010
ENDCHAR
STARTCHAR  042E
ENCODING  1070
SWIDTH  1000 0
DWIDTH  15 0
BBX  12 11 1 0
BITMAP
30FF000020A0F0F0FFF0A010
30FF0000C0C040303040E0A0
30FF0020FF200000000040F0
30FF0030FF000000000030FF
30FF0030FF000000000030FF
30FFFFFFFF000000000030FF
30FF3060FF000000000030FF
30FF0030FF000000000030FF
30FF0020FF200000000040F0
30FF0000E0C030203040E0A0
30FF000030E0FFFFFFE08010
ENDCHAR
STARTCHAR  042F
ENCODING  1071
SWIDTH  1000 0
DWIDTH  14 0
BBX  10 11 1 0
BITMAP
0060E0F0FFFFFFFFFFFF
10F0A0303030303060FF
30FF10000000000030FF
30FF00000000000030FF
10FF60000000000030FF
0080FFFFFFFFFFFFFFFF
00001030F080303060FF
00000060F010000030FF
000000E08000000030FF
102080FF2000000030FF
80FFE0600000000030FF
ENDCHAR
STARTCHAR  0430
ENCODING  1072
SWIDTH  1000 0
DWIDTH  14 0
BBX  9 8 2 0
BITMAP
0080F0FFFFFFE04000
20FF60303030A0E000
10600000000030FF00
0060E0F0F0F0F0FF00
20F04020202040FF00
40E00000000030FF00
10F040202030A0FF30
0080F0FFFFF0C0C0E0
ENDCHAR
STARTCHAR  0431
ENCODING  1073
SWIDTH  1000 0
DWIDTH  15 0
BBX  8 12 3 0
BITMAP
0000000000002080
0040E0FFFFFFFFC0
00F0A03020202000
30FF100000000000
30FFA0F0FFFFE030
30FFC0402040C0C0
30FF0000000040FF
30FF0000000030FF
30FF0000000030FF
30FF1000000040F0
10F0A0302040E0A0
0040C0F0FFF0A010
ENDCHAR
STARTCHAR  0432
ENCODING  1074
SWIDTH  1000 0
DWIDTH  14 0
BBX  8 8 3 0
BITMAP
30FFFFFFFFF0E030
30FF30303030C0C0
30FF00000000A0C0
30FFFFFFFFFFF030
30FF30303030C0A0
30FF0000000060E0
30FF20202030A0A0
30FFFFFFFFFFE030
ENDCHAR
STARTCHAR  0433
ENCODING  1075
SWIDTH  1000 0
DWIDTH  14 0
BBX  8 8 3 0
BITMAP
30FFFFFFFFFFFF60
30FF303030303010
30FF000000000000
30FF000000000000
30FF000000000000
30FF000000000000
30FF000000000000
30FF000000000000
ENDCHAR
STARTCHAR  0434
ENCODING  1076
SWIDTH  1000 0
DWIDTH  14 0
BBX  9 10 2 -2
BITMAP
00000000A0FFFFFF00
00000010F06060FF00
00000080E00030FF00
000000E0600030FF00
000040F0100030FF00
0000A0A0000030FF00
0030FF40202040FF20
30FFFFFFFFFFFFFFFF
30FF000000000030FF
20C0000000000020C0
ENDCHAR
STARTCHAR  0435
ENCODING  1077
SWIDTH  1000 0
DWIDTH  14 0
BBX  10 8 2 0
BITMAP
0030C0F0FFF0F0C02000
00F0A030303030A0C000
30FF100000000030FF00
30FFFFFFFFFFFFFFFF00
30FF3030303030303000
30FF100000000030FF00
10F0A030202030A0C000
0040C0F0FFFFFFC02000
ENDCHAR
STARTCHAR  0436
ENCODING  1078
SWIDTH  1000 0
DWIDTH  14 0
BBX  12 8 1 0
BITMAP
00E0E0200030FF000040E0C0
0020C0C00030FF0000E0A020
000030FF4030FF0080E01000
000000A0FFFFFFFFFF600000
000000E08060FF30C0A00000
000060F01030FF0040FF2000
0030E0800030FF0000C0A020
00FFE0100030FF000030E0E0
ENDCHAR
STARTCHAR  0437
ENCODING  1079
SWIDTH  1000 0
DWIDTH  14 0
BBX  8 8 3 0
BITMAP
0080F0FFFFF0E030
00F040303030C0A0
00A000000000A0A0
000000A0FFFFFF30
20A000203030A0A0
30FF0000000060E0
10FF60202030C0C0
0080F0FFFFFFE040
ENDCHAR
STARTCHAR  0438
ENCODING  1080
SWIDTH  1000 0
DWIDTH  14 0
BBX  8 8 3 0
BITMAP
30FF00000000A0FF
30FF00000060F0FF
30FF000020F060FF
30FF0000E08030FF
30FF0080C00030FF
30FF40F0200030FF
30FFE040000030FF
30FF8000000030FF
ENDCHAR
STARTCHAR  0439
ENCODING  1081
SWIDTH  1000 0
DWIDTH  14 0
BBX  8 11 3 0
BITMAP
0000C0A00040FF00
000080FFFFFFC000
0000001020200000
30FF0000000060FF
30FF00000030F0FF
30FF000010E060FF
30FF0000C0A000FF
30FF0080E01000FF
30FF40F0200000FF
30FFE060000000FF
30FFA000000000FF
ENDCHAR
STARTCHAR  043A
ENCODING  1082
SWIDTH  1000 0
DWIDTH  14 0
BBX  8 8 3 0
BITMAP
30FF00000060F0C0
30FF000030FF6020
30FF0010E0800000
30FFFFFFF0000000
30FF3030F0400000
30FF000080E00000
30FF000010E08020
30FF00000060F0E0
ENDCHAR
STARTCHAR  043B
ENCODING  1083
SWIDTH  1000 0
DWIDTH  14 0
BBX  9 9 2 0
BITMAP
000000108020000000
00000060FF80000000
000000E0E0F0000000
000030FF30F0600000
000080E00080C00000
0000E0600030FF2000
0040F0100000C08000
30C0A000000060F000
FFE02000000010F060
ENDCHAR
STARTCHAR  043C
ENCODING  1084
SWIDTH  1000 0
DWIDTH  14 0
BBX  10 8 2 0
BITMAP
30FFA00000000000E0FF
30FFF03000000060F0FF
30FF80C0000010F060FF
30FF10E0400080A030FF
30FF0060E020F02030FF
30FF0000E0E0A00030FF
30FF000040A0100030FF
30FF00000000000030FF
ENDCHAR
STARTCHAR  043D
ENCODING  1085
SWIDTH  1000 0
DWIDTH  14 0
BBX  8 8 3 0
BITMAP
30FF0000000030FF
30FF0000000030FF
30FF0000000030FF
30FFFFFFFFFFFFFF
30FF3030303060FF
30FF0000000030FF
30FF0000000030FF
30FF0000000030FF
ENDCHAR
STARTCHAR  043E
ENCODING  1086
SWIDTH  1000 0
DWIDTH  14 0
BBX  9 8 2 0
BITMAP
0030C0F0FFFFF0A010
00F0C040303040C0C0
30FF100000000040F0
30FF000000000030FF
30FF000000000030FF
20FF100000000040FF
00E0A030202040E0C0
0020C0F0FFFFE0A010
ENDCHAR
STARTCHAR  043F
ENCODING  1087
SWIDTH  1000 0
DWIDTH  14 0
BBX  8 8 3 0
BITMAP
30FFFFFFFFFFFFFF
30FF3030303060FF
30FF0000000030FF
30FF0000000030FF
30FF0000000030FF
30FF0000000030FF
30FF0000000030FF
30FF0000000030FF
ENDCHAR
STARTCHAR  0440
ENCODING  1088
SWIDTH  1000 0
DWIDTH  14 0
BBX  9 12 2 -3
BITMAP
30FFA0F0FFFFF0A010
30FFA040302040E0A0
30FF000000000040F0
30FF000000000030FF
30FF000000000030FF
30FF000000000030FF
30FF000000000060E0
30FFA030202030E0A0
30FFA0F0FFFFF0A010
30FF00000000000000
30FF00000000000000
30FF00000000000000
ENDCHAR
STARTCHAR  0441
ENCODING  1089
SWIDTH  1000 0
DWIDTH  14 0
BBX  9 8 2 0
BITMAP
0020A0F0F0FFF0C020
00E0C040303040E0C0
20FF200000000040FF
30FF00000000001080
30FF00000000001060
20FF200000000040FF
00E0C040202030C0C0
0030C0F0FFFFF0C020
ENDCHAR
STARTCHAR  0442
ENCODING  1090
SWIDTH  1000 0
DWIDTH  13 0
BBX  7 8 3 0
BITMAP
FFFFFFFFFFFFFF
303060FF303030
000030FF000000
000030FF000000
000030FF000000
000030FF000000
000030FF000000
000030FF000000
ENDCHAR
STARTCHAR  0443
ENCODING  1091
SWIDTH  1000 0
DWIDTH  14 0
BBX  9 12 2 -3
BITMAP
308000000000006040
10F04000000010F040
00A0C000000060E000
0030FF200000E08000
0000E0800030FF1000
000060F000A0A00000
000010F060F0400000
000000A0F0E0000000
00000030FF80000000
00000030FF10000000
002030E0A000000000
00FFF0A01000000000
ENDCHAR
STARTCHAR  0444
ENCODING  1092
SWIDTH  1000 0
DWIDTH  14 0
BBX  10 15 2 -3
BITMAP
0000000030FF00000000
0000000030FF00000000
0000000030FF00000000
0020C0F0FFFFF0F0A010
00E0A03060FF3040E0A0
20FF100030FF000060E0
30FF000030FF000030FF
30FF000030FF000030FF
30FF000030FF000030FF
20FF200030FF000040F0
00E0C04040FF2040E0A0
0030C0FFFFFFFFF0A010
0000000030FF00000000
0000000030FF00000000
0000000030FF00000000
ENDCHAR
STARTCHAR  0445
ENCODING  1093
SWIDTH  1000 0
DWIDTH  14 0
BBX  10 8 2 0
BITMAP
00A0E010000010E0A000
0000C0C00010C0C00000
000010E0A0A0E0100000
00000020F0F020000000
00000060F0F060000000
000040F06040F0400000
0020F080000060F02000
10E0A000000000A0E010
ENDCHAR
STARTCHAR  0446
ENCODING  1094
SWIDTH  1000 0
DWIDTH  14 0
BBX  9 11 2 -2
BITMAP
208000000000208000
30FF0000000030FF00
30FF0000000030FF00
30FF0000000030FF00
30FF0000000030FF00
30FF0000000030FF00
30FF0000000030FF00
30FF2020202040FF00
30FFFFFFFFFFFFFFC0
0000000000000040FF
000000000000002080
ENDCHAR
STARTCHAR  0447
ENCODING  1095
SWIDTH  1000 0
DWIDTH  15 0
BBX  8 8 3 0
BITMAP
30FF0000000030FF
30FF0000000030FF
30FF0000000030FF
20FF2000000030FF
00A0FFF0F0F0F0FF
00002020202040FF
00000000000030FF
00000000000030FF
ENDCHAR
STARTCHAR  0448
ENCODING  1096
SWIDTH  1000 0
DWIDTH  14 0
BBX  10 9 2 0
BITMAP
20800000208000002080
30FF000030FF000030FF
30FF000030FF000030FF
30FF000030FF000030FF
30FF000030FF000030FF
30FF000030FF000030FF
30FF000030FF000030FF
30FF202040FF202040FF
30FFFFFFFFFFFFFFFFFF
ENDCHAR
STARTCHAR  0449
ENCODING  1097
SWIDTH  1000 0
DWIDTH  13 0
BBX  10 11 1 -2
BITMAP
20800000208000002080
30FF000030FF000030FF
30FF000030FF000030FF
30FF000030FF000030FF
30FF000030FF000030FF
30FF000030FF000030FF
30FF000030FF000030FF
30FF202040FF202040FF
30FFFFFFFFFFFFFFFFFF
000000000000000040FF
00000000000000002080
ENDCHAR
STARTCHAR  044A
ENCODING  1098
SWIDTH  1000 0
DWIDTH  14 0
BBX  9 8 2 0
BITMAP
F0FFFF000000000000
2060FF000000000000
0030FFFFFFFFF0C020
0030FF30303030C0C0
0030FF0000000040FF
0030FF0000000040F0
0030FF20202030C0C0
0030FFFFFFFFFFE030
ENDCHAR
STARTCHAR  044B
ENCODING  1099
SWIDTH  1000 0
DWIDTH  15 0
BBX  10 8 2 0
BITMAP
30FF00000000000030FF
30FF00000000000030FF
30FFFFFFFFE0600030FF
30FF303030A0F01030FF
30FF00000020FF4030FF
30FF00000020FF4030FF
30FF20202080FF1030FF
30FFFFFFFFE0600030FF
ENDCHAR
STARTCHAR  044C
ENCODING  1100
SWIDTH  1000 0
DWIDTH  14 0
BBX  8 9 3 0
BITMAP
2080000000000000
30FF000000000000
30FF000000000000
30FF000000000000
30FFFFFFFFF0C020
30FF30303040E0A0
30FF0000000080E0
30FF10101020E0C0
30FFFFFFFFFFE030
ENDCHAR
STARTCHAR  044D
ENCODING  1101
SWIDTH  1000 0
DWIDTH  15 0
BBX  8 8 3 0
BITMAP
0080E0F0FFF0C030
10FF60303030A0E0
20C00000000030FF
00000080FFFFFFFF
20E00010303060FF
30FF0000000040FF
00F080302030C0E0
0040E0FFFFFFE030
ENDCHAR
STARTCHAR  044E
ENCODING  1102
SWIDTH  1000 0
DWIDTH  14 0
BBX  12 8 1 0
BITMAP
30FF000060E0F0FFF0C02000
30FF0010FF80303030C0E000
30FF0030FF0000000040FF00
30FFFFFFFF0000000030FF00
30FF3060FF0000000030FF00
30FF0030FF1000000030F000
30FF0000F0A0302030A0E000
30FF000040E0FFFFFFE04000
ENDCHAR
STARTCHAR  044F
ENCODING  1103
SWIDTH  1000 0
DWIDTH  14 0
BBX  8 8 2 0
BITMAP
0020E0F0FFFFFFFF
00A0C030303060FF
00A0A000000030FF
0040F0FFFFFFFFFF
000000A0C03060FF
000010F0400030FF
002080E0000030FF
20FFF040000030FF
ENDCHAR
STARTCHAR  0451
ENCODING  1105
SWIDTH  1000 0
DWIDTH  14 0
BBX  10 11 2 0
BITMAP
000030FF0030FF000000
00000030000030000000
00000000000000000000
0030C0F0FFF0F0C02000
00F0A030303030A0C000
30FF100000000030FF00
30FFFFFFFFFFFFFFFF00
30FF3030303030303000
30FF100000000030FF00
10F0A030202030A0C000
0040C0F0FFFFFFC02000
ENDCHAR
STARTCHAR  2014
ENCODING  8212
SWIDTH  1000 0
DWIDTH  14 0
BBX  16 2 -1 4
BITMAP
10FFFFFFFFFFFFFFFFFFFFFFFFFFFF10
00303030303030303030303030303000
ENDCHAR
STARTCHAR  2016
ENCODING  8214
SWIDTH  1000 0
DWIDTH  15 0
BBX  4 15 5 -2
BITMAP
30FF30FF
30FF30FF
30FF30FF
30FF30FF
30FF30FF
30FF30FF
30FF30FF
30FF30FF
30FF30FF
30FF30FF
30FF30FF
30FF30FF
30FF30FF
30FF30FF
30FF30FF
ENDCHAR
STARTCHAR  2018
ENCODING  8216
SWIDTH  1000 0
DWIDTH  13 0
BBX  3 5 9 9
BITMAP
002010
008010
108000
30FF00
002000
ENDCHAR
STARTCHAR  2019
ENCODING  8217
SWIDTH  1000 0
DWIDTH  13 0
BBX  2 4 1 8
BITMAP
30FF
00A0
3060
1000
ENDCHAR
STARTCHAR  201C
ENCODING  8220
SWIDTH  1000 0
DWIDTH  14 0
BBX  5 5 8 9
BITMAP
0020102010
0080108010
1080108000
30FF30FF00
0020002000
ENDCHAR
STARTCHAR  201D
ENCODING  8221
SWIDTH  1000 0
DWIDTH  14 0
BBX  4 4 1 8
BITMAP
30FF30FF
00A000A0
30603060
10001000
ENDCHAR
STARTCHAR  2026
ENCODING  8230
SWIDTH  1000 0
DWIDTH  15 0
BBX  12 2 1 4
BITMAP
30FF00000030FF00000030FF
003000000000300000000030
ENDCHAR
STARTCHAR  2030
ENCODING  8240
SWIDTH  1000 0
DWIDTH  14 0
BBX  12 13 1 0
BITMAP
000000000000400000000000
00C0F0800000800000000000
30FF60F00040400000000000
30FF30FF0080000000000000
30FF30FF1080000000000000
20FF60FF6020000000000000
00C0FFA08000000000000000
0000002060C0FFA000C0FF80
0000008040FF40F030FF40F0
0000008030FF30FF30FF30FF
0000404030FF30FF30FF30FF
0000800020FF80F020FF80F0
0010800000C0FFA000C0FFA0
ENDCHAR
STARTCHAR  2032
ENCODING  8242
SWIDTH  1000 0
DWIDTH  14 0
BBX  4 5 2 8
BITMAP
00004000
0010F030
00808000
00C00000
00200000
ENDCHAR
STARTCHAR  2033
ENCODING  8243
SWIDTH  1000 0
DWIDTH  14 0
BBX  6 5 1 8
BITMAP
0000A0100000
0040E000C040
00C03040E000
208000A02000
000010400000
ENDCHAR
STARTCHAR  203B
ENCODING  8251
SWIDTH  1000 0
DWIDTH  14 0
BBX  12 13 1 -1
BITMAP
000000000000000000000000
10E0200000A0A0000010C010
0060E0200080800020E08000
000060E030000020E0800000
00000060E03020E060000000
10C0400040F0E0600040C020
20F0600020E0E0200040F020
00000010E08060E010000000
000000C0A0000080C0000000
0000A0C000000000A0A00000
0080E0100080800000C08000
10E0200000A0C0000010C010
000000000000000000000000
ENDCHAR
STARTCHAR  2103
ENCODING  8451
SWIDTH  1000 0
DWIDTH  14 0
BBX  12 13 1 -1
BITMAP
20C0C0200000000000000000
C04040C00000000000000000
C02020C00000001000000000
40E0E04030E0FFFFFFE04000
00000000E0A010001060F010
00000010FF2000000000FF30
00000030FF00000000001000
00000030FF00000000000000
00000030FF0000000000A020
00000010FF2000000010FF20
00000000E0A010001080E000
0000000030C0FFFFFFE03000
000000000000000000000000
ENDCHAR
STARTCHAR  2116
ENCODING  8470
SWIDTH  1000 0
DWIDTH  14 0
BBX  13 12 1 -1
BITMAP
00200000002000000000000000
10FF300000FF10000000000000
10FFA00000FF10000000000000
10FFE01000FF10001010000000
10FFA06000FF1080FFFF800000
10FF30C000FF10F03030F00000
10FF00E020FF10FF0000FF1000
10FF006080FF10FF0000FF1000
10FF0010E0FF10FF0000FF1000
10FF000080FF10E06040E03060
10FF000020FF1060F0F06060FF
00000000000000000000000000
ENDCHAR
STARTCHAR  2160
ENCODING  8544
SWIDTH  1000 0
DWIDTH  14 0
BBX  2 11 6 0
BITMAP
30FF
30FF
30FF
30FF
30FF
30FF
30FF
30FF
30FF
30FF
30FF
ENDCHAR
STARTCHAR  2161
ENCODING  8545
SWIDTH  1000 0
DWIDTH  14 0
BBX  7 11 3 0
BITMAP
30FF00000030FF
30FF00000030FF
30FF00000030FF
30FF00000030FF
30FF00000030FF
30FF00000030FF
30FF00000030FF
30FF00000030FF
30FF00000030FF
30FF00000030FF
30FF00000030FF
ENDCHAR
STARTCHAR  2162
ENCODING  8546
SWIDTH  1000 0
DWIDTH  13 0
BBX  10 11 1 0
BITMAP
30FF000030FF000030FF
30FF000030FF000030FF
30FF000030FF000030FF
30FF000030FF000030FF
30FF000030FF000030FF
30FF000030FF000030FF
30FF000030FF000030FF
30FF000030FF000030FF
30FF000030FF000030FF
30FF000030FF000030FF
30FF000030FF000030FF
ENDCHAR
STARTCHAR  2163
ENCODING  8547
SWIDTH  1000 0
DWIDTH  14 0
BBX  12 11 1 0
BITMAP
30FF00C0800000000000E060
30FF0080C00000000010FF20
30FF0030FF1000000060E000
30FF0000F040000000A0A000
30FF0000A0A0000000E06000
30FF000060E0000020FF2000
30FF000020FF100060E00000
30FF000000E06000A0A00000
30FF000000A0A000F0600000
30FF00000060E040FF100000
30FF00000020FFFFE0000000
ENDCHAR
STARTCHAR  2164
ENCODING  8548
SWIDTH  1000 0
DWIDTH  14 0
BBX  10 12 2 0
BITMAP
40600000000000006040
40E0000000000000E040
10FF200000000020FF10
00C0600000000060C000
0080C000000000C08000
0040F000000000F04000
0000F040000040F00000
0000C080000080C00000
000080C00000E0800000
000030FF1010FF300000
000000F06060F0000000
000000A0FFFFA0000000
ENDCHAR
STARTCHAR  2165
ENCODING  8549
SWIDTH  1000 0
DWIDTH  14 0
BBX  11 11 1 0
BITMAP
A0A00000000000C08030FF
60E00000000000F04030FF
10FF2000000040F00030FF
00E06000000080C00030FF
00A0A0000000C0800030FF
0040F0000010FF300030FF
0010FF300040F0000030FF
0000E0800080C0000030FF
000080C000E080000030FF
000040F030FF30000030FF
000010FFFFF000000030FF
ENDCHAR
STARTCHAR  2166
ENCODING  8550
SWIDTH  1000 0
DWIDTH  15 0
BBX  12 11 1 0
BITMAP
60C000000040E030FF0030FF
40F000000080C030FF0030FF
10FF200000A08030FF0030FF
00E0400000E06030FF0030FF
00C0800010FF3030FF0030FF
0080A00030FF0030FF0030FF
0060E00060E00030FF0030FF
0030FF00A0A00030FF0030FF
0010FF30C0800030FF0030FF
0000E080F0400030FF0030FF
0000A0FFFF200030FF0030FF
ENDCHAR
STARTCHAR  2167
ENCODING  8551
SWIDTH  1000 0
DWIDTH  13 0
BBX  12 11 0 0
BITMAP
20F0000000F060FF30FF30FF
00FF100010FF40FF30FF30FF
00E0300030F030FF30FF30FF
00C0600060E030FF30FF30FF
00A0800080A030FF30FF30FF
0080A000A08030FF30FF30FF
0060C000C06030FF30FF30FF
0040E000E04030FF30FF30FF
0020FF10FF2030FF30FF30FF
0000F060FF0030FF30FF30FF
0000E0FFE00030FF30FF30FF
ENDCHAR
STARTCHAR  2168
ENCODING  8552
SWIDTH  1000 0
DWIDTH  14 0
BBX  12 11 1 0
BITMAP
30FF0080E01000000040FF30
30FF0000E0A0000010E08000
30FF000030FF400080E01000
30FF000000A0E030FF400000
30FF00000010E0F0A0000000
30FF0000000080FF40000000
30FF00000020F0E0C0000000
30FF000000C0C020F0600000
30FF000060F0200060F02000
30FF0010F080000000C0A000
30FF00A0E00000000030FF40
ENDCHAR
STARTCHAR  2169
ENCODING  8553
SWIDTH  1000 0
DWIDTH  14 0
BBX  10 11 2 0
BITMAP
10E0800000000080E010
0040FF30000030FF4000
0000A0E00000E0A00000
000010E08080E0100000
00000040FFFF40000000
00000000E0E000000000
00000080E0E080000000
000030FF4040FF300000
0000E0A00000A0E00000
0080E010000010E08000
30FF400000000040FF30
ENDCHAR
STARTCHAR  216A
ENCODING  8554
SWIDTH  1000 0
DWIDTH  14 0
BBX  11 11 1 0
BITMAP
30FF4000000010E08030FF
0080E010000080E00030FF
0000E0800030FF400030FF
000040FF30E0A0000030FF
000000A0F0E010000030FF
00000030FF8000000030FF
000000C0E0F020000030FF
000060F020A0C0000030FF
0010F0600020F0600030FF
00A0C000000060F01030FF
40FF3000000000C0A030FF
ENDCHAR
STARTCHAR  216B
ENCODING  8555
SWIDTH  1000 0
DWIDTH  15 0
BBX  12 11 1 0
BITMAP
30FF200000A0A030FF0030FF
00A0A00020FF3030FF0030FF
0030FF2080C00030FF0030FF
0000C0A0F0400030FF0030FF
000040FFE0000030FF0030FF
000010F080000030FF0030FF
000060F0F0100030FF0030FF
0000E060E0600030FF0030FF
0060E00060E00030FF0030FF
00E0800010E06030FF0030FF
40F010000080E030FF0030FF
ENDCHAR
STARTCHAR  2170
ENCODING  8560
SWIDTH  1000 0
DWIDTH  13 0
BBX  2 13 5 0
BITMAP
30E0
30FF
0000
0000
30FF
30FF
30FF
30FF
30FF
30FF
30FF
30FF
30FF
ENDCHAR
STARTCHAR  2171
ENCODING  8561
SWIDTH  1000 0
DWIDTH  14 0
BBX  5 13 4 0
BITMAP
30E00030E0
30FF0030FF
0000000000
0000000000
30FF0030FF
30FF0030FF
30FF0030FF
30FF0030FF
30FF0030FF
30FF0030FF
30FF0030FF
30FF0030FF
30FF0030FF
ENDCHAR
STARTCHAR  2172
ENCODING  8562
SWIDTH  1000 0
DWIDTH  15 0
BBX  8 13 3 0
BITMAP
30E00030E00030E0
30FF0030FF0030FF
0000000000000000
0000000000000000
30FF0030FF0030FF
30FF0030FF0030FF
30FF0030FF0030FF
30FF0030FF0030FF
30FF0030FF0030FF
30FF0030FF0030FF
30FF0030FF0030FF
30FF0030FF0030FF
30FF0030FF0030FF
ENDCHAR
STARTCHAR  2173
ENCODING  8563
SWIDTH  1000 0
DWIDTH  14 0
BBX  10 13 2 0
BITMAP
30E00000000000000000
30FF0000000000000000
00000000000000000000
00000000000000000000
30FF80FF10000000E0A0
30FF30FF40000020FF40
30FF00E0A0000060F000
30FF0080E00000A0A000
30FF0030FF2000F04000
30FF0000E06040F00000
30FF000080A080A00000
30FF000030E0E0400000
30FF000000E0F0000000
ENDCHAR
STARTCHAR  2174
ENCODING  8564
SWIDTH  1000 0
DWIDTH  14 0
BBX  10 10 2 0
BITMAP
30804000000000308020
10FFC000000000A0F010
00C0F010000010F0A000
0060FF60000040FF4000
0000F0A00000A0E00000
0000A0F00000F0800000
000040FF4040FF200000
000000E080A0C0000000
00000080E0E060000000
00000020FFF000000000
ENDCHAR
STARTCHAR  2175
ENCODING  8565
SWIDTH  1000 0
DWIDTH  14 0
BBX  10 13 2 0
BITMAP
000000000000000030E0
000000000000000030FF
00000000000000000000
00000000000000000000
20FF8000000030FF80FF
00C0C000000080F030FF
0060FF100000E0A030FF
0020FF600020FF4030FF
0000C0A00060E00030FF
000060E000C0800030FF
000010FF30F0300030FF
000000C0C0E0000030FF
00000060FF80000030FF
ENDCHAR
STARTCHAR  2176
ENCODING  8566
SWIDTH  1000 0
DWIDTH  13 0
BBX  11 13 1 0
BITMAP
0000000000000030E030E0
0000000000000030FF30FF
0000000000000000000000
0000000000000000000000
E0C000000040FF80FF30FF
80F000000080F030FF30FF
20FF400000E0A030FF30FF
00E0800010FF4030FF30FF
0080C00060E00030FF30FF
0030FF10A0A00030FF30FF
0000E040E0400030FF30FF
000080C0E0000030FF30FF
000030FF80000030FF30FF
ENDCHAR
STARTCHAR  2177
ENCODING  8567
SWIDTH  1000 0
DWIDTH  14 0
BBX  13 13 0 0
BITMAP
0000000000000030E030E030E0
0000000000000030FF30FF30FF
00000000000000000000000000
00000000000000000000000000
20FF40000010FF80FF30FF30FF
00E080000040F030FF30FF30FF
0080C0000080A030FF30FF30FF
0040FF1000E06030FF30FF30FF
0000F04010FF1030FF30FF30FF
0000A08040C00030FF30FF30FF
000060C080800030FF30FF30FF
000010F0E0300030FF30FF30FF
000000C0E0000030FF30FF30FF
ENDCHAR
STARTCHAR  2178
ENCODING  8568
SWIDTH  1000 0
DWIDTH  13 0
BBX  11 13 1 0
BITMAP
30E0000000000000000000
30FF000000000000000000
0000000000000000000000
0000000000000000000000
30FF10F0C0000010E0C000
30FF0060FF6000A0FF3000
30FF0000C0F040FF800000
30FF000020F0FFE0000000
30FF000000A0FF60000000
30FF000030FFF0E0100000
30FF0000E0E030FFA00000
30FF0080FF300080FF4000
30FF30FFA0000010E0E010
ENDCHAR
STARTCHAR  2179
ENCODING  8569
SWIDTH  1000 0
DWIDTH  14 0
BBX  10 9 2 0
BITMAP
00E0FF40000020F0E010
0020F0E01000C0F03000
000060FFA080FF600000
000000C0FFFFA0000000
00000030FFFF30000000
000000E0F0FFC0000000
000080FF6080FF800000
0040FFA00000C0FF4000
10E0F010000020F0E010
ENDCHAR
STARTCHAR  2190
ENCODING  8592
SWIDTH  1000 0
DWIDTH  14 0
BBX  15 4 0 3
BITMAP
002080200000000000000000000000
80FFFFE0C0C0C0C0C0C0C0C0C0C010
0060E0200000000000000000000000
000000000000000000000000000000
ENDCHAR
STARTCHAR  2191
ENCODING  8593
SWIDTH  1000 0
DWIDTH  14 0
BBX  4 15 5 -2
BITMAP
00001000
0010C000
0080FF40
00C0F080
0000C000
0000C000
0000C000
0000C000
0000C000
0000C000
0000C000
0000C000
0000C000
0000C000
00008000
ENDCHAR
STARTCHAR  2192
ENCODING  8594
SWIDTH  1000 0
DWIDTH  14 0
BBX  15 4 -1 3
BITMAP
000000000000000000000020802000
10C0C0C0C0C0C0C0C0C0C0E0FFFF80
000000000000000000000030E06000
000000000000000000000000000000
ENDCHAR
STARTCHAR  2193
ENCODING  8595
SWIDTH  1000 0
DWIDTH  14 0
BBX  4 15 5 -2
BITMAP
00006000
0000C000
0000C000
0000C000
0000C000
0000C000
0000C000
0000C000
0000C000
0000C000
0000C000
0080E060
00A0FF60
0030E000
00003000
ENDCHAR
STARTCHAR  2208
ENCODING  8712
SWIDTH  1000 0
DWIDTH  14 0
BBX  12 9 1 1
BITMAP
000010A0E0FFFFFFFFFFFF30
0020E0801000000000000000
00C060000000000000000000
20E000000000000000000000
40FFFFFFFFFFFFFFFFFFFF30
20E000000000000000000000
00C060000000000000000000
0020E0802000000000000000
000020A0F0FFFFFFFFFFFF30
ENDCHAR
STARTCHAR  220F
ENCODING  8719
SWIDTH  1000 0
DWIDTH  14 0
BBX  12 11 1 0
BITMAP
30FFFFFFFFFFFFFFFFFFFF30
001030FF10101010FF301000
000030FF00000000FF300000
000030FF00000000FF300000
000030FF00000000FF300000
000030FF00000000FF300000
000030FF00000000FF300000
000030FF00000000FF300000
000030FF00000000FF300000
000030FF00000000FF300000
000020A000000000A0200000
ENDCHAR
STARTCHAR  2211
ENCODING  8721
SWIDTH  1000 0
DWIDTH  14 0
BBX  10 11 2 0
BITMAP
20FFFFFFFFFFFFFFFFFF
00A0F030000000000000
000080F0400000000000
00000060F06000000000
0000000060F060000000
000000000080FF400000
0000000060FF80000000
00000060FF6000000000
000080F0400000000000
00A0F030000000000000
20FFFFFFFFFFFFFFFFFF
ENDCHAR
STARTCHAR  221A
ENCODING  8730
SWIDTH  1000 0
DWIDTH  14 0
BBX  12 10 1 0
BITMAP
0000000080E0E0E0E0E0E030
00000000C020000000000000
00000010E000000000000000
00000040A000000000000000
000000A04000000000000000
000000E01000000000000000
000020C00000000000000000
60A060800000000000000000
00A0F0300000000000000000
000080000000000000000000
ENDCHAR
STARTCHAR  221D
ENCODING  8733
SWIDTH  1000 0
DWIDTH  14 0
BBX  12 5 1 3
BITMAP
000000000000000000001000
40E0E0C040000040C0E0E0E0
E0200040C0E0E0C030000000
E0401060E0A0A0E060100010
30C0E0A030000030A0E0E0C0
ENDCHAR
STARTCHAR  221E
ENCODING  8734
SWIDTH  1000 0
DWIDTH  14 0
BBX  12 5 1 3
BITMAP
000000000000000000100000
40E0E0C040000040C0E0E060
E0200040C0E0E0C0400010E0
E0301060E0C0A0E0601030E0
30E0E0A030000030A0E0E040
ENDCHAR
STARTCHAR  2220
ENCODING  8736
SWIDTH  1000 0
DWIDTH  14 0
BBX  10 10 2 1
BITMAP
00000000000000002000
0000000000000060F010
00000000000060F03000
000000000060F0300000
0000000060F030000000
00000060F03000000000
000060F0300000000000
0060F030000000000000
60FFFFFFFFFFFFFFF000
00000000000000000000
ENDCHAR
STARTCHAR  2225
ENCODING  8741
SWIDTH  1000 0
DWIDTH  14 0
BBX  8 15 3 -2
BITMAP
0000000000300000
0000000020801060
0000000080206030
00000000A000A000
0000003060208000
0000008010802000
000000A000A00000
0000404040600000
0000A00080100000
00108000A0000000
0060306040000000
00A000A000000000
2080108000000000
8020603000000000
0000600000000000
ENDCHAR
STARTCHAR  2227
ENCODING  8743
SWIDTH  1000 0
DWIDTH  14 0
BBX  10 11 2 0
BITMAP
00000000200000000000
00000000806000000000
00000010E0E000000000
00000060A0C040000000
000000E02040C0000000
000040C00000E0300000
0000C040000060A00000
0020E000000000E01000
00806000000000808000
10E0100000000010E010
30600000000000006030
ENDCHAR
STARTCHAR  2228
ENCODING  8744
SWIDTH  1000 0
DWIDTH  14 0
BBX  10 11 2 0
BITMAP
30400000000000006030
10E0000000000010E010
00A06000000000608000
0030C000000000E02000
0000C030000040A00000
000040A00000C0300000
000000E02030C0000000
0000008080A060000000
00000010E0E000000000
00000000A06000000000
00000000201000000000
ENDCHAR
STARTCHAR  2229
ENCODING  8745
SWIDTH  1000 0
DWIDTH  14 0
BBX  9 11 2 0
BITMAP
000080E0F0E0800000
00C0A0300030A0C000
80A00000000000A080
E030000000000020E0
FF10000000000000F0
FF00000000000000FF
FF00000000000000FF
FF00000000000000FF
FF00000000000000FF
FF00000000000000FF
800000000000000080
ENDCHAR
STARTCHAR  222A
ENCODING  8746
SWIDTH  1000 0
DWIDTH  14 0
BBX  9 11 2 0
BITMAP
800000000000000080
FF00000000000000FF
FF00000000000000FF
FF00000000000000FF
FF00000000000000FF
FF00000000000000FF
FF00000000000000FF
E020000000000030E0
80A00000000000A080
00C0A0200020A0C010
000080E0F0E0801000
ENDCHAR
STARTCHAR  222B
ENCODING  8747
SWIDTH  1000 0
DWIDTH  14 0
BBX  8 11 3 0
BITMAP
0000000080FFC000
00000000F0304000
00000020F0000000
00000040E0000000
00000060A0000000
0000008080000000
000000A060000000
000000E040000000
000000F020000000
004030F000000000
00C0F08000000000
ENDCHAR
STARTCHAR  222E
ENCODING  8750
SWIDTH  1000 0
DWIDTH  14 0
BBX  6 11 4 0
BITMAP
00000080FF80
000000E02030
000010E00000
0020A0E02000
00C0A0C0C000
00E06080E000
00E0C080C000
0020E0C02000
0000C0100000
3020E0000000
80F080000000
ENDCHAR
STARTCHAR  2234
ENCODING  8756
SWIDTH  1000 0
DWIDTH  14 0
BBX  10 10 2 0
BITMAP
00000000C0E000000000
00000000E0E000000000
00000000001000000000
00000000000000000000
00000000000000000000
00000000000000000000
00000000000000000000
10E0E000000000C0F010
00E0C000000000A0E010
00000000000000000000
ENDCHAR
STARTCHAR  2235
ENCODING  8757
SWIDTH  1000 0
DWIDTH  14 0
BBX  10 10 2 0
BITMAP
00E0C000000000A0E010
10E0E000000000C0F020
00100000000000001000
00000000000000000000
00000000000000000000
00000000000000000000
00000000000000000000
00000000E0E000000000
00000000E0E000000000
00000000000000000000
ENDCHAR
STARTCHAR  2236
ENCODING  8758
SWIDTH  1000 0
DWIDTH  14 0
BBX  2 9 6 1
BITMAP
6030
FF60
0000
0000
0000
0000
0000
6030
FF60
ENDCHAR
STARTCHAR  2237
ENCODING  8759
SWIDTH  1000 0
DWIDTH  14 0
BBX  10 9 2 1
BITMAP
00E0C000000000C0E000
10E0E000000000E0E010
00100000000000001000
00000000000000000000
00000000000000000000
00000000000000000000
00100000000000001000
10E0E000000000E0E010
00E0C000000000C0E000
ENDCHAR
STARTCHAR  223D
ENCODING  8765
SWIDTH  1000 0
DWIDTH  14 0
BBX  12 3 1 4
BITMAP
60300000000080E0FFE06000
60F0601040E0C0401060E080
0040E0FFE060000000002030
ENDCHAR
STARTCHAR  2248
ENCODING  8776
SWIDTH  1000 0
DWIDTH  14 0
BBX  12 5 1 3
BITMAP
0030C0E0C040000000002030
60F0400040C0A0301040E080
80300000000060C0E0C04000
30A0E0F0E0A0602000208060
606010001060A0E0F0E08020
ENDCHAR
STARTCHAR  224C
ENCODING  8780
SWIDTH  1000 0
DWIDTH  14 0
BBX  11 6 1 3
BITMAP
008020000040A0E0C06000
0040C0E0E0A04000208040
0000000000000000000000
00E0E0E0E0E0E0E0E0E060
0000000000000000000000
00E0E0E0E0E0E0E0E0E060
ENDCHAR
STARTCHAR  2260
ENCODING  8800
SWIDTH  1000 0
DWIDTH  14 0
BBX  10 10 2 0
BITMAP
00000000000030200000
000000000000C0300000
000000000020E0000000
60E0E0E0E0F0E0E0E0E0
0000000000E010000000
0000000040C000000000
60E0E0E0F0E0E0E0E0E0
00000010E00000000000
00000060800000000000
00000080200000000000
ENDCHAR
STARTCHAR  2261
ENCODING  8801
SWIDTH  1000 0
DWIDTH  14 0
BBX  10 5 2 3
BITMAP
E0E0E0E0E0E0E0E0E060
00000000000000000000
E0E0E0E0E0E0E0E0E060
00000000000000000000
E0E0E0E0E0E0E0E0E060
ENDCHAR
STARTCHAR  2264
ENCODING  8804
SWIDTH  1000 0
DWIDTH  14 0
BBX  12 8 1 2
BITMAP
00000000000000002080C020
00000000004080E0C0803000
001040A0E0A0601000000000
0060C0F0A040000000000000
0000001040A0E0A060100000
000000000000004080E0C010
000000000000000000002010
20E0E0E0E0E0E0E0E0E0E020
ENDCHAR
STARTCHAR  2265
ENCODING  8805
SWIDTH  1000 0
DWIDTH  14 0
BBX  12 9 1 1
BITMAP
000000000000000000000000
30E080400000000000000000
001060A0E0A0401000000000
000000000040A0E0C0602000
00000000002060C0E0804000
00004080E0C0802000000000
30E0A0601000000000000000
100000000000000000000000
30E0E0E0E0E0E0E0E0E0E010
ENDCHAR
STARTCHAR  226E
ENCODING  8814
SWIDTH  1000 0
DWIDTH  14 0
BBX  12 10 1 0
BITMAP
000000000000000040100000
0000000000000000E0200000
0000000000000030F0A0E020
000000002080C0F0A0400000
004080E0C06020E010000000
002080C0E08060C000000000
000000001060E0E0A0601000
000000000000E01040A0E020
000000000040A00000000000
000000000030300000000000
ENDCHAR
STARTCHAR  226F
ENCODING  8815
SWIDTH  1000 0
DWIDTH  14 0
BBX  11 10 2 0
BITMAP
0000000000600000000000
1000000020E00000000000
A0C0803080800000000000
002060C0FFA04000000000
00000030C060A0E0A06010
000000808060C0E0804000
004080F0E0803000000000
C0C0A0C000000000000000
0000A06000000000000000
0000601000000000000000
ENDCHAR
STARTCHAR  2299
ENCODING  8857
SWIDTH  1000 0
DWIDTH  14 0
BBX  11 11 2 0
BITMAP
00001080C0E0C060000000
0040E08020002080E02000
20E020000000000040E000
A060000000000000008060
E000000060E060000020C0
E0000000F0FFE0000000E0
E0000000A0F060000020C0
A040000000000000008080
20E010000000000020E010
0040E06000001060E03000
000020A0E0E0E080100000
ENDCHAR
STARTCHAR  22A5
ENCODING  8869
SWIDTH  1000 0
DWIDTH  14 0
BBX  10 10 2 1
BITMAP
00000000C01000000000
00000010FF1000000000
00000010FF1000000000
00000010FF1000000000
00000010FF1000000000
00000010FF1000000000
00000010FF1000000000
00000010FF1000000000
00000010FF1000000000
FFFFFFFFFFFFFFFFFF00
ENDCHAR
STARTCHAR  2312
ENCODING  8978
SWIDTH  1000 0
DWIDTH  14 0
BBX  11 6 2 5
BITMAP
00001080C0E0C060000000
0040E08020002080E02000
20E020000000000040E000
A060000000000000008060
E0000000000000000020C0
8000000000000000000080
ENDCHAR
STARTCHAR  2460
ENCODING  9312
SWIDTH  1000 0
DWIDTH  15 0
BBX  14 15 0 -2
BITMAP
0000000040A0E0F0E0A020000000
000000A0F0A0403040A0FF600000
0000A0E030E0FFFF000040F06000
0040F030002040FF00000060F010
00C0A000000030FF00000000C080
10FF4000000030FF0000000060E0
20FF1000000030FF0000000040F0
30FF1000000030FF0000000040FF
10FF3000000030FF0000000060E0
00E08000000030FF00000000C0A0
0060F010000030FF00000030FF30
0000C0C0100020C0000020E08000
000010C0E06010002080F0A00000
0000000060E0FFFFFFE040000000
0000000000001020100000000000
ENDCHAR
STARTCHAR  2461
ENCODING  9313
SWIDTH  1000 0
DWIDTH  15 0
BBX  14 15 0 -2
BITMAP
0000000040A0E0F0E0A020000000
000000A0F0A0403040A0FF600000
0000A0E080E0FFFFF0A040F06000
0040F030F0A0302040E08060F010
00C0A030FF1000000060C000C080
10FF4020A00000000080A00060E0
20FF100000104080C0FF400040F0
30FF100080FFF0C08030000040FF
10FF3010FF4000000000000060E0
00E08030FF00000000000000C0A0
0060F040FFFFFFFFFFFFE030FF30
0000C0E030303030303040E08000
000010C0E06010002080F0A00000
0000000060E0FFFFFFE040000000
0000000000001020100000000000
ENDCHAR
STARTCHAR  2462
ENCODING  9314
SWIDTH  1000 0
DWIDTH  15 0
BBX  14 15 0 -2
BITMAP
0000000040A0E0F0E0A020000000
000000A0F0A0403040A0FF600000
0000A0E080E0FFFFFFC080F06000
0040F040F080302030A0C060F010
00C0A030FF0000000030E000C080
10FF4000100000000080C00060E0
20FF10000010FFFFFFF0200040F0
30FF1000000030303080A00040FF
10FF3020C00000000010E00060E0
00E08030FF0000000010F000C0A0
0060F020FF4000000060C030FF30
0000C0C080FFF0F0F0F060E08000
000010C0E08030204080F0A00000
0000000060E0FFFFFFE040000000
0000000000001020100000000000
ENDCHAR
STARTCHAR  2463
ENCODING  9315
SWIDTH  1000 0
DWIDTH  15 0
BBX  14 15 0 -2
BITMAP
0000000040A0E0F0E0A020000000
000000A0F0A0403040A0FF600000
0000A0E03000A0FFFF0040F06000
0040F0300020F060FF000060F010
00C0A00000A08030FF000000C080
10FF400030F01030FF00000060E0
20FF1000C0800030FF00000040F0
30FF1040F0100030FF00000040FF
10FF30C080000030FF00000060E0
00E080FFFFFFFFFFFFFFFF00C0A0
0060F04030303060FF303030FF30
0000C0C010000030F00020E08000
000010C0E06010002080F0A00000
0000000060E0FFFFFFE040000000
0000000000001020100000000000
ENDCHAR
STARTCHAR  2464
ENCODING  9316
SWIDTH  1000 0
DWIDTH  15 0
BBX  14 15 0 -2
BITMAP
0000000040A0E0F0E0A020000000
000000A0F0A0403040A0FF600000
0000A0E030000000000040F06000
0040F060FFFFFFFFFFFFC060F010
00C0A030FF30303030302000C080
10FF4030FFA0F0F0F0C0200060E0
20FF1030FFC0303030E0C00040F0
30FF1010801000000040F00040FF
10FF3010600000000030FF0060E0
00E08030F00000000040FF00C0A0
0060F020F060000000A0E040FF30
0000C0C060F0FFFFFFE060E08000
000010C0E06040304080F0A00000
0000000060E0FFFFFFE040000000
0000000000001020100000000000
ENDCHAR
STARTCHAR  2465
ENCODING  9317
SWIDTH  1000 0
DWIDTH  15 0
BBX  14 15 0 -2
BITMAP
0000000040A0E0F0E0A020000000
000000A0F0A0403040A0FF600000
0000A0E060E0FFFFFFE0A0F06000
0040F030E08030203080E060F010
00C0A020FF00000000208000C080
10FF4030FFA0E0F0F0C0200060E0
20FF1030FFA0403030C0C00040F0
30FF1030FF0000000040F00040FF
10FF3030FF0000000030FF0060E0
00E08020FF1000000040F000C0A0
0060F020E080000010A0C030FF30
0000C0C060F0FFFFFFE040E08000
000010C0E06040304080F0A00000
0000000060E0FFFFFFE040000000
0000000000001020100000000000
ENDCHAR
STARTCHAR  2466
ENCODING  9318
SWIDTH  1000 0
DWIDTH  15 0
BBX  14 15 0 -2
BITMAP
0000000040A0E0F0E0A020000000
000000A0F0A0403040A0FF600000
0000A0E030000000000040F06000
0040F030FFFFFFFFFFFFFF60F010
00C0A0003030303030A0E000C080
10FF40000000000010F0600060E0
20FF10000000000080E0000040F0
30FF100000000000E080000040FF
10FF300000000060F010000060E0
00E08000000000E080000000C0A0
0060F010000040FF20000040FF30
0000C0C01000C0A0000020E08000
000010C0E06010002080F0A00000
0000000060E0FFFFFFE040000000
0000000000001020100000000000
ENDCHAR
STARTCHAR  2467
ENCODING  9319
SWIDTH  1000 0
DWIDTH  15 0
BBX  14 15 0 -2
BITMAP
0000000040A0E0F0E0A020000000
000000A0F0A0403040A0FF600000
0000A0E080E0FFFFF0C060F06000
0040F030E040202040F0C060F010
00C0A0208000000000A0F000C080
10FF4000C020000020E0C00060E0
20FF100040FFFFFFFFF0300040F0
30FF1000C040303040E0A00040FF
10FF3020800000000080F00060E0
00E08020800000000080F000C0A0
0060F020E020000020E0C030FF30
0000C0C060F0FFFFFFE040E08000
000010C0E06040303080F0A00000
0000000060E0FFFFFFE040000000
0000000000001020100000000000
ENDCHAR
STARTCHAR  2468
ENCODING  9320
SWIDTH  1000 0
DWIDTH  15 0
BBX  14 15 0 -2
BITMAP
0000000040A0E0F0E0A020000000
000000A0F0A0403040A0FF600000
0000A0E060E0FFFFFFC060F06000
0040F030F0A0302030C0C060F010
00C0A030FF0000000040F000C080
10FF4030FF0000000030FF0060E0
20FF1010FF6000001080FF0040F0
30FF100080FFFFFFFFE0FF0040FF
10FF3010601020201030FF0060E0
00E08010FF3000000080E000C0A0
0060F010A0FFFFFFFFF04030FF30
0000C0C010203030200020E08000
000010C0E06010002080F0A00000
0000000060E0FFFFFFE040000000
0000000000001020100000000000
ENDCHAR
STARTCHAR  2469
ENCODING  9321
SWIDTH  1000 0
DWIDTH  15 0
BBX  14 15 0 -2
BITMAP
0000000040A0E0F0E0A020000000
00000080A060303060C0FF600000
0000A0F0FF0080F0FFF0A0FF6000
0040C040FF20FF602080E060F010
00C06030FF30FF000030FF00E080
10FF2030FF30FF000030FF0060E0
20FF0030FF30FF000030FF0040F0
30FF1030FF30FF000030FF0040FF
10FF3030FF30FF000030FF0060E0
00E08030FF30FF000030FF00C0A0
0060F040FF20FF300060E030FF30
0000C0FFFF00A0FFFFFF80E08000
000010E0FF6010204080F0A00000
0000000060E0FFFFFFE040000000
0000000000001020100000000000
ENDCHAR
STARTCHAR  2474
ENCODING  9332
SWIDTH  1000 0
DWIDTH  15 0
BBX  14 14 0 -1
BITMAP
000040A000000000000010E01000
0000E03000000000000000808000
0040E00000E0FFFF00000020F010
00A08000002040FF00000000C060
00F04000000030FF0000000080A0
10FF2000000030FF0000000040E0
30FF0000000030FF0000000030FF
30FF0000000030FF0000000030FF
20FF1000000030FF0000000040F0
00F04000000030FF0000000080C0
00A08000000030FF00000000A080
0060E000000030FF00000010F020
0000E0300000001000000060A000
000040C000000000000010E02000
ENDCHAR
STARTCHAR  2475
ENCODING  9333
SWIDTH  1000 0
DWIDTH  15 0
BBX  14 14 0 -1
BITMAP
000040C000000000000010E01000
0000E04000000000000000808000
0040E00040E0FFFFF0C02010F010
00A08000F0A0302030C0A000C060
00F04030FF1000000040E00080A0
10FF2020A00000000060E00040E0
30FF000000003060A0F0800030FF
30FF000080F0F0C08040000030FF
20FF1010FF4000000000000040F0
00F04030FF0000000000000060C0
00A08030FFF0F0F0F0F0F010A080
0040E0002020202020202010F030
0000E0400000000000000060A000
000030C000000000000000E02000
ENDCHAR
STARTCHAR  2476
ENCODING  9334
SWIDTH  1000 0
DWIDTH  15 0
BBX  14 14 0 -1
BITMAP
000030E000000000000000E01000
0000C06000000000000000808000
0040E00060E0FFFFFFE04010F010
00A08010FF80302030A0E000C060
00E04030FF0000000020FF1080A0
10FF2000000000000080E00040E0
30FF00000010FFFFFFFF400030FF
30FF0000000030303080E00030FF
20FF1020C00000000000FF1040F0
00F04030FF0000000000FF2060C0
00A08010FF4000000060F000A080
0040E00080FFF0F0F0F06000F030
0000C0600010202020000060A000
000030E000000000000000E02000
ENDCHAR
STARTCHAR  2477
ENCODING  9335
SWIDTH  1000 0
DWIDTH  15 0
BBX  14 14 0 -1
BITMAP
0000408000000000000010C01000
0000E03000000000000000A08000
0040E0000000A0FFFF000020F010
00A080000020F060FF000000C060
00F0400000A08030FF00000080C0
10FF100030F01030FF00000040E0
30FF0000C0800030FF00000030FF
30FF0040F0100030FF00000030FF
10FF20C080000030FF00000040E0
00E040FFFFFFFFFFFFFFFF0080C0
00A0803030303060FF303000C060
0030E00000000030F0000020F010
0000A06000000000000000808000
0000108000000000000010A00000
ENDCHAR
STARTCHAR  2478
ENCODING  9336
SWIDTH  1000 0
DWIDTH  15 0
BBX  14 14 0 -1
BITMAP
000040C000000000000010E01000
0000E04000000000000000808000
0040E0000000000000000020F010
00A08030FFFFFFFFFFFFC000C060
00F04030FF3030303030200080A0
10FF2030FFA0F0F0F0C0200040E0
30FF0030FFC0303040E0C00030FF
30FF0020A02000000060F00030FF
20FF1000000000000030FF0040F0
00F04030F00000000030FF0080C0
00A08010FF40000000A0E000A080
0040E00060F0FFFFFFE03010F020
0000E0400000203020000060A000
000030C000000000000010E02000
ENDCHAR
STARTCHAR  2479
ENCODING  9337
SWIDTH  1000 0
DWIDTH  15 0
BBX  14 14 0 -1
BITMAP
000030E000000000000010E01000
0000E06000000000000000808000
0040E00040E0FFFFFFE04020F010
00A08000E080302030A0C000C060
00E04020FF0000000030F00080A0
10FF2030FFA0E0F0F0C0200040E0
30FF0030FFA0403030C0C00030FF
30FF0030FF0000000040F00030FF
20FF1030FF0000000030FF0040F0
00F04020FF1000000040F00080C0
00A08000E080000010A0C000A080
0040E00040F0FFFFFFE03010F020
0000C0400000203020000060A000
000030E000000000000010E02000
ENDCHAR
STARTCHAR  247A
ENCODING  9338
SWIDTH  1000 0
DWIDTH  15 0
BBX  14 14 0 -1
BITMAP
000040C000000000000010E01000
0000E04000000000000000808000
0040E0000000000000000010F010
00A08000FFFFFFFFFFFFFF00C060
00E040003030303030A0E00080A0
10FF20000000000010F0600040E0
30FF00000000000060F0100030FF
30FF000000000000E080000030FF
20FF100000000040FF20000040F0
00F04000000000C0A000000060C0
00A08000000030FF30000000A080
0040E0000000A0C000000000F030
0000C0400000402000000060A000
000030E000000000000000E02000
ENDCHAR
STARTCHAR  247B
ENCODING  9339
SWIDTH  1000 0
DWIDTH  15 0
BBX  14 14 0 -1
BITMAP
000040C000000000000010E01000
0000E04000000000000000808000
0040E00060E0FFFFF0E04010F010
00A08020E040202040F0F000C060
00F040408000000000A0FF2080A0
10FF2010C020000020E0E00040E0
30FF000060FFFFFFFFFF400030FF
30FF0010E040303040E0E00030FF
20FF1040800000000080FF2040F0
00F04040800000000080FF2060C0
00A08020E020000020E0E000A080
0040E00080FFFFFFFFE04000F030
0000E0400010202010000060A000
000030C000000000000000E02000
ENDCHAR
STARTCHAR  247C
ENCODING  9340
SWIDTH  1000 0
DWIDTH  15 0
BBX  14 14 0 -1
BITMAP
000030C000000000000010E01000
0000E04000000000000000808000
0040E00040E0FFFFFFC02020F010
00A08000F0A0302030C0C000C060
00E04030FF0000000040F00080A0
10FF2030FF0000000030FF0040E0
30FF0010FF6000001080FF0030FF
30FF000080FFFFFFFFE0FF0030FF
20FF1000001020201030FF0040F0
00F04010FF2000000080E00080C0
00A08000A0FFFFFFFFF04000A080
0040E0000020303020000010F020
0000C0400000000000000080A000
000030E000000000000010E02000
ENDCHAR
STARTCHAR  247D
ENCODING  9341
SWIDTH  1000 0
DWIDTH  15 0
BBX  14 14 0 -1
BITMAP
000040C000000000000060A00000
0000E04000000000000000E04000
0040E0E0FF0080F0FFF04040E000
00A08040FF20FF602080E000E040
00F04030FF30FF000030FF0080A0
10FF2030FF30FF000030FF0040E0
30FF0030FF30FF000030FF0030FF
30FF0030FF30FF000030FF0030FF
20FF1030FF30FF000030FF0040E0
00F04030FF30FF000030FF0080C0
00A08030FF20FF300060F000C060
0040E030FF00C0FFFFFF6030F010
0000E04030000020301000A08000
000030C000000000000060C00000
ENDCHAR
STARTCHAR  247E
ENCODING  9342
SWIDTH  1000 0
DWIDTH  15 0
BBX  14 14 0 -1
BITMAP
000040C000000000000030E00000
0000E04000000000000000A08000
0040E040FFFF0020FFFF0030F010
00A0801040FF000040FF0000C060
00F0400030FF000030FF000080A0
10FF200030FF000030FF000040E0
30FF000030FF000030FF000030FF
30FF000030FF000030FF000030FF
20FF100030FF000030FF000040F0
00F0400030FF000030FF000080C0
00A0800030FF000030FF0000C080
0040E00030FF000030FF0010F020
0000E0400000000000000080A000
000030E000000000000020E01000
ENDCHAR
STARTCHAR  247F
ENCODING  9343
SWIDTH  1000 0
DWIDTH  15 0
BBX  14 14 0 -1
BITMAP
000030A000000000000010C01000
0000C04000000000000000808000
0040E0E0FF0060E0FFF0A020F010
00A08040FF00F0802040F040C060
00F04030FF30FF000000C08080A0
10FF1030FF20A0000000E06040E0
30FF0030FF00001060C0F02030FF
30FF0030FF0060F0E080200030FF
10FF2030FF20FF600000000040E0
00E04030FF30FF000000000080C0
00A08030FF30FFF0F0F0F060C060
0030F0102000202020202030F010
0000A06000000000000000808000
0000108000000000000010800000
ENDCHAR
STARTCHAR  2480
ENCODING  9344
SWIDTH  1000 0
DWIDTH  15 0
BBX  14 14 0 -1
BITMAP
000040C000000000000010E01000
0000E04000000000000000808000
0040E0E0FF0060E0FFF0A020F010
00A08040FF10FF803040F060C060
00F04030FF30FF000000C08080A0
10FF2030FF0020000010F06040E0
30FF0030FF000080FFFFE00030FF
30FF0030FF0000103040F04030FF
20FF1030FF20C0000000A08040F0
00F04030FF30FF000000A08060C0
00A08030FF10FF400010E060A080
0040E030FF00A0FFFFFFC010F020
0000E0403000001020200060A000
000030C000000000000010E02000
ENDCHAR
STARTCHAR  2481
ENCODING  9345
SWIDTH  1000 0
DWIDTH  15 0
BBX  14 14 0 -1
BITMAP
000030A000000000000080400000
0000C04000000000000010E01000
0040E0E0FF000040FFFF0060A000
00A08040FF0000C0A0FF0000E030
00F04030FF0020F030FF000080A0
10FF1030FF00808030FF000040E0
30FF0030FF10F02030FF000030FF
30FF0030FF60C00030FF000040FF
10FF2030FFE0400030FF000060E0
00E04030FFFFFFFFFFFFFF00A0A0
00A08030FF30303060FF3000E040
0030F030E000000030E00060C000
0000A06000000000000020E01000
0000108000000000000060300000
ENDCHAR
STARTCHAR  2482
ENCODING  9346
SWIDTH  1000 0
DWIDTH  15 0
BBX  14 14 0 -1
BITMAP
000030A000000000000060800000
0000C04000000000000000E04000
0040E0C0FF30FFFFFFFFC040E000
00A08030FF30FF3030302000E040
00F04030FF30FF000000000080A0
10FF1030FF30FFC0FFF0400040E0
30FF0030FF30FFA020A0E00030FF
30FF0030FF1080100040FF0040FF
10FF2030FF1060000030FF0060E0
00E04030FF30FF000030FF0080A0
00A08030FF10FF400080E000E060
0030F030FF00A0FFFFFF6040E000
0000A08030000020201010E04000
0000108000000000000040600000
ENDCHAR
STARTCHAR  2483
ENCODING  9347
SWIDTH  1000 0
DWIDTH  15 0
BBX  14 14 0 -1
BITMAP
000040C000000000000080A00000
0000E04000000000000000E04000
0040E0E0FF0060F0FFE04040E000
00A08040FF00F0602080E000E040
00F04030FF30FF000040F00080A0
20FF1030FF30FFC0F0E0400040E0
30FF0030FF30FF8030A0C00030FF
30FF0030FF30FF000040F00040FF
10FF2030FF30FF000030FF0060E0
00E04030FF20FF100030FF00A0A0
00A0A030FF00F0600080E000E040
0030F030FF0080FFFFFF4060E000
0000A08030000020201010E03000
0000108000000000000060600000
ENDCHAR
STARTCHAR  2484
ENCODING  9348
SWIDTH  1000 0
DWIDTH  15 0
BBX  14 15 0 -2
BITMAP
0000103000000000000030200000
0000806000000000000040E00000
0010F01000000000000000A08000
0080A0E0F0F0F0F0F0F0F020F010
00C06030FF3030303080E000C060
00FF3030FF00000000E0800060C0
20FF1030FF00000030FF200040E0
30FF0030FF00000080E0000030FF
30FF1030FF000000E060000040F0
10FF2030FF000040FF10000060E0
00E04030FF0000A0C0000000A0A0
00A08030FF0010F060000000E040
0040E020C00030C010000060E000
0000C04000000000000010E04000
0000206000000000000060600000
ENDCHAR
STARTCHAR  2485
ENCODING  9349
SWIDTH  1000 0
DWIDTH  15 0
BBX  14 14 0 -1
BITMAP
000040C000000000000010E01000
0000E04000000000000000808000
0040E0E0FF0060E0FFF0A010F010
00A08040FF00E0402080FF40C060
00F04030FF10A0000010FF8080A0
10FF2030FF00E0100060FF4040E0
30FF0030FF0060FFFFFFE00030FF
30FF0030FF00C0403080FF6030FF
20FF1030FF10A0000000FF8040F0
00F04030FF10A0000000FFA060C0
00A08030FF00E0100060FF60A080
0040E030FF0060F0FFFFC010F030
0000E0403000000020200060A000
000030C000000000000000E02000
ENDCHAR
STARTCHAR  2486
ENCODING  9350
SWIDTH  1000 0
DWIDTH  15 0
BBX  14 14 0 -1
BITMAP
000040C000000000000060A00000
0000E04000000000000000E04000
0040E0E0FF0060F0FFE04040E000
00A08040FF10F08020A0C000E040
00F04030FF30FF000040F00080A0
10FF2030FF30FF000030FF0040E0
30FF0030FF10FF400060FF0030FF
30FF0030FF00A0FFF0E0FF0030FF
20FF1030FF0020101030FF0040E0
00F04030FF20FF100030FF0080C0
00A08030FF10FF400080E000C060
0040E030FF00A0FFFFFF6030F010
0000E04030000020201000A08000
000030C000000000000060C00000
ENDCHAR
STARTCHAR  2487
ENCODING  9351
SWIDTH  1000 0
DWIDTH  15 0
BBX  14 14 0 -1
BITMAP
0000A06000000000000000E02000
0010F0100000000000000080A000
0060C080F0F06000A0FFFF80F010
00C080FF6080E020FF4080E0C060
00F060FF1030FF30FF0030FF80C0
10FF40FF0030FF30FF0030FF40E0
30FF000000A0E030FF0030FF30FF
30FF0020C0FF6030FF0030FF30FF
20FF20E0E0400030FF0030FF40F0
00F060FF20000030FF0030FF60C0
00C0A0FF00000020FF2060F0A080
0080E0FFFFFFFF00E0FFFF80F030
0010F0403030300000202060C000
0000808000000000000000E03000
ENDCHAR
STARTCHAR  2488
ENCODING  9352
SWIDTH  1000 0
DWIDTH  15 0
BBX  8 11 4 0
BITMAP
60FFFFFF00000000
103060FF00000000
000030FF00000000
000030FF00000000
000030FF00000000
000030FF00000000
000030FF00000000
000030FF00000000
000030FF00000000
000030FF00000020
000030FF000030FF
ENDCHAR
STARTCHAR  2489
ENCODING  9353
SWIDTH  1000 0
DWIDTH  14 0
BBX  11 11 2 0
BITMAP
0030C0F0FFF0F0C0200000
00E0C040303040C0C00000
20FF200000000030F00000
30FF000000000030FF0000
30E00000000000A0C00000
0000000040A0F0C0200000
002080F0C0601000000000
10F0A02000000000000000
30FF000000000000000000
30FF202020202020200020
30FFFFFFFFFFFFFFF030FF
ENDCHAR
STARTCHAR  248A
ENCODING  9354
SWIDTH  1000 0
DWIDTH  14 0
BBX  11 11 2 0
BITMAP
0020C0F0FFF0F0C0200000
00E0C030303040E0C00000
20FF200000000040FF1000
20E0000000000030FF1000
00000000000000A0E00000
000000E0FFFFFFF0300000
00000020303030A0C00000
20A0000000000030FF1000
30FF000000000020FF1000
10F0600000000080E00020
0060E0F0F0F0F0E04030FF
ENDCHAR
STARTCHAR  248B
ENCODING  9355
SWIDTH  1000 0
DWIDTH  14 0
BBX  11 11 2 0
BITMAP
0000000010E0FFFF000000
00000000A0E060FF000000
00000040F02030FF000000
000010F0800030FF000000
0000A0C0000030FF000000
0060F020000030FF000000
10F06000000030FF000000
A0C00000000030FF000000
FFFFFFFFFFFFFFFFFF0000
30303030303060FF300020
00000000000030FF0030FF
ENDCHAR
STARTCHAR  248C
ENCODING  9356
SWIDTH  1000 0
DWIDTH  14 0
BBX  11 11 2 0
BITMAP
30FFFFFFFFFFFFFFC00000
30FF303030303030200000
30FF000000000000000000
30FF000000000000000000
30FF80E0F0F0F0C0200000
30FFE060303040E0C00000
1040100000000040F00000
1060000000000030FF0000
30FF000000000040F00000
10F08030202040E0C00020
0040E0FFFFFFF0C02030FF
ENDCHAR
STARTCHAR  248D
ENCODING  9357
SWIDTH  1000 0
DWIDTH  14 0
BBX  11 11 2 0
BITMAP
0020C0F0FFF0F0C0200000
00E0C040303030C0E00000
20FF200000000040FF0000
30FF000000000010600000
30FF80E0F0FFF0C0100000
30FFC040303040E0A00000
30FF000000000040F00000
30FF000000000030FF0000
20FF100000000040FF0000
00E0A010101030C0E00020
0020A0F0FFFFF0C03030FF
ENDCHAR
STARTCHAR  248E
ENCODING  9358
SWIDTH  1000 0
DWIDTH  14 0
BBX  9 11 3 0
BITMAP
FFFFFFFFFFFFFFFFFF
30303030303040FFE0
000000000000A0FF60
000000000010F0E000
000000000080FF4000
0000000010F0C00000
0000000060FF400000
00000000E0C0000000
00000060FF30000000
000000E0A000000020
000040FF20000030FF
ENDCHAR
STARTCHAR  248F
ENCODING  9359
SWIDTH  1000 0
DWIDTH  14 0
BBX  11 11 2 0
BITMAP
0020C0F0FFFFF0C0200000
00E0C040303040E0C00000
20FF100000000040FF0000
30FF100000000030FF0000
00E08000000010C0C00000
0030F0FFFFFFFFE0100000
00E0C030303040C0A00000
30FF100000000030FF0000
20FF100000000030FF1000
00E0A030202030C0E00020
0030C0F0FFFFF0C02030FF
ENDCHAR
STARTCHAR  2490
ENCODING  9360
SWIDTH  1000 0
DWIDTH  14 0
BBX  11 11 2 0
BITMAP
0020C0F0FFFFF0A0100000
00E0A030303060F0A00000
20FF100000000060F00000
30F0000000000030FF0000
20FF000000000030FF0000
00E08010000030A0FF0000
0030E0FFF0FFFFC0FF0000
0010001020201030FF0000
30FF000000000040F00000
10F0A030202040E0A00020
0040E0FFFFFFF0A01030FF
ENDCHAR
STARTCHAR  2491
ENCODING  9361
SWIDTH  1000 0
DWIDTH  14 0
BBX  13 11 0 0
BITMAP
A0FFFF000040E0FFF0C0200000
2060FF0000E0803030C0C00000
0030FF0020FF10000040F00000
0030FF0030FF00000030FF0000
0030FF0030FF00000030FF0000
0030FF0030FF00000030FF0000
0030FF0030FF00000030FF0000
0030FF0030FF00000030FF0000
0030FF0020FF10000040F00000
0030FF0000E0A03030C0C00020
0030FF000040E0FFFFE03030FF
ENDCHAR
STARTCHAR  2492
ENCODING  9362
SWIDTH  1000 0
DWIDTH  14 0
BBX  11 11 2 0
BITMAP
C0FFFF000080FFFF000000
2060FF00001060FF000000
0030FF00000030FF000000
0030FF00000030FF000000
0030FF00000030FF000000
0030FF00000030FF000000
0030FF00000030FF000000
0030FF00000030FF000000
0030FF00000030FF000000
0030FF00000030FF000020
0030FF00000030FF0030FF
ENDCHAR
STARTCHAR  2493
ENCODING  9363
SWIDTH  1000 0
DWIDTH  14 0
BBX  13 11 0 0
BITMAP
A0FFFF000040E0F0F0E0600000
2060FF0000E0A0303060F01000
0030FF0020FF20000000E03000
0030FF0030FF00000000E03000
0030FF00108000000030F01000
0030FF0000000030A0F0600000
0030FF000030C0F08010000000
0030FF0010F080100000000000
0030FF0030FF00000000000000
0030FF0030FF20202020201020
0030FF0030FFFFFFFFFFFF60FF
ENDCHAR
STARTCHAR  2494
ENCODING  9364
SWIDTH  1000 0
DWIDTH  14 0
BBX  13 11 0 0
BITMAP
A0FFFF000040E0F0F0E0600000
2060FF0000F0A0303080F01000
0030FF0020FF20000000F04000
0030FF0020E000000000E06000
0030FF00000000000030FF3000
0030FF00000060FFFFFFA00000
0030FF00000010303040E01000
0030FF0020A000000000A04000
0030FF0030FF10000000A04000
0030FF0010F080302040F02020
0030FF000060F0FFFFF08030FF
ENDCHAR
STARTCHAR  2495
ENCODING  9365
SWIDTH  1000 0
DWIDTH  14 0
BBX  13 11 0 0
BITMAP
A0FFFF0000000060FFFF000000
2060FF00000000E080FF000000
0030FF00000060C030FF000000
0030FF000000E04030FF000000
0030FF000060C00030FF000000
0030FF0000E0400030FF000000
0030FF0040C0000030FF000000
0030FF00C040000030FF000000
0030FF00FFFFFFFFFFFFFFFF00
0030FF003030303060FF303020
0030FF000000000030FF0000FF
ENDCHAR
STARTCHAR  2496
ENCODING  9366
SWIDTH  1000 0
DWIDTH  14 0
BBX  13 11 0 0
BITMAP
A0FFFF0030FFFFFFFFFFE00000
2060FF0030FF30303030200000
0030FF0030FF00000000000000
0030FF0030FF00000000000000
0030FF0030FFA0F0F0E0300000
0030FF0030FFA03030C0C00000
0030FF00104000000040F00000
0030FF00106000000030FF0000
0030FF0030FF00000040FF0000
0030FF0010F0802030A0E00020
0030FF000060E0FFFFE04030FF
ENDCHAR
STARTCHAR  2497
ENCODING  9367
SWIDTH  1000 0
DWIDTH  14 0
BBX  13 12 0 0
BITMAP
A0FFFF000030E0F0F0E0300000
2060FF0000E0C03030C0C00000
0030FF0020FF30000040F00000
0030FF0030FF10000030FF0000
0030FF0030FF00000000100000
0030FF0030FFA0F0F0E0400000
0030FF0030FFA03030C0E00000
0030FF0030FF00000040FF0000
0030FF0030FF00000030FF0000
0030FF0020FF10000040FF0000
0030FF0000E0A03030A0E00020
0030FF000040E0FFFFE04030FF
ENDCHAR
STARTCHAR  2498
ENCODING  9368
SWIDTH  1000 0
DWIDTH  14 0
BBX  12 11 1 0
BITMAP
A0FFFF00FFFFFFFFFFFFFF00
2060FF00303030303030E000
0030FF000000000000608000
0030FF000000000000C03000
0030FF000000000030E00000
0030FF0000000000A0800000
0030FF0000000010F0200000
0030FF0000000080C0000000
0030FF00000000E060000000
0030FF00000040F010000020
0030FF000000C0A0000030FF
ENDCHAR
STARTCHAR  2499
ENCODING  9369
SWIDTH  1000 0
DWIDTH  14 0
BBX  13 11 0 0
BITMAP
A0FFFF000040E0F0F0E0300000
2060FF0000F0803030C0C00000
0030FF0020FF10000040F00000
0030FF0030FF10000040F00000
0030FF0000E0800000A0C00000
0030FF000060FFFFFFF0300000
0030FF0010F0803030A0C00000
0030FF0030FF10000040FF0000
0030FF0020FF10000040FF0000
0030FF0000F0802030C0C00020
0030FF000060E0FFFFE03030FF
ENDCHAR
STARTCHAR  249A
ENCODING  9370
SWIDTH  1000 0
DWIDTH  14 0
BBX  13 11 0 0
BITMAP
A0FFFF000040E0F0F0C0200000
2060FF0000F0803030C0C00000
0030FF0030FF10000040F00000
0030FF0030FF00000030FF0000
0030FF0030FF00000030FF0000
0030FF0010FF600010A0FF0000
0030FF000080FFFFFFE0FF0000
0030FF00001010302030FF0000
0030FF0030FF00000040F00000
0030FF0010FF802030C0C00020
0030FF000080F0FFFFC02030FF
ENDCHAR
STARTCHAR  249B
ENCODING  9371
SWIDTH  1000 0
DWIDTH  14 0
BBX  13 11 0 0
BITMAP
0060F0FFF0600060F0FFE03000
10F08020A0E000F08030A0C000
30FF000020FF30FF100040F000
30FF000020FF40FF000030FF00
0000000060E030FF000030FF00
000010A0F04030FF000030FF00
0040E0C0200030FF000030FF00
10F08000000030FF000030FF00
30FF0000000020FF100040F000
30FF2020202000F08020A0C020
30FFFFFFFFFF1060F0FFF040FF
ENDCHAR
STARTCHAR  2500
ENCODING  9472
SWIDTH  1000 0
DWIDTH  14 0
BBX  16 1 -1 5
BITMAP
20C0C0C0C0C0C0C0C0C0C0C0C0C0C020
ENDCHAR
STARTCHAR  2501
ENCODING  9473
SWIDTH  1000 0
DWIDTH  14 0
BBX  16 2 -1 4
BITMAP
20FFFFFFFFFFFFFFFFFFFFFFFFFFFF20
00202020202020202020202020202000
ENDCHAR
STARTCHAR  2502
ENCODING  9474
SWIDTH  1000 0
DWIDTH  14 0
BBX  1 15 6 -2
BITMAP
30
C0
C0
C0
C0
C0
C0
C0
C0
C0
C0
C0
C0
C0
C0
ENDCHAR
STARTCHAR  2503
ENCODING  9475
SWIDTH  1000 0
DWIDTH  14 0
BBX  2 15 6 -2
BITMAP
4010
FF20
FF20
FF20
FF20
FF20
FF20
FF20
FF20
FF20
FF20
FF20
FF20
FF20
FF20
ENDCHAR
STARTCHAR  2504
ENCODING  9476
SWIDTH  1000 0
DWIDTH  14 0
BBX  12 1 1 5
BITMAP
C0C0A000A0C0C00080C0C020
ENDCHAR
STARTCHAR  2505
ENCODING  9477
SWIDTH  1000 0
DWIDTH  14 0
BBX  13 2 1 4
BITMAP
FFFFE00000FFFFE00000FFFFE0
20202000002020200000202020
ENDCHAR
STARTCHAR  2506
ENCODING  9478
SWIDTH  1000 0
DWIDTH  14 0
BBX  1 13 7 -1
BITMAP
A0
C0
C0
00
00
A0
C0
C0
00
00
C0
C0
A0
ENDCHAR
STARTCHAR  2507
ENCODING  9479
SWIDTH  1000 0
DWIDTH  14 0
BBX  2 13 6 -1
BITMAP
E020
FF20
FF20
0000
0000
E020
FF20
FF20
0000
0000
FF20
FF20
E020
ENDCHAR
STARTCHAR  2508
ENCODING  9480
SWIDTH  1000 0
DWIDTH  14 0
BBX  14 1 0 5
BITMAP
20C0C000C0C02020C0C000C0C020
ENDCHAR
STARTCHAR  2509
ENCODING  9481
SWIDTH  1000 0
DWIDTH  14 0
BBX  14 2 0 4
BITMAP
30FFFF00FFFF3030FFFF00FFFF30
0020200020200000202000202000
ENDCHAR
STARTCHAR  250A
ENCODING  9482
SWIDTH  1000 0
DWIDTH  14 0
BBX  1 13 7 -1
BITMAP
C0
C0
20
20
C0
C0
00
C0
C0
20
20
C0
C0
ENDCHAR
STARTCHAR  250B
ENCODING  9483
SWIDTH  1000 0
DWIDTH  14 0
BBX  2 13 6 -1
BITMAP
FF20
FF20
3000
3000
FF20
FF20
0000
FF20
FF20
3000
3000
FF20
FF20
ENDCHAR
STARTCHAR  250C
ENCODING  9484
SWIDTH  1000 0
DWIDTH  14 0
BBX  9 8 6 -2
BITMAP
C0C0C0C0C0C0C0C020
C00000000000000000
C00000000000000000
C00000000000000000
C00000000000000000
C00000000000000000
C00000000000000000
A00000000000000000
ENDCHAR
STARTCHAR  250D
ENCODING  9485
SWIDTH  1000 0
DWIDTH  14 0
BBX  9 8 6 -2
BITMAP
C0FFFFFFFFFFFFFF20
C02020202020202000
C00000000000000000
C00000000000000000
C00000000000000000
C00000000000000000
C00000000000000000
800000000000000000
ENDCHAR
STARTCHAR  250E
ENCODING  9486
SWIDTH  1000 0
DWIDTH  14 0
BBX  8 8 6 -2
BITMAP
FFE0C0C0C0C0C080
FF20000000000000
FF20000000000000
FF20000000000000
FF20000000000000
FF20000000000000
FF20000000000000
E020000000000000
ENDCHAR
STARTCHAR  250F
ENCODING  9487
SWIDTH  1000 0
DWIDTH  14 0
BBX  8 8 6 -2
BITMAP
FFFFFFFFFFFFFFC0
FF40202020202010
FF20000000000000
FF20000000000000
FF20000000000000
FF20000000000000
FF20000000000000
C010000000000000
ENDCHAR
STARTCHAR  2510
ENCODING  9488
SWIDTH  1000 0
DWIDTH  14 0
BBX  8 8 -1 -2
BITMAP
40C0C0C0C0C0C0F0
00000000000000C0
00000000000000C0
00000000000000C0
00000000000000C0
00000000000000C0
00000000000000C0
00000000000000A0
ENDCHAR
STARTCHAR  2511
ENCODING  9489
SWIDTH  1000 0
DWIDTH  14 0
BBX  8 8 -1 -2
BITMAP
60FFFFFFFFFFFFFF
10202020202020E0
00000000000000C0
00000000000000C0
00000000000000C0
00000000000000C0
00000000000000C0
0000000000000080
ENDCHAR
STARTCHAR  2512
ENCODING  9490
SWIDTH  1000 0
DWIDTH  14 0
BBX  9 8 -1 -2
BITMAP
60C0C0C0C0C0C0FF20
00000000000000FF20
00000000000000FF20
00000000000000FF20
00000000000000FF20
00000000000000FF20
00000000000000FF20
00000000000000E020
ENDCHAR
STARTCHAR  2513
ENCODING  9491
SWIDTH  1000 0
DWIDTH  14 0
BBX  9 8 -1 -2
BITMAP
A0FFFFFFFFFFFFFF20
10202020202020FF20
00000000000000FF20
00000000000000FF20
00000000000000FF20
00000000000000FF20
00000000000000FF20
00000000000000C010
ENDCHAR
STARTCHAR  2514
ENCODING  9492
SWIDTH  1000 0
DWIDTH  14 0
BBX  9 8 6 5
BITMAP
600000000000000000
C00000000000000000
C00000000000000000
C00000000000000000
C00000000000000000
C00000000000000000
C00000000000000000
A0C0C0C0C0C0C0C020
ENDCHAR
STARTCHAR  2515
ENCODING  9493
SWIDTH  1000 0
DWIDTH  14 0
BBX  9 9 6 4
BITMAP
600000000000000000
C00000000000000000
C00000000000000000
C00000000000000000
C00000000000000000
C00000000000000000
C00000000000000000
C0FFFFFFFFFFFFFF20
202020202020202000
ENDCHAR
STARTCHAR  2516
ENCODING  9494
SWIDTH  1000 0
DWIDTH  14 0
BBX  8 8 6 5
BITMAP
A010000000000000
FF20000000000000
FF20000000000000
FF20000000000000
FF20000000000000
FF20000000000000
FF20000000000000
C0C0C0C0C0C0C080
ENDCHAR
STARTCHAR  2517
ENCODING  9495
SWIDTH  1000 0
DWIDTH  14 0
BBX  8 9 6 4
BITMAP
A010000000000000
FF20000000000000
FF20000000000000
FF20000000000000
FF20000000000000
FF20000000000000
FF20000000000000
FFFFFFFFFFFFFFC0
2020202020202010
ENDCHAR
STARTCHAR  2518
ENCODING  9496
SWIDTH  1000 0
DWIDTH  14 0
BBX  8 8 -1 5
BITMAP
0000000000000060
00000000000000C0
00000000000000C0
00000000000000C0
00000000000000C0
00000000000000C0
00000000000000C0
40C0C0C0C0C0C0C0
ENDCHAR
STARTCHAR  2519
ENCODING  9497
SWIDTH  1000 0
DWIDTH  14 0
BBX  8 9 -1 4
BITMAP
0000000000000060
00000000000000C0
00000000000000C0
00000000000000C0
00000000000000C0
00000000000000C0
00000000000000C0
60FFFFFFFFFFFFFF
1020202020202020
ENDCHAR
STARTCHAR  251A
ENCODING  9498
SWIDTH  1000 0
DWIDTH  14 0
BBX  9 8 -1 5
BITMAP
00000000000000A010
00000000000000FF20
00000000000000FF20
00000000000000FF20
00000000000000FF20
00000000000000FF20
00000000000000FF20
60C0C0C0C0C0C0C020
ENDCHAR
STARTCHAR  251B
ENCODING  9499
SWIDTH  1000 0
DWIDTH  14 0
BBX  9 9 -1 4
BITMAP
00000000000000A010
00000000000000FF20
00000000000000FF20
00000000000000FF20
00000000000000FF20
00000000000000FF20
00000000000000FF20
A0FFFFFFFFFFFFFF20
102020202020202000
ENDCHAR
STARTCHAR  251C
ENCODING  9500
SWIDTH  1000 0
DWIDTH  14 0
BBX  9 15 6 -2
BITMAP
300000000000000000
C00000000000000000
C00000000000000000
C00000000000000000
C00000000000000000
C00000000000000000
C00000000000000000
C0C0C0C0C0C0C0C020
C00000000000000000
C00000000000000000
C00000000000000000
C00000000000000000
C00000000000000000
C00000000000000000
C00000000000000000
ENDCHAR
STARTCHAR  251D
ENCODING  9501
SWIDTH  1000 0
DWIDTH  14 0
BBX  9 15 6 -2
BITMAP
300000000000000000
C00000000000000000
C00000000000000000
C00000000000000000
C00000000000000000
C00000000000000000
C00000000000000000
C0FFFFFFFFFFFFFF20
C02020202020202000
C00000000000000000
C00000000000000000
C00000000000000000
C00000000000000000
C00000000000000000
C00000000000000000
ENDCHAR
STARTCHAR  251E
ENCODING  9502
SWIDTH  1000 0
DWIDTH  14 0
BBX  9 15 6 -2
BITMAP
606000000000000000
C0A000000000000000
C0A000000000000000
C0A000000000000000
C0A000000000000000
C0A000000000000000
C0A000000000000000
C0C0C0C0C0C0C0C020
C00000000000000000
C00000000000000000
C00000000000000000
C00000000000000000
C00000000000000000
C00000000000000000
A00000000000000000
ENDCHAR
STARTCHAR  251F
ENCODING  9503
SWIDTH  1000 0
DWIDTH  14 0
BBX  9 15 6 -2
BITMAP
600000000000000000
C00000000000000000
C00000000000000000
C00000000000000000
C00000000000000000
C00000000000000000
C00000000000000000
C0E0C0C0C0C0C0C020
C0A000000000000000
C0A000000000000000
C0A000000000000000
C0A000000000000000
C0A000000000000000
C0A000000000000000
A08000000000000000
ENDCHAR
STARTCHAR  2520
ENCODING  9504
SWIDTH  1000 0
DWIDTH  14 0
BBX  8 15 6 -2
BITMAP
4010000000000000
FF20000000000000
FF20000000000000
FF20000000000000
FF20000000000000
FF20000000000000
FF20000000000000
FFE0C0C0C0C0C080
FF20000000000000
FF20000000000000
FF20000000000000
FF20000000000000
FF20000000000000
FF20000000000000
FF20000000000000
ENDCHAR
STARTCHAR  2521
ENCODING  9505
SWIDTH  1000 0
DWIDTH  14 0
BBX  9 15 6 -2
BITMAP
606000000000000000
C0A000000000000000
C0A000000000000000
C0A000000000000000
C0A000000000000000
C0A000000000000000
C0A000000000000000
C0FFFFFFFFFFFFFF20
C02020202020202000
C00000000000000000
C00000000000000000
C00000000000000000
C00000000000000000
C00000000000000000
800000000000000000
ENDCHAR
STARTCHAR  2522
ENCODING  9506
SWIDTH  1000 0
DWIDTH  14 0
BBX  9 15 6 -2
BITMAP
600000000000000000
C00000000000000000
C00000000000000000
C00000000000000000
C00000000000000000
C00000000000000000
C00000000000000000
C0FFFFFFFFFFFFFF20
C0A020202020202000
C0A000000000000000
C0A000000000000000
C0A000000000000000
C0A000000000000000
C0A000000000000000
806000000000000000
ENDCHAR
STARTCHAR  2523
ENCODING  9507
SWIDTH  1000 0
DWIDTH  14 0
BBX  8 15 6 -2
BITMAP
4010000000000000
FF20000000000000
FF20000000000000
FF20000000000000
FF20000000000000
FF20000000000000
FF20000000000000
FFFFFFFFFFFFFFC0
FF40202020202010
FF20000000000000
FF20000000000000
FF20000000000000
FF20000000000000
FF20000000000000
FF20000000000000
ENDCHAR
STARTCHAR  2524
ENCODING  9508
SWIDTH  1000 0
DWIDTH  14 0
BBX  8 15 -1 -2
BITMAP
0000000000000030
00000000000000C0
00000000000000C0
00000000000000C0
00000000000000C0
00000000000000C0
00000000000000C0
40C0C0C0C0C0C0F0
00000000000000C0
00000000000000C0
00000000000000C0
00000000000000C0
00000000000000C0
00000000000000C0
00000000000000C0
ENDCHAR
STARTCHAR  2525
ENCODING  9509
SWIDTH  1000 0
DWIDTH  14 0
BBX  8 15 -1 -2
BITMAP
0000000000000030
00000000000000C0
00000000000000C0
00000000000000C0
00000000000000C0
00000000000000C0
00000000000000C0
60FFFFFFFFFFFFFF
10202020202020E0
00000000000000C0
00000000000000C0
00000000000000C0
00000000000000C0
00000000000000C0
00000000000000C0
ENDCHAR
STARTCHAR  2526
ENCODING  9510
SWIDTH  1000 0
DWIDTH  14 0
BBX  9 16 -1 -3
BITMAP
000000000000002000
00000000000000FF20
00000000000000FF20
00000000000000FF20
00000000000000FF20
00000000000000FF20
00000000000000FF20
60C0C0C0C0C0C0FF20
00000000000000A000
00000000000000A000
00000000000000A000
00000000000000A000
00000000000000A000
00000000000000A000
00000000000000A000
000000000000001000
ENDCHAR
STARTCHAR  2527
ENCODING  9511
SWIDTH  1000 0
DWIDTH  14 0
BBX  9 15 -1 -2
BITMAP
000000000000006000
00000000000000A000
00000000000000A000
00000000000000A000
00000000000000A000
00000000000000A000
00000000000000A000
60C0C0C0C0C0C0FF20
00000000000000FF20
00000000000000FF20
00000000000000FF20
00000000000000FF20
00000000000000FF20
00000000000000FF20
00000000000000C010
ENDCHAR
STARTCHAR  2528
ENCODING  9512
SWIDTH  1000 0
DWIDTH  14 0
BBX  9 15 -1 -2
BITMAP
000000000000004010
00000000000000FF20
00000000000000FF20
00000000000000FF20
00000000000000FF20
00000000000000FF20
00000000000000FF20
60C0C0C0C0C0C0FF20
00000000000000FF20
00000000000000FF20
00000000000000FF20
00000000000000FF20
00000000000000FF20
00000000000000FF20
00000000000000FF20
ENDCHAR
STARTCHAR  2529
ENCODING  9513
SWIDTH  1000 0
DWIDTH  14 0
BBX  9 15 -1 -2
BITMAP
00000000000000C010
00000000000000FF20
00000000000000FF20
00000000000000FF20
00000000000000FF20
00000000000000FF20
00000000000000FF20
A0FFFFFFFFFFFFFF20
10202020202020A000
00000000000000A000
00000000000000A000
00000000000000A000
00000000000000A000
00000000000000A000
000000000000006000
ENDCHAR
STARTCHAR  252A
ENCODING  9514
SWIDTH  1000 0
DWIDTH  14 0
BBX  9 15 -1 -2
BITMAP
000000000000006000
00000000000000A000
00000000000000A000
00000000000000A000
00000000000000A000
00000000000000A000
00000000000000A000
A0FFFFFFFFFFFFFF20
10202020202020FF20
00000000000000FF20
00000000000000FF20
00000000000000FF20
00000000000000FF20
00000000000000FF20
00000000000000C010
ENDCHAR
STARTCHAR  252B
ENCODING  9515
SWIDTH  1000 0
DWIDTH  14 0
BBX  9 15 -1 -2
BITMAP
000000000000004010
00000000000000FF20
00000000000000FF20
00000000000000FF20
00000000000000FF20
00000000000000FF20
00000000000000FF20
A0FFFFFFFFFFFFFF20
10202020202020FF20
00000000000000FF20
00000000000000FF20
00000000000000FF20
00000000000000FF20
00000000000000FF20
00000000000000FF20
ENDCHAR
STARTCHAR  252C
ENCODING  9516
SWIDTH  1000 0
DWIDTH  14 0
BBX  16 8 -1 -2
BITMAP
20C0C0C0C0C0C0F0C0C0C0C0C0C0C020
00000000000000C00000000000000000
00000000000000C00000000000000000
00000000000000C00000000000000000
00000000000000C00000000000000000
00000000000000C00000000000000000
00000000000000C00000000000000000
00000000000000A00000000000000000
ENDCHAR
STARTCHAR  252D
ENCODING  9517
SWIDTH  1000 0
DWIDTH  14 0
BBX  16 8 -1 -2
BITMAP
60FFFFFFFFFFFFFFC0C0C0C0C0C0C020
20606060606060E00000000000000000
00000000000000C00000000000000000
00000000000000C00000000000000000
00000000000000C00000000000000000
00000000000000C00000000000000000
00000000000000C00000000000000000
00000000000000A00000000000000000
ENDCHAR
STARTCHAR  252E
ENCODING  9518
SWIDTH  1000 0
DWIDTH  14 0
BBX  16 8 -1 -2
BITMAP
40C0C0C0C0C0C0F0FFFFFFFFFFFFFF20
00000000000000C06060606060606010
00000000000000C00000000000000000
00000000000000C00000000000000000
00000000000000C00000000000000000
00000000000000C00000000000000000
00000000000000C00000000000000000
00000000000000A00000000000000000
ENDCHAR
STARTCHAR  252F
ENCODING  9519
SWIDTH  1000 0
DWIDTH  14 0
BBX  16 8 -1 -2
BITMAP
20FFFFFFFFFFFFFFFFFFFFFFFFFFFF20
00202020202020E02020202020202000
00000000000000C00000000000000000
00000000000000C00000000000000000
00000000000000C00000000000000000
00000000000000C00000000000000000
00000000000000C00000000000000000
00000000000000800000000000000000
ENDCHAR
STARTCHAR  2530
ENCODING  9520
SWIDTH  1000 0
DWIDTH  14 0
BBX  16 8 -1 -2
BITMAP
20C0C0C0C0C0C0FFE0C0C0C0C0C0C020
00000000000000FF2000000000000000
00000000000000FF2000000000000000
00000000000000FF2000000000000000
00000000000000FF2000000000000000
00000000000000FF2000000000000000
00000000000000FF2000000000000000
00000000000000E02000000000000000
ENDCHAR
STARTCHAR  2531
ENCODING  9521
SWIDTH  1000 0
DWIDTH  14 0
BBX  15 8 -1 -2
BITMAP
A0FFFFFFFFFFFFFFE0C0C0C0C0C080
30606060606060FF20000000000000
00000000000000FF20000000000000
00000000000000FF20000000000000
00000000000000FF20000000000000
00000000000000FF20000000000000
00000000000000FF20000000000000
00000000000000E020000000000000
ENDCHAR
STARTCHAR  2532
ENCODING  9522
SWIDTH  1000 0
DWIDTH  14 0
BBX  15 8 -1 -2
BITMAP
60C0C0C0C0C0C0FFFFFFFFFFFFFFC0
00000000000000FF60606060606040
00000000000000FF20000000000000
00000000000000FF20000000000000
00000000000000FF20000000000000
00000000000000FF20000000000000
00000000000000FF20000000000000
00000000000000E020000000000000
ENDCHAR
STARTCHAR  2533
ENCODING  9523
SWIDTH  1000 0
DWIDTH  14 0
BBX  16 8 -1 -2
BITMAP
20FFFFFFFFFFFFFFFFFFFFFFFFFFFF20
00202020202020FF4020202020202000
00000000000000FF2000000000000000
00000000000000FF2000000000000000
00000000000000FF2000000000000000
00000000000000FF2000000000000000
00000000000000FF2000000000000000
00000000000000C01000000000000000
ENDCHAR
STARTCHAR  2534
ENCODING  9524
SWIDTH  1000 0
DWIDTH  14 0
BBX  16 8 -1 5
BITMAP
00000000000000600000000000000000
00000000000000C00000000000000000
00000000000000C00000000000000000
00000000000000C00000000000000000
00000000000000C00000000000000000
00000000000000C00000000000000000
00000000000000C00000000000000000
20C0C0C0C0C0C0C0C0C0C0C0C0C0C020
ENDCHAR
STARTCHAR  2535
ENCODING  9525
SWIDTH  1000 0
DWIDTH  14 0
BBX  15 9 0 4
BITMAP
000000000000600000000000000000
000000000000C00000000000000000
000000000000C00000000000000000
000000000000C00000000000000000
000000000000C00000000000000000
000000000000C00000000000000000
000000000000C00000000000000000
FFFFFFFFFFFFFFE0A0A0A0A0A0A030
202020202020201000000000000000
ENDCHAR
STARTCHAR  2536
ENCODING  9526
SWIDTH  1000 0
DWIDTH  14 0
BBX  15 9 -1 4
BITMAP
000000000000006000000000000000
00000000000000C000000000000000
00000000000000C000000000000000
00000000000000C000000000000000
00000000000000C000000000000000
00000000000000C000000000000000
00000000000000C000000000000000
30A0A0A0A0A0A0E0FFFFFFFFFFFFFF
000000000000001020202020202020
ENDCHAR
STARTCHAR  2537
ENCODING  9527
SWIDTH  1000 0
DWIDTH  14 0
BBX  16 9 -1 4
BITMAP
00000000000000600000000000000000
00000000000000C00000000000000000
00000000000000C00000000000000000
00000000000000C00000000000000000
00000000000000C00000000000000000
00000000000000C00000000000000000
00000000000000C00000000000000000
20FFFFFFFFFFFFFFFFFFFFFFFFFFFF20
00202020202020202020202020202000
ENDCHAR
STARTCHAR  2538
ENCODING  9528
SWIDTH  1000 0
DWIDTH  14 0
BBX  16 8 -1 5
BITMAP
00000000000000A01000000000000000
00000000000000FF2000000000000000
00000000000000FF2000000000000000
00000000000000FF2000000000000000
00000000000000FF2000000000000000
00000000000000FF2000000000000000
00000000000000FF2000000000000000
20C0C0C0C0C0C0C0C0C0C0C0C0C0C020
ENDCHAR
STARTCHAR  2539
ENCODING  9529
SWIDTH  1000 0
DWIDTH  14 0
BBX  15 9 0 4
BITMAP
00000000000010A000000000000000
00000000000020FF00000000000000
00000000000020FF00000000000000
00000000000020FF00000000000000
00000000000020FF00000000000000
00000000000020FF00000000000000
00000000000020FF00000000000000
FFFFFFFFFFFFFFE0A0A0A0A0A0A030
202020202020201000000000000000
ENDCHAR
STARTCHAR  253A
ENCODING  9530
SWIDTH  1000 0
DWIDTH  14 0
BBX  15 9 -1 4
BITMAP
00000000000000A010000000000000
00000000000000FF20000000000000
00000000000000FF20000000000000
00000000000000FF20000000000000
00000000000000FF20000000000000
00000000000000FF20000000000000
00000000000000FF20000000000000
30A0A0A0A0A0A0E0FFFFFFFFFFFFFF
000000000000001020202020202020
ENDCHAR
STARTCHAR  253B
ENCODING  9531
SWIDTH  1000 0
DWIDTH  14 0
BBX  16 9 -1 4
BITMAP
00000000000000A01000000000000000
00000000000000FF2000000000000000
00000000000000FF2000000000000000
00000000000000FF2000000000000000
00000000000000FF2000000000000000
00000000000000FF2000000000000000
00000000000000FF2000000000000000
20FFFFFFFFFFFFFFFFFFFFFFFFFFFF20
00202020202020202020202020202000
ENDCHAR
STARTCHAR  253C
ENCODING  9532
SWIDTH  1000 0
DWIDTH  14 0
BBX  16 15 -1 -2
BITMAP
00000000000000300000000000000000
00000000000000C00000000000000000
00000000000000C00000000000000000
00000000000000C00000000000000000
00000000000000C00000000000000000
00000000000000C00000000000000000
00000000000000C00000000000000000
20C0C0C0C0C0C0F0C0C0C0C0C0C0C020
00000000000000C00000000000000000
00000000000000C00000000000000000
00000000000000C00000000000000000
00000000000000C00000000000000000
00000000000000C00000000000000000
00000000000000C00000000000000000
00000000000000C00000000000000000
ENDCHAR
STARTCHAR  253D
ENCODING  9533
SWIDTH  1000 0
DWIDTH  14 0
BBX  16 15 -1 -2
BITMAP
00000000000000300000000000000000
00000000000000C00000000000000000
00000000000000C00000000000000000
00000000000000C00000000000000000
00000000000000C00000000000000000
00000000000000C00000000000000000
00000000000000C00000000000000000
60FFFFFFFFFFFFFFA0A0A0A0A0A0A010
10202020202020E00000000000000000
00000000000000C00000000000000000
00000000000000C00000000000000000
00000000000000C00000000000000000
00000000000000C00000000000000000
00000000000000C00000000000000000
00000000000000C00000000000000000
ENDCHAR
STARTCHAR  253E
ENCODING  9534
SWIDTH  1000 0
DWIDTH  14 0
BBX  16 15 -1 -2
BITMAP
00000000000000300000000000000000
00000000000000C00000000000000000
00000000000000C00000000000000000
00000000000000C00000000000000000
00000000000000C00000000000000000
00000000000000C00000000000000000
00000000000000C00000000000000000
30A0A0A0A0A0A0E0FFFFFFFFFFFFFF20
00000000000000C02020202020202000
00000000000000C00000000000000000
00000000000000C00000000000000000
00000000000000C00000000000000000
00000000000000C00000000000000000
00000000000000C00000000000000000
00000000000000C00000000000000000
ENDCHAR
STARTCHAR  253F
ENCODING  9535
SWIDTH  1000 0
DWIDTH  14 0
BBX  16 15 -1 -2
BITMAP
00000000000000300000000000000000
00000000000000C00000000000000000
00000000000000C00000000000000000
00000000000000C00000000000000000
00000000000000C00000000000000000
00000000000000C00000000000000000
00000000000000C00000000000000000
20FFFFFFFFFFFFFFFFFFFFFFFFFFFF20
00202020202020E02020202020202000
00000000000000C00000000000000000
00000000000000C00000000000000000
00000000000000C00000000000000000
00000000000000C00000000000000000
00000000000000C00000000000000000
00000000000000C00000000000000000
ENDCHAR
STARTCHAR  2540
ENCODING  9536
SWIDTH  1000 0
DWIDTH  14 0
BBX  16 15 -1 -2
BITMAP
00000000000000A01000000000000000
00000000000000FF2000000000000000
00000000000000FF2000000000000000
00000000000000FF2000000000000000
00000000000000FF2000000000000000
00000000000000FF2000000000000000
00000000000000FF2000000000000000
20C0C0C0C0C0C0E0C0C0C0C0C0C0C020
00000000000000A00000000000000000
00000000000000A00000000000000000
00000000000000A00000000000000000
00000000000000A00000000000000000
00000000000000A00000000000000000
00000000000000A00000000000000000
00000000000000800000000000000000
ENDCHAR
STARTCHAR  2541
ENCODING  9537
SWIDTH  1000 0
DWIDTH  14 0
BBX  16 15 -1 -2
BITMAP
00000000000000600000000000000000
00000000000000A00000000000000000
00000000000000A00000000000000000
00000000000000A00000000000000000
00000000000000A00000000000000000
00000000000000A00000000000000000
00000000000000A00000000000000000
20C0C0C0C0C0C0FFE0C0C0C0C0C0C020
00000000000000FF2000000000000000
00000000000000FF2000000000000000
00000000000000FF2000000000000000
00000000000000FF2000000000000000
00000000000000FF2000000000000000
00000000000000FF2000000000000000
00000000000000E02000000000000000
ENDCHAR
STARTCHAR  2542
ENCODING  9538
SWIDTH  1000 0
DWIDTH  14 0
BBX  16 15 -1 -2
BITMAP
00000000000000401000000000000000
00000000000000FF2000000000000000
00000000000000FF2000000000000000
00000000000000FF2000000000000000
00000000000000FF2000000000000000
00000000000000FF2000000000000000
00000000000000FF2000000000000000
20C0C0C0C0C0C0FFE0C0C0C0C0C0C020
00000000000000FF2000000000000000
00000000000000FF2000000000000000
00000000000000FF2000000000000000
00000000000000FF2000000000000000
00000000000000FF2000000000000000
00000000000000FF2000000000000000
00000000000000FF2000000000000000
ENDCHAR
STARTCHAR  2543
ENCODING  9539
SWIDTH  1000 0
DWIDTH  14 0
BBX  15 15 0 -2
BITMAP
00000000000010C000000000000000
00000000000020FF00000000000000
00000000000020FF00000000000000
00000000000020FF00000000000000
00000000000020FF00000000000000
00000000000020FF00000000000000
00000000000020FF00000000000000
FFFFFFFFFFFFFFE0A0A0A0A0A0A030
202020202020408000000000000000
000000000000208000000000000000
000000000000208000000000000000
000000000000208000000000000000
000000000000208000000000000000
000000000000208000000000000000
000000000000104000000000000000
ENDCHAR
STARTCHAR  2544
ENCODING  9540
SWIDTH  1000 0
DWIDTH  14 0
BBX  15 15 -1 -2
BITMAP
00000000000000A010000000000000
00000000000000FF20000000000000
00000000000000FF20000000000000
00000000000000FF20000000000000
00000000000000FF20000000000000
00000000000000FF20000000000000
00000000000000FF20000000000000
60A0A0A0A0A0A0FFFFFFFFFFFFFFC0
00000000000000A020202020202010
00000000000000A000000000000000
00000000000000A000000000000000
00000000000000A000000000000000
00000000000000A000000000000000
00000000000000A000000000000000
000000000000006000000000000000
ENDCHAR
STARTCHAR  2545
ENCODING  9541
SWIDTH  1000 0
DWIDTH  14 0
BBX  15 15 -1 -2
BITMAP
000000000000006000000000000000
00000000000000A000000000000000
00000000000000A000000000000000
00000000000000A000000000000000
00000000000000A000000000000000
00000000000000A000000000000000
00000000000000A000000000000000
A0FFFFFFFFFFFFFFA0A0A0A0A0A060
10202020202020FF20000000000000
00000000000000FF20000000000000
00000000000000FF20000000000000
00000000000000FF20000000000000
00000000000000FF20000000000000
00000000000000FF20000000000000
00000000000000C010000000000000
ENDCHAR
STARTCHAR  2546
ENCODING  9542
SWIDTH  1000 0
DWIDTH  14 0
BBX  15 15 -1 -2
BITMAP
000000000000006000000000000000
00000000000000A000000000000000
00000000000000A000000000000000
00000000000000A000000000000000
00000000000000A000000000000000
00000000000000A000000000000000
00000000000000A000000000000000
60A0A0A0A0A0A0FFFFFFFFFFFFFFC0
00000000000000FF40202020202010
00000000000000FF20000000000000
00000000000000FF20000000000000
00000000000000FF20000000000000
00000000000000FF20000000000000
00000000000000FF20000000000000
00000000000000C010000000000000
ENDCHAR
STARTCHAR  2547
ENCODING  9543
SWIDTH  1000 0
DWIDTH  14 0
BBX  16 15 -1 -2
BITMAP
00000000000000A01000000000000000
00000000000000FF2000000000000000
00000000000000FF2000000000000000
00000000000000FF2000000000000000
00000000000000FF2000000000000000
00000000000000FF2000000000000000
00000000000000FF2000000000000000
20FFFFFFFFFFFFFFFFFFFFFFFFFFFF20
00202020202020A02020202020202000
00000000000000A00000000000000000
00000000000000A00000000000000000
00000000000000A00000000000000000
00000000000000A00000000000000000
00000000000000A00000000000000000
00000000000000600000000000000000
ENDCHAR
STARTCHAR  2548
ENCODING  9544
SWIDTH  1000 0
DWIDTH  14 0
BBX  16 15 -1 -2
BITMAP
00000000000000600000000000000000
00000000000000A00000000000000000
00000000000000A00000000000000000
00000000000000A00000000000000000
00000000000000A00000000000000000
00000000000000A00000000000000000
00000000000000A00000000000000000
20FFFFFFFFFFFFFFFFFFFFFFFFFFFF20
00202020202020FF4020202020202000
00000000000000FF2000000000000000
00000000000000FF2000000000000000
00000000000000FF2000000000000000
00000000000000FF2000000000000000
00000000000000FF2000000000000000
00000000000000C01000000000000000
ENDCHAR
STARTCHAR  2549
ENCODING  9545
SWIDTH  1000 0
DWIDTH  14 0
BBX  15 15 -1 -2
BITMAP
000000000000004010000000000000
00000000000000FF20000000000000
00000000000000FF20000000000000
00000000000000FF20000000000000
00000000000000FF20000000000000
00000000000000FF20000000000000
00000000000000FF20000000000000
A0FFFFFFFFFFFFFFA0A0A0A0A0A060
10202020202020FF20000000000000
00000000000000FF20000000000000
00000000000000FF20000000000000
00000000000000FF20000000000000
00000000000000FF20000000000000
00000000000000FF20000000000000
00000000000000FF20000000000000
ENDCHAR
STARTCHAR  254A
ENCODING  9546
SWIDTH  1000 0
DWIDTH  14 0
BBX  15 15 -1 -2
BITMAP
000000000000004010000000000000
00000000000000FF20000000000000
00000000000000FF20000000000000
00000000000000FF20000000000000
00000000000000FF20000000000000
00000000000000FF20000000000000
00000000000000FF20000000000000
60A0A0A0A0A0A0FFFFFFFFFFFFFFC0
00000000000000FF40202020202010
00000000000000FF20000000000000
00000000000000FF20000000000000
00000000000000FF20000000000000
00000000000000FF20000000000000
00000000000000FF20000000000000
00000000000000FF20000000000000
ENDCHAR
STARTCHAR  254B
ENCODING  9547
SWIDTH  1000 0
DWIDTH  14 0
BBX  16 15 -1 -2
BITMAP
00000000000000401000000000000000
00000000000000FF2000000000000000
00000000000000FF2000000000000000
00000000000000FF2000000000000000
00000000000000FF2000000000000000
00000000000000FF2000000000000000
00000000000000FF2000000000000000
20FFFFFFFFFFFFFFFFFFFFFFFFFFFF20
00202020202020FF4020202020202000
00000000000000FF2000000000000000
00000000000000FF2000000000000000
00000000000000FF2000000000000000
00000000000000FF2000000000000000
00000000000000FF2000000000000000
00000000000000FF2000000000000000
ENDCHAR
STARTCHAR  25A0
ENCODING  9632
SWIDTH  1000 0
DWIDTH  14 0
BBX  10 10 2 0
BITMAP
E0FFFFFFFFFFFFFFFFFF
E0FFFFFFFFFFFFFFFFFF
E0FFFFFFFFFFFFFFFFFF
E0FFFFFFFFFFFFFFFFFF
E0FFFFFFFFFFFFFFFFFF
E0FFFFFFFFFFFFFFFFFF
E0FFFFFFFFFFFFFFFFFF
E0FFFFFFFFFFFFFFFFFF
E0FFFFFFFFFFFFFFFFFF
C0E0E0E0E0E0E0E0E0E0
ENDCHAR
STARTCHAR  25A1
ENCODING  9633
SWIDTH  1000 0
DWIDTH  14 0
BBX  10 10 2 0
BITMAP
F0E0E0E0E0E0E0E0E0F0
E00000000000000000E0
E00000000000000000E0
E00000000000000000E0
E00000000000000000E0
E00000000000000000E0
E00000000000000000E0
E00000000000000000E0
E00000000000000000E0
C0E0E0E0E0E0E0E0E0C0
ENDCHAR
STARTCHAR  25B2
ENCODING  9650
SWIDTH  1000 0
DWIDTH  14 0
BBX  11 12 2 0
BITMAP
0000000030200000000000
00000000A0A00000000000
00000020FFF01000000000
00000080FFFF8000000000
000010F0FFFFF010000000
000060FFFFFFFF60000000
0000E0FFFFFFFFE0000000
0060FFFFFFFFFFFF600000
00E0FFFFFFFFFFFFE00000
40FFFFFFFFFFFFFFFF4000
C0FFFFFFFFFFFFFFFFC000
3030303030303030303000
ENDCHAR
STARTCHAR  25B3
ENCODING  9651
SWIDTH  1000 0
DWIDTH  14 0
BBX  11 12 2 1
BITMAP
0000000000000000000000
0000000040300000000000
00000000C0A00000000000
00000030C0C02000000000
000000A04040A000000000
000020E00000E010000000
0000806000006080000000
0010E000000000E0100000
0060800000000080600000
00E0100000000010E00000
60A0000000000000806000
C0E0E0E0E0E0E0E0E0E000
ENDCHAR
STARTCHAR  25C6
ENCODING  9670
SWIDTH  1000 0
DWIDTH  14 0
BBX  12 14 1 -1
BITMAP
000000000030300000000000
0000000020E0E02000000000
00000010E0FFFFE010000000
000000C0FFFFFFFFC0000000
0000A0FFFFFFFFFFFFA00000
0080FFFFFFFFFFFFFFFF8000
60FFFFFFFFFFFFFFFFFFFF60
40FFFFFFFFFFFFFFFFFFFF40
0060FFFFFFFFFFFFFFFF6000
000080FFFFFFFFFFFF800000
000000A0FFFFFFFFA0000000
00000000C0FFFFC000000000
0000000010C0C01000000000
000000000010100000000000
ENDCHAR
STARTCHAR  25C7
ENCODING  9671
SWIDTH  1000 0
DWIDTH  14 0
BBX  12 14 1 -1
BITMAP
000000000030300000000000
0000000020E0E02000000000
00000010C03030C010000000
000000C040000040C0000000
0000A0600000000060A00000
008080000000000000808000
60A00000000000000000A060
40C00000000000000000C040
0060A0000000000000A06000
000080800000000080800000
000000A060000060A0000000
00000000A04060A000000000
0000000010C0C01000000000
000000000010100000000000
ENDCHAR
STARTCHAR  25CB
ENCODING  9675
SWIDTH  1000 0
DWIDTH  14 0
BBX  12 12 1 0
BITMAP
00000030A0C0C0A030000000
0000A0C040101040C0A00000
00A08000000000000080A000
30C00000000000000000C030
A040000000000000000040A0
C010000000000000000010C0
C010000000000000000010C0
A040000000000000000040A0
30C00000000000000000C030
00A08000000000000080A000
0000A0C040101040A0A00000
00000030A0C0C0A030000000
ENDCHAR
STARTCHAR  25CE
ENCODING  9678
SWIDTH  1000 0
DWIDTH  14 0
BBX  11 10 2 1
BITMAP
000030A0E0E0E0A0200000
0080C060A0E0A060E04000
40C030E0400040E030E020
C020C03000000040A040A0
E000E00000000000E010E0
E000E00000000000E010C0
C020C03000000040A04080
40C030E0401040E030E020
0080C060A0E0A080E04000
000040A0E0E0E0A0200000
ENDCHAR
STARTCHAR  25CF
ENCODING  9679
SWIDTH  1000 0
DWIDTH  14 0
BBX  12 12 1 0
BITMAP
00001080E0FFF0A040000000
0030E0FFFFFFFFFFFF800000
10E0FFFFFFFFFFFFFFFF6000
80FFFFFFFFFFFFFFFFFFF010
E0FFFFFFFFFFFFFFFFFFFF40
FFFFFFFFFFFFFFFFFFFFFF60
F0FFFFFFFFFFFFFFFFFFFF60
C0FFFFFFFFFFFFFFFFFFFF20
40FFFFFFFFFFFFFFFFFFA000
0080FFFFFFFFFFFFFFE01000
000060F0FFFFFFFFC0200000
000000104060602000000000
ENDCHAR
STARTCHAR  2605
ENCODING  9733
SWIDTH  1000 0
DWIDTH  14 0
BBX  14 13 0 -1
BITMAP
0000000000001010000000000000
0000000000006060000000000000
000000000000C0C0000000000000
000000000010FFFF100000000000
000000000060FFFF600000000000
20C0F0F0F0F0FFFFF0E0E0E0C020
000080FFFFFFFFFFFFFFFFA01000
00000040E0FFFFFFFFF040000000
00000000A0FFFFFFFFA000000000
00000010F0FFFFFFFFF010000000
00000060FFE03040E0FF60000000
000000C0A010000010A0A0000000
0000004000000000000040000000
ENDCHAR
STARTCHAR  2606
ENCODING  9734
SWIDTH  1000 0
DWIDTH  14 0
BBX  14 13 0 -1
BITMAP
0000000000001010000000000000
0000000000006060000000000000
000000000000C0C0000000000000
000000000010C0E0100000000000
0000000000608080600000000000
20C0E0E0E0E02030E0E0E0E0C020
0000A0A0100000000010A0A01000
00000040E020000030E040000000
00000000A020000030A000000000
00000010C020C0C020E010000000
00000060C0E04040E0E060000000
000000C0A010000010A0A0000000
0000006000000000000060000000
ENDCHAR
STARTCHAR  2640
ENCODING  9792
SWIDTH  1000 0
DWIDTH  14 0
BBX  8 12 3 -1
BITMAP
000020C0C0200000
0000C04040C00000
0000E00000E00000
0000C03020E00000
000020C0F0600000
00000000FF000000
E0F0F0F0FFF0F0F0
00000000FF000000
00000000FF000000
00000000FF000000
00000000FF000000
0000000040000000
ENDCHAR
STARTCHAR  2642
ENCODING  9794
SWIDTH  1000 0
DWIDTH  14 0
BBX  7 11 4 0
BITMAP
00001080000000
0010E0FFC01000
20E080FF80C010
406000FF008030
000000FF000000
000000FF000000
000060FF400000
0080A040C08000
00E0000010E000
00C0600060A000
0020C0E0A01000
ENDCHAR
STARTCHAR  3000
ENCODING  12288
SWIDTH  1000 0
DWIDTH  14 0
BBX  0 0 0 0
BITMAP
ENDCHAR
STARTCHAR  3001
ENCODING  12289
SWIDTH  1000 0
DWIDTH  14 0
BBX  5 4 0 -1
BITMAP
00C0600000
0080E02000
0000A0FFC0
0000000000
ENDCHAR
STARTCHAR  3002
ENCODING  12290
SWIDTH  1000 0
DWIDTH  14 0
BBX  4 4 1 0
BITMAP
30C0C030
E03030E0
E01010E0
60E0E040
ENDCHAR
STARTCHAR  3003
ENCODING  12291
SWIDTH  1000 0
DWIDTH  14 0
BBX  6 5 4 3
BITMAP
000020001010
0060E00080A0
00E03030E010
606000C02000
800020400000
ENDCHAR
STARTCHAR  3005
ENCODING  12293
SWIDTH  1000 0
DWIDTH  14 0
BBX  10 9 2 1
BITMAP
00000060400000000000
000030F0200000000000
0000E0F0F0F0F0F0FF40
0080E00000000080E010
E0E02000000040F02000
000060A01020F0400000
000000A0E0E080000000
0000000080F030000000
000000000060E0E0A000
ENDCHAR
STARTCHAR  3008
ENCODING  12296
SWIDTH  1000 0
DWIDTH  14 0
BBX  5 13 8 -1
BITMAP
0000006080
000010F030
0000A0A000
0030F02000
00C0800000
60E0100000
E060000000
80C0000000
10E0400000
0060E00000
0000E08000
000040F010
000000A0A0
ENDCHAR
STARTCHAR  3009
ENCODING  12297
SWIDTH  1000 0
DWIDTH  14 0
BBX  6 13 1 -1
BITMAP
606000000000
30F020000000
00A0A0000000
0010F0400000
000080E00000
000000E06000
00000060E000
000000A0A000
000040F01000
0000E0600000
0060E0000000
10F040000000
80C000000000
ENDCHAR
STARTCHAR  300A
ENCODING  12298
SWIDTH  1000 0
DWIDTH  14 0
BBX  8 13 6 -1
BITMAP
0000000080108010
00000040A040A000
000000C020C02000
0000608060800000
0010E010E0100000
0080608060000000
10E010E000000000
00C030C030000000
0030C020C0000000
0000A04080600000
000010C010E00000
0000008060608000
00000000C010C010
ENDCHAR
STARTCHAR  300B
ENCODING  12299
SWIDTH  1000 0
DWIDTH  14 0
BBX  8 13 0 -1
BITMAP
1080108000000000
00A040A040000000
0020C020C0000000
0000806080600000
000010E010E01000
0000006080608000
00000000E010E010
00000030C030C000
000000C020C03000
0000608040A00000
0000E010E0100000
0080608060000000
10C010C000000000
ENDCHAR
STARTCHAR  300C
ENCODING  12300
SWIDTH  1000 0
DWIDTH  14 0
BBX  6 13 8 -1
BITMAP
30FFFFFFFF60
30FF30303010
30FF00000000
30FF00000000
30FF00000000
30FF00000000
30FF00000000
30FF00000000
30FF00000000
30FF00000000
30FF00000000
30FF00000000
20A000000000
ENDCHAR
STARTCHAR  300D
ENCODING  12301
SWIDTH  1000 0
DWIDTH  14 0
BBX  6 13 0 -1
BITMAP
00000000A020
00000000FF30
00000000FF30
00000000FF30
00000000FF30
00000000FF30
00000000FF30
00000000FF30
00000000FF30
00000000FF30
00000000FF30
10303030FF30
60FFFFFFFF30
ENDCHAR
STARTCHAR  300E
ENCODING  12302
SWIDTH  1000 0
DWIDTH  14 0
BBX  5 13 8 -1
BITMAP
C0E0E0E0E0
C0000000E0
C0E0C0C0C0
C0E0000000
C0E0000000
C0E0000000
C0E0000000
C0E0000000
C0E0000000
C0E0000000
C0E0000000
C0E0000000
E0F0000000
ENDCHAR
STARTCHAR  300F
ENCODING  12303
SWIDTH  1000 0
DWIDTH  14 0
BBX  5 13 1 -1
BITMAP
000000E0E0
000000E0C0
000000E0C0
000000E0C0
000000E0C0
000000E0C0
000000E0C0
000000E0C0
000000E0C0
000000E0C0
000000E0C0
F0C0C0A0C0
F0E0E0E0F0
ENDCHAR
STARTCHAR  3010
ENCODING  12304
SWIDTH  1000 0
DWIDTH  14 0
BBX  5 13 8 -1
BITMAP
10C0C0C080
20FFFFFF40
20FFFFC000
20FFFF8000
20FFFF3000
20FFFF1000
20FFFF0000
20FFFF1000
20FFFF3000
20FFFF6000
20FFFFA000
20FFFFFF20
20FFFFFFA0
ENDCHAR
STARTCHAR  3011
ENCODING  12305
SWIDTH  1000 0
DWIDTH  14 0
BBX  5 13 1 -1
BITMAP
80C0C0C010
40FFFFFF20
00E0FFFF20
0080FFFF20
0040FFFF20
0010FFFF20
0000FFFF20
0010FFFF20
0030FFFF20
0060FFFF20
00A0FFFF20
20FFFFFF20
A0FFFFFF20
ENDCHAR
STARTCHAR  3013
ENCODING  12307
SWIDTH  1000 0
DWIDTH  14 0
BBX  10 9 2 1
BITMAP
20202020202020202010
FFFFFFFFFFFFFFFFFFE0
FFFFFFFFFFFFFFFFFFE0
FFFFFFFFFFFFFFFFFFE0
00000000000000000000
20202020202020202010
FFFFFFFFFFFFFFFFFFE0
FFFFFFFFFFFFFFFFFFE0
FFFFFFFFFFFFFFFFFFE0
ENDCHAR
STARTCHAR  3014
ENCODING  12308
SWIDTH  1000 0
DWIDTH  14 0
BBX  4 14 9 -2
BITMAP
000080A0
20C0E040
F0A01000
FF200000
FF200000
FF200000
FF200000
FF200000
FF200000
FF200000
FF600000
60F0A010
0020C0A0
00000010
ENDCHAR
STARTCHAR  3015
ENCODING  12309
SWIDTH  1000 0
DWIDTH  14 0
BBX  4 14 1 -2
BITMAP
A0800000
40E0C020
0010A0F0
000030FF
000030FF
000030FF
000030FF
000030FF
000030FF
000030FF
000080FF
10A0F060
A0C02000
10000000
ENDCHAR
STARTCHAR  3016
ENCODING  12310
SWIDTH  1000 0
DWIDTH  14 0
BBX  5 13 8 -1
BITMAP
A0E0E0E040
E00000C000
E000408000
E000803000
E000C00000
E000C00000
E000C00000
E000C00000
E000C00000
E000A02000
E000606000
E00000C000
C0C0C0E040
ENDCHAR
STARTCHAR  3017
ENCODING  12311
SWIDTH  1000 0
DWIDTH  14 0
BBX  5 13 1 -1
BITMAP
40E0E0E0A0
00C00000E0
00804000E0
00308000E0
0000C000E0
0000C000E0
0000C000E0
0000C000E0
0000C000E0
0020A000E0
00606000E0
00C00000E0
60E0C0C0C0
ENDCHAR
STARTCHAR  3041
ENCODING  12353
SWIDTH  1000 0
DWIDTH  14 0
BBX  9 10 3 -1
BITMAP
000020A00000000000
E0E0E0FFE0E0E0E0C0
000000F01010000000
20C0E0FFE0E0FFE040
C08000F01030E040E0
F00000FF20E06000F0
FF0020FFC0A00000F0
F01060FFA0000040E0
A0E060F000A0E0E040
000000100000000000
ENDCHAR
STARTCHAR  3042
ENCODING  12354
SWIDTH  1000 0
DWIDTH  14 0
BBX  13 12 1 0
BITMAP
00000000200000000000000000
00000020FF0000000000000000
00F0F0F0FFF0F0F0F0F0F0E000
00000000FF2000000000000000
0020A0F0FFFFFFFFF0E0A01000
00C0A030FF10000080C0A0A000
10FF2010FF200030FF4030F000
20FF0000FF2010E0C00020FF00
20FF0000F040C0F0200020FF00
20FF0000E0F0FF60000030F000
10FF4080FFFF60000010A0E000
00A0FFC080FF0060FFF0C03000
ENDCHAR
STARTCHAR  3043
ENCODING  12355
SWIDTH  1000 0
DWIDTH  14 0
BBX  10 10 2 0
BITMAP
10200000000000000000
30E00000000020200000
10F00000000080A00000
00F01000000040C00000
00E03000000020F00000
00A06000000000F01000
00808000000000C04000
0060A00000000060E0A0
0040E010000000000000
0000A0F0E0E040000000
ENDCHAR
STARTCHAR  3044
ENCODING  12356
SWIDTH  1000 0
DWIDTH  14 0
BBX  12 11 1 0
BITMAP
30E000000000000000000000
10FF100000000000C0600000
00F0400000000000A0A00000
00E060000000000080C00000
00A080000000000040E00000
0080A0000000000020FF1000
0060E0000000000000F04000
0040F0000000000000C08000
0020FF10000000000040E0F0
0000F0800000000000000000
000040E0FFFFFFA000000000
ENDCHAR
STARTCHAR  3045
ENCODING  12357
SWIDTH  1000 0
DWIDTH  14 0
BBX  10 9 2 0
BITMAP
00E0E0E0E0E0E0E08000
00000000000000000000
00000000000000000000
80E0E0E0E0E0E0E04000
0000000000000040E000
0000000000000000F000
0000000000000000F010
0000000000000060E000
10E0E0E0E0E0E0C03000
ENDCHAR
STARTCHAR  3046
ENCODING  12358
SWIDTH  1000 0
DWIDTH  14 0
BBX  12 11 1 0
BITMAP
00F0FFFFFFFFFFFFFFFFFF00
000010101010101010101000
000000000000000000000000
A0FFFFFFFFFFFFFFF0C02000
000000000000000020A0E000
00000000000000000010FF20
00000000000000000000FF30
00000000000000000000FF30
00000000000000000020FF10
000000000000000020A0E000
40FFFFFFFFFFFFFFF0C02000
ENDCHAR
STARTCHAR  3047
ENCODING  12359
SWIDTH  1000 0
DWIDTH  14 0
BBX  10 10 2 -1
BITMAP
10E0E0E0E0E0E0E0E000
00000000000000000000
00000000000000000000
E0E0E0E0E0E0E0E0E010
000000E0200000000000
000060FFE0E080000000
0000E0400010FF000000
0060C0000000F0100000
E0E030000000A0E0E030
10000000000000000000
ENDCHAR
STARTCHAR  3048
ENCODING  12360
SWIDTH  1000 0
DWIDTH  14 0
BBX  12 11 1 0
BITMAP
00FFFFFFFFFFFFFFFFFFFF10
000000000000000000000000
000000000000000000000000
000000000000000000000000
40FFFFFFFFFFFFFFFFFFFFFF
00000000E040000000000000
00000060FFFFF0F080000000
000000E040000030FF100000
000040E000000000FF200000
0010C08000000000FF400000
80FFA0000000000080FFFFFF
ENDCHAR
STARTCHAR  3049
ENCODING  12361
SWIDTH  1000 0
DWIDTH  14 0
BBX  10 11 2 -1
BITMAP
00000000300000000000
00000000F00000A08000
40E0E0E0FFE0E040E000
00000000F0000000C0E0
0040C0E0FFF0E0E0C040
00E04000F000000060E0
00FF0000F000000000FF
00FF0000F000000000FF
00F02010F000000020E0
0080E0E08030E0E0E060
00000000000000000000
ENDCHAR
STARTCHAR  304A
ENCODING  12362
SWIDTH  1000 0
DWIDTH  14 0
BBX  13 12 0 0
BITMAP
00000000008010000010000000
0000000000FF300000A0800000
00E0FFFFFFFFFFFFFF40E00000
0000000000FF30000000F02000
0000000000FF3000000080F080
0040E0F0FFFFFFFFFFF0C04000
00E0801000FF3000001080E000
10FF200000FF3000000010FF20
10FF200000FF3000000000FF30
10FF200000FF3000000000FF20
00F0601040FF2000000060F000
0060E0F0E08000C0FFFFE06000
ENDCHAR
STARTCHAR  304B
ENCODING  12363
SWIDTH  1000 0
DWIDTH  14 0
BBX  13 12 1 -1
BITMAP
000030F0000000000000000000
001060E0100000003080000000
80FFFFFFFFFFE04030FF000000
0000A0A0000080E000FF200000
0000C080000020FF00E0400000
0000E040000020FF00A0800000
0000FF30000010FF0080A00000
0020FF10000010FF0060C00000
0040E000000020FF0030F01000
0060C000000060E00000E0FF30
A0F06060FFFFF0600000001000
00000000000000000000000000
ENDCHAR
STARTCHAR  304C
ENCODING  12364
SWIDTH  1000 0
DWIDTH  14 0
BBX  13 13 1 -1
BITMAP
00001020000000101010100000
000080E000000020C080800000
0010A0A010000000A060C04000
E0FFFFFFFFFFE0400010000000
0000E060000080E040C0000000
0000FF40000020FF10F0000000
0020FF20000020FF00E0300000
0040F000000010FF00A0600000
0060E000000010FF0080A00000
00A0C000000020FF0040E01000
00C08000000060E00010E0FF40
FFE03080FFFFF0600000001000
00000000000000000000000000
ENDCHAR
STARTCHAR  304D
ENCODING  12365
SWIDTH  1000 0
DWIDTH  14 0
BBX  12 12 1 0
BITMAP
000000001010000000000000
0000000060F0200000000000
00FFFFFFFFFFFFFFFFFFFF40
000000000010C0A000000000
40FFFFFFFFFFFFFFFFFFFFFF
0000000000000040FF300000
0000000000000000C0E00000
0060E0F0F0F0FFF0E0FF8000
00F060000000000000101000
00FF20000000000000000000
00F060000000000000000000
0060E0FFFFFFFFFFFFFFFFA0
ENDCHAR
STARTCHAR  304E
ENCODING  12366
SWIDTH  1000 0
DWIDTH  14 0
BBX  13 12 1 0
BITMAP
00000000303000000020101000
0020202060FF402020E040E000
00E0E0E0E0E0FFE0E060A0A060
000000000000A0C00000000000
40FFFFFFFFFFFFFFFFFFFFFF00
0000000000000040FF40000000
0000000000000000C0E0100000
0060E0F0F0F0FFF0E0FFA00000
00F06000000000000010100000
00FF2000000000000000000000
00F06000000000000000000000
0060E0FFFFFFFFFFFFFFFFA000
ENDCHAR
STARTCHAR  304F
ENCODING  12367
SWIDTH  1000 0
DWIDTH  14 0
BBX  13 13 1 -1
BITMAP
00000000000000000000000000
00000000000000104080C0F000
0000002060A0E0FFE080401000
0040E0F0C08040100000000000
10F06000000000000000000000
20FF0000000000000000000000
30FF0000000000000000000000
30FF0000000000000000000000
10FF4000000000000000000000
0080F0C0804000000000000000
00001060A0E0F0C08040100000
0000000000001060A0E0F0C010
00000000000000000000106010
ENDCHAR
STARTCHAR  3050
ENCODING  12368
SWIDTH  1000 0
DWIDTH  14 0
BBX  13 12 1 0
BITMAP
00000000000000000000206000
0000000000003060A0E0F0A000
00003080C0F0E0A06030000000
00A0F0A0602000008080A04000
10FF20000000000020E080E030
20FF0000000000000000000000
20FF0000000000000000000000
20FF0000000000000000000000
00E08020000000000000000000
0030A0F0E0A060200000000000
000000003060A0F0E0A0603000
00000000000000002060A0E000
ENDCHAR
STARTCHAR  3051
ENCODING  12369
SWIDTH  1000 0
DWIDTH  14 0
BBX  12 13 1 -1
BITMAP
000000000000000000100000
30FF00000000000010FF2000
30FF00000000000010FF2000
30FF00000000000010FF2000
30FF00E0FFFFFFFFFFFFFFFF
30FF00000000000010FF2000
30FF00000000000010FF2000
30FF00000000000010FF2000
30FF00000000000010FF2000
30FF00000000000010FF2000
30FF00000000000060FF1000
30FF0000E0FFFFFFF0800000
104000000010100000000000
ENDCHAR
STARTCHAR  3052
ENCODING  12370
SWIDTH  1000 0
DWIDTH  14 0
BBX  14 13 1 -1
BITMAP
0000000000000000103010101000
30FF00000000000030FF80608000
30FF00000000000030FF30A0A040
30FF00000000000030FF00000000
30FF00E0FFFFFFFFFFFFFFFF0000
30FF00000000000030FF00000000
30FF00000000000030FF00000000
30FF00000000000030FF00000000
30FF00000000000030FF00000000
30FF00000000000030FF00000000
30FF00000000000080F000000000
30FF0030FFFFFFFFE06000000000
1040000010101000000000000000
ENDCHAR
STARTCHAR  3053
ENCODING  12371
SWIDTH  1000 0
DWIDTH  14 0
BBX  13 11 1 0
BITMAP
00FFFFFFFFFFFFFFFFFFFFA000
00000000000000000000000000
00000000000000000000000000
00000000000000000000000000
00000000000000000000000000
00108010000000000000000000
0080C000000000000000000000
00F04000000000000000000000
20FF1000000000000000000000
10FF4000000000000000000000
0060F0FFFFFFFFFFFFFFFFFF00
ENDCHAR
STARTCHAR  3054
ENCODING  12372
SWIDTH  1000 0
DWIDTH  14 0
BBX  13 11 1 0
BITMAP
00FFFFFFFFFFFFFFFFFFFFA000
00000000000000001000100000
0000000000000000E020E00000
000000000000000080C0A0A000
00000000000000000000000000
00108010000000000000000000
0080C000000000000000000000
00F04000000000000000000000
20FF1000000000000000000000
10FF4000000000000000000000
0060F0FFFFFFFFFFFFFFFFFF00
ENDCHAR
STARTCHAR  3055
ENCODING  12373
SWIDTH  1000 0
DWIDTH  14 0
BBX  12 11 1 0
BITMAP
000000000040C01000000000
000000000000C0A000000000
60FFFFFFFFFFFFFFFFFFFFFF
0000000000000080E0000000
0000000010101000A0800000
0040E0FFF0F0FFFFE0F02000
00E080000000000040E0C000
00FF20000000000000204010
00F030000000000000000000
00C0A0100000000000000000
0020C0F0FFFFFFFFFFFFFFC0
ENDCHAR
STARTCHAR  3056
ENCODING  12374
SWIDTH  1000 0
DWIDTH  14 0
BBX  13 12 1 0
BITMAP
000000000040C01010C040A000
000000000000C0A000A0C0E060
60FFFFFFFFFFFFFFFFFFFFFF00
0000000000000080E010000000
0000000000000010F080000000
000000001010100080F0200000
0040E0FFF0F0FFFFE0FFC00000
00E08000000000002040601000
00FF2000000000000000000000
00F03000000000000000000000
00C0A020000000000000000000
0020C0F0FFFFFFFFFFFFFFC000
ENDCHAR
STARTCHAR  3057
ENCODING  12375
SWIDTH  1000 0
DWIDTH  14 0
BBX  11 12 2 0
BITMAP
6010000000000000000000
FF20000000000000000000
FF20000000000000000000
FF20000000000000000000
FF20000000000000000000
FF2000000000000000A010
FF2000000000000000FF30
FF2000000000000000FF30
FF2000000000000000FF20
F04000000000000040FF10
A0C0200000000030E0A000
10A0F0FFFFFFFFF0A01000
ENDCHAR
STARTCHAR  3058
ENCODING  12376
SWIDTH  1000 0
DWIDTH  14 0
BBX  11 12 2 0
BITMAP
2000000000000000000000
FF20000000200020000000
FF20000000E040E0200000
FF2000000040E060C00000
FF20000000000000000000
FF20000000000000006010
FF2000000000000000FF30
FF2000000000000000FF30
FF2000000000000000FF20
F03000000000000030FF10
A0C0200000000030E0A000
10A0F0FFFFFFFFF0A01000
ENDCHAR
STARTCHAR  3059
ENCODING  12377
SWIDTH  1000 0
DWIDTH  14 0
BBX  12 12 1 0
BITMAP
000000000000000020800000
000000000000000030FF0000
80FFFFFFFFFFFFFFFFFFFFFF
000000000000000030FF0000
000000001010000030FF0000
0060F0F0F0F0F0FFF0FF0000
00F040000000000040FF2000
00F040000000000040FF3000
0060F0FFF0F0F0F0E0FF3000
000000001010000010FF3000
0000000000000010A0E00000
00A0FFFFFFFFFFF0C0300000
ENDCHAR
STARTCHAR  305A
ENCODING  12378
SWIDTH  1000 0
DWIDTH  14 0
BBX  13 12 1 0
BITMAP
00000000000000106060308000
0000000000000040F040E0A080
FFFFFFFFFFFFFFFFFFFFFF8000
0000000000000040F000000000
0000000000000040F000000000
00A0F0F0F0F0F0F0F000000000
20FF200000000040FF10000000
20FF300000000030FF20000000
0080F0F0E0E0E0E0FF20000000
0000000010100010FF10000000
0000000000001080E000000000
00C0F0F0F0F0F0C03000000000
ENDCHAR
STARTCHAR  305B
ENCODING  12379
SWIDTH  1000 0
DWIDTH  14 0
BBX  12 13 1 -1
BITMAP
000080100000000010800000
0000FF300000000030FF0000
0000FF300000000030FF0000
E0FFFFFFFFFFFFFFFFFFFFFF
0010FF301010101030FF1010
0000FF300000000030FF0000
0000FF300000000030FF0000
0000FF300000000060F00000
0000FF300080FFFFF0600000
0000FF300000000000000000
0000E0800000000000000000
000040E0FFFFFFFFFFFFFF80
000000000000000000000000
ENDCHAR
STARTCHAR  305C
ENCODING  12380
SWIDTH  1000 0
DWIDTH  14 0
BBX  13 13 1 -1
BITMAP
00002000000000002020102000
0000FF3000000000FFA080E010
0000FF3000000000FF40E080A0
E0FFFFFFFFFFFFFFFFFFFFFF00
0010FF3010101010FF30101000
0000FF3000000000FF30000000
0000FF3000000000FF20000000
0000FF3000000030FF10000000
0000FF3000FFFFFF8000000000
0000FF30000000000000000000
0000E080000000000000000000
000030E0FFFFFFFFFFFFFF6000
00000000000000000000000000
ENDCHAR
STARTCHAR  305D
ENCODING  12381
SWIDTH  1000 0
DWIDTH  14 0
BBX  12 11 1 0
BITMAP
00FFFFFFFFFFFFFFFFFF6000
00000000000040C0E0600000
0000000060E0C04000000000
001080E0A030000000000000
FFFFFFFFFFFFFFFFFFFFFF80
00001060C0E0A04010000000
0040E0A03000000000000000
00E060000000000000000000
00FF30000000000000000000
00E0A0100000000000000000
0040E0FFFFFFFFFFFFFFFF10
ENDCHAR
STARTCHAR  305E
ENCODING  12382
SWIDTH  1000 0
DWIDTH  14 0
BBX  13 11 1 0
BITMAP
0060FFFFFFFFFFFFFFFFFF0000
0000000000001080F0E0400000
000000001080F0C060E060C000
000020A0F0A030000060A0A060
80FFFFFFFFFFFFFFFFFFFFFF00
0000002080C0E0A06020000000
000060F0A04000000000000000
0000F060000000000000000000
0020FF10000000000000000000
0000F080000000000000000000
000040E0FFFFFFFFFFFFFFA000
ENDCHAR
STARTCHAR  305F
ENCODING  12383
SWIDTH  1000 0
DWIDTH  14 0
BBX  12 13 1 -1
BITMAP
000000801000000000000000
000010F00000000000000000
F0FFFFFFFFFFFFFFFFFFFFA0
000080C00000000000000000
0000A0800000000000000000
0000E0600000000000000000
0010FF30FFFFFFFFFFFFFF40
0040F0000000000000000000
0080C0000000000000000000
00A080000000000000000000
00E060000000000000000000
FFE01040FFFFFFFFFFFFFFFF
100000001010101010101010
ENDCHAR
STARTCHAR  3060
ENCODING  12384
SWIDTH  1000 0
DWIDTH  14 0
BBX  12 13 1 -1
BITMAP
0000000000000000A020A000
000000C02000000080E0A0E0
000020FF0000000000000000
E0FFFFFFFFFFFFFFFFFFFFA0
000080A00000000000000000
0000C0800000000000000000
0000F040FFFFFFFFFFFFFF30
0030FF001010101010101000
0060E0000000000000000000
00A080000000000000000000
10E060000000000000000000
FFE01060FFFFFFFFFFFFFFE0
100000001010101010101010
ENDCHAR
STARTCHAR  3061
ENCODING  12385
SWIDTH  1000 0
DWIDTH  14 0
BBX  12 12 1 -1
BITMAP
000000806000000000000000
000000F04000000000000000
A0FFFFFFFFFFFFFFFFFFFFFF
000080A00000000000000000
0000E0600000000000000000
0010FFE0F0F0F0F0FFE06000
0060F040000000000060F010
00202000000000000000FF20
00000000000000000010FF20
00000000000000000060F010
0040FFFFFFFFFFFFFFF06000
000000000000000000000000
ENDCHAR
STARTCHAR  3062
ENCODING  12386
SWIDTH  1000 0
DWIDTH  14 0
BBX  12 14 1 -1
BITMAP
000000000000000010001000
0000008040000000E020E000
000010FF3000000060C080E0
E0FFFFFFFFFFFFFFFFFFFFE0
0000A0A00000000000000000
0000F0600000000000000000
0040FF200010000000000000
0080FFE0FFF0F0FFFFE06000
00304010000000001060FF10
00000000000000000000FF30
00000000000000000000FF20
00000000000000000060FF10
0060FFFFFFFFFFFFFFF06000
000000000000000000000000
ENDCHAR
STARTCHAR  3063
ENCODING  12387
SWIDTH  1000 0
DWIDTH  14 0
BBX  11 9 1 0
BITMAP
00E0E0E0E0E0E0E0A01000
0000000000000010A0A000
000000000000000010F000
000000000000000000F010
000000000000000000F010
000000000000000000F000
000000000000000010F000
0000000000000000A0A000
0000E0E0E0E0E0E0A01000
ENDCHAR
STARTCHAR  3064
ENCODING  12388
SWIDTH  1000 0
DWIDTH  14 0
BBX  13 11 1 0
BITMAP
60FFFFFFFFFFFFFFFFE0600000
00000000000000001040F06000
0000000000000000000060E000
0000000000000000000030FF00
0000000000000000000020FF00
0000000000000000000020FF00
0000000000000000000020FF00
0000000000000000000030F000
0000000000000000000080C000
00000000000000001060F04000
0000FFFFFFFFFFFFFFE0400000
ENDCHAR
STARTCHAR  3065
ENCODING  12389
SWIDTH  1000 0
DWIDTH  14 0
BBX  13 13 1 -1
BITMAP
00000000000000000060408020
00000000000000000040E080E0
80FFFFFFFFFFFFFFFFE0800000
00000000000000000030E0A000
0000000000000000000040F000
0000000000000000000020FF00
0000000000000000000020FF00
0000000000000000000020FF00
0000000000000000000030F000
0000000000000000000080C000
00000000000000001060F04000
0020FFFFFFFFFFFFFFC0400000
00000000000000000000000000
ENDCHAR
STARTCHAR  3066
ENCODING  12390
SWIDTH  1000 0
DWIDTH  14 0
BBX  12 12 1 -1
BITMAP
60FFFFFFFFFFFFFFFFFFFFFF
001010101080E0E080402000
00000060F0A0300000000000
000060F04000000000000000
0000E0600000000000000000
0020FF100000000000000000
0030FF000000000000000000
0020FF000000000000000000
0010FF400000000000000000
0000A0E04010000000000000
00000080E0FFFFF0F0F0F060
000000000000101010101000
ENDCHAR
STARTCHAR  3067
ENCODING  12391
SWIDTH  1000 0
DWIDTH  14 0
BBX  12 12 1 -1
BITMAP
FFFFFFFFFFFFFFFFFFFFFF60
1010101060E0E0A040200000
000030E0C0400060A0608000
0030F06000000000C080C060
00C080000000000000000000
00F030000000000000000000
10FF20000000000000000000
10FF20000000000000000000
00F040000000000000000000
00A0E0401000000000000000
000080E0FFFFFFF0F0F0E000
000000000010101010101000
ENDCHAR
STARTCHAR  3068
ENCODING  12392
SWIDTH  1000 0
DWIDTH  14 0
BBX  12 13 1 -1
BITMAP
000000003010000000000000
00000000C0A0000000000000
0000000060F0100000000000
0000000010F0600000000000
0010A0F0FFFFFFFFFFFFFFA0
00C0C0300000000000000000
20FF20000000000000000000
30FF00000000000000000000
30FF00000000000000000000
10FF10000000000000000000
00C0C0200000000000000000
0010A0F0FFFFF0F0F0F0F080
000000001010101010201010
ENDCHAR
STARTCHAR  3069
ENCODING  12393
SWIDTH  1000 0
DWIDTH  14 0
BBX  12 13 1 -1
BITMAP
000000001000000010001000
00000000C0A00000E040F010
0000000060F0000060C080C0
0000000010F0600000000000
0010A0F0FFFFFFFFFFFFFF80
00C0C0300000000000000000
10FF20000000000000000000
30FF00000000000000000000
30FF00000000000000000000
10FF20000000000000000000
00A0C0300000000000000000
001080E0FFFFF0F0F0F0F0A0
000000000000101010101000
ENDCHAR
STARTCHAR  306A
ENCODING  12394
SWIDTH  1000 0
DWIDTH  14 0
BBX  12 13 1 -1
BITMAP
000000C02000000000000000
000040F000000040A0100000
C0FFFFFFFFFFFF00E0A01000
0000C0800000000020E0FFE0
0000F0400000000000000000
0030FF100000000000E02000
0060E0000000000000FF2000
00A0A00060E0FFFFFFFFFFFF
00E06000E080000000FF2000
E0E01000FF30000000FF2000
00000000E060000040FF1000
0000000040E0F0F0F0800000
000000000000001000000000
ENDCHAR
STARTCHAR  306B
ENCODING  12395
SWIDTH  1000 0
DWIDTH  14 0
BBX  12 12 1 -1
BITMAP
FF2000101010101010101000
FF2000E0FFFFFFFFFFFFFF00
FF2000000000000000000000
FF2000000000000000000000
FF2000000000000000000000
FF2000000000000000000000
FF2000206000000000000000
FF200080C000000000000000
FF2000E06000000000000000
FF2020FF2010101010101010
FF2000C0FFFFFFFFFFFFFFC0
A01000000000000000000000
ENDCHAR
STARTCHAR  306C
ENCODING  12396
SWIDTH  1000 0
DWIDTH  14 0
BBX  13 13 0 -1
BITMAP
00000000000000003020000000
0000E02000000020FF40000000
0000C060000000A0E000000000
0030E0FFFFFFFFFFFFFFE04000
00E0A0F00000C0C0001080E000
00FF30E04060FF30000020FF10
10FF20A0C0F0A000000020FF10
10FF2040FFF060F0FFFFFFFFE0
00FF2010FF80E060000020FF10
00FF2060F010FF30000030FF10
00F060E08000E060000080F000
00A0FFA0000040E0FFFFE04000
00000000000000000000000000
ENDCHAR
STARTCHAR  306D
ENCODING  12397
SWIDTH  1000 0
DWIDTH  14 0
BBX  13 12 1 -1
BITMAP
000030FF000000000000000000
000030FF000010101000000000
80FFFFFF60E0FFFFFFE0600000
001030FFA03000000060FF1000
000030FF000000000000FF2000
000040FF000000000000F03000
0000E0FF000080F0FFFFFFFF00
0080E0FF0020FF300000FF3000
E0F060FF0030FF000000FF2000
000030FF0020FF300060F00000
000030FF0000A0FFFFF0600000
000010A0000000001000000000
ENDCHAR
STARTCHAR  306E
ENCODING  12398
SWIDTH  1000 0
DWIDTH  14 0
BBX  13 13 0 -1
BITMAP
00000000000010100000000000
0010A0E0FFFFFFFFFFF0C02000
00A0E030100060E00020A0E000
00F040000000E060000020FF10
10FF20000030F010000000FF20
10FF200000A08000000000F030
10FF200010F02000000000F030
10FF200080A00000000000F030
00FF2010F0300000000000FF20
00F03080C0000000000020FF10
00E060F0300000000010A0C000
0080FF800000C0FFFFFFA01000
00000000000010101000000000
ENDCHAR
STARTCHAR  306F
ENCODING  12399
SWIDTH  1000 0
DWIDTH  14 0
BBX  13 13 1 -1
BITMAP
00400000000000000040000000
20FF00000000000020FF000000
20FF00000000000020FF000000
20FF00E0FFFFFFFFFFFFFFFF00
20FF00000000000020FF000000
20FF00000000000020FF000000
20FF00000000000020FF000000
20FF000060F0FFFFFFFFFFFF30
20FF0000F060000020FF000000
20FF0010FF10000020FF000000
20FF0000F060000060F0000000
20FF000060F0FFFFE060000000
00400000000000000000000000
ENDCHAR
STARTCHAR  3070
ENCODING  12400
SWIDTH  1000 0
DWIDTH  14 0
BBX  13 13 1 -1
BITMAP
10A0000000000000A060308000
10FF000000000000FF8080E020
10FF000000000000FF30C08060
10FF00E0FFFFFFFFFFFFFFFF00
10FF000000000000FF20000000
10FF000000000000FF20000000
10FF000000000000FF20000000
10FF000080F0FFFFFFFFFFFF30
10FF0010FF400000FF20000000
10FF0020FF100000FF20000000
10FF0010FF400030FF10000000
10FF000080F0FFF0A000000000
00000000000000000000000000
ENDCHAR
STARTCHAR  3071
ENCODING  12401
SWIDTH  1000 0
DWIDTH  14 0
BBX  13 13 1 -1
BITMAP
0000000000000000000060C040
10FF000000000000FF20E020C0
10FF000000000000FF2080E060
10FF00E0FFFFFFFFFFFFFFFF00
10FF000000000000FF20000000
10FF000000000000FF20000000
10FF000000000000FF20000000
10FF000080F0FFFFFFFFFFFF80
10FF0000FF400000FF20000000
10FF0010FF100000FF20000000
10FF0010FF400040FF10000000
10FF000080F0FFF0A000000000
10A00000000000000000000000
ENDCHAR
STARTCHAR  3072
ENCODING  12402
SWIDTH  1000 0
DWIDTH  14 0
BBX  12 13 1 -1
BITMAP
001010101000104000000000
E0FFFFFFFF0000E0A0000000
000000C080000060FF600000
000080A000000000E0F03000
0030F0100000000080E0F0E0
00A080000000000040E00000
00F030000000000010FF0000
20FF10000000000000FF2000
10FF10000000000020FF1000
00E060000000000080C00000
0060F06010002080F0300000
000060E0FFFFFFC030000000
000000001010000000000000
ENDCHAR
STARTCHAR  3073
ENCODING  12403
SWIDTH  1000 0
DWIDTH  14 0
BBX  13 13 1 -1
BITMAP
00000000000000100030103000
E0FFFFFFFF0010E080A060E010
000010E080000060FF80E08080
0000A0A000000010F0F0300000
0040F01000000000A0E0F0E000
00C080000000000040E0000000
00FF30000000000010FF100000
20FF00000000000000FF200000
20FF10000000000020FF100000
00E060000000000080C0000000
0060F06010002080F040000000
000060E0FFFFFFC04000000000
00000000101000000000000000
ENDCHAR
STARTCHAR  3074
ENCODING  12404
SWIDTH  1000 0
DWIDTH  14 0
BBX  12 13 1 -1
BITMAP
00000000000010401020C060
C0FFFFFFFF0000E0A08040E0
001010C080000060FF80E0A0
0000A0C000000000E0F02000
0040F0100000000080E0F0E0
00C080000000000040E00000
00FF30000000000010FF1000
20FF00000000000000FF2000
20FF10000000000020FF1000
00E060000000000080C00000
0060F060100020A0F0300000
000060E0FFFFFFC030000000
000000001020000000000000
ENDCHAR
STARTCHAR  3075
ENCODING  12405
SWIDTH  1000 0
DWIDTH  14 0
BBX  13 11 1 0
BITMAP
0080FFFFFFFFFFFFFFFFFF0000
000000000000001080F0600000
00000000000020E0C020000000
000060400020F0800060200000
0000E0600030FF0000C0600000
0010FF200030FF000080A00000
0040F0000030FF000060E00000
0080C0000030FF000020FF1000
00C080000030FF000000E06000
80E030000060F000000060FF60
00000080FFF060000000000000
ENDCHAR
STARTCHAR  3076
ENCODING  12406
SWIDTH  1000 0
DWIDTH  14 0
BBX  14 12 0 -1
BITMAP
0000FFFFFFFFFFFFFFFFA060C000
0000000000000030F08040C08060
00000000000030F0800000000000
000020600000F080004040000000
000080A00000FF300080C0000000
0000C0600000FF300040F0000000
0000F0300000FF300010FF200000
0030F0000000FF300000E0600000
0080C0000000FF300000A0A00000
60F060000020FF20000030F08000
00000060FFFFA000000000000000
0000000010000000000000000000
ENDCHAR
STARTCHAR  3077
ENCODING  12407
SWIDTH  1000 0
DWIDTH  14 0
BBX  13 13 1 -1
BITMAP
00000000000000000030C06000
00A0FFFFFFFFFFFFFFFF20E000
0000000000000040F080E0A000
00000000000040F04000000000
000060400010F0600080000000
0000E0600020FF0000E0400000
0010FF200020FF0000A0800000
0040E0000020FF000060C00000
0080A0000020FF000020F00000
00C080000020FF000000E04000
A0E020000060F000000060F080
000000A0FFF060000000000000
00000000000000000000000000
ENDCHAR
STARTCHAR  3078
ENCODING  12408
SWIDTH  1000 0
DWIDTH  14 0
BBX  13 8 1 1
BITMAP
000000C0F04000000000000000
000030FFA0F030000000000000
0000A0A000A0E0200000000000
0020FF300000C0E01000000000
10A0C000000010E0C010000000
F0E0300000000010E0C0100000
000000000000000020C0FFFF10
00000000000000000000001000
ENDCHAR
STARTCHAR  3079
ENCODING  12409
SWIDTH  1000 0
DWIDTH  14 0
BBX  13 9 1 1
BITMAP
00000000000000101010100000
000000A0E0200040E060A00000
000020FFC0E02000A080C08000
0000A0C000C0E0100000000000
0020FF400010C0E01000000000
10A0C000000010E0C010000000
F0E0300000000010E0C0100000
000000000000000020E0FFFF10
00000000000000000000001000
ENDCHAR
STARTCHAR  307A
ENCODING  12410
SWIDTH  1000 0
DWIDTH  14 0
BBX  13 9 1 1
BITMAP
00000010100000000000000000
000000C0F040000080E0600000
000030FFA0F03000E020C00000
0000A0A000A0E02060C0400000
0020FF300000C0E01000000000
1080C000000010C0E010000000
F0E0300000000010E0C0100000
000000000000000020C0FFFF30
00000000000000000000001000
ENDCHAR
STARTCHAR  307B
ENCODING  12411
SWIDTH  1000 0
DWIDTH  14 0
BBX  13 12 1 -1
BITMAP
30FF0000FFFFFFFFFFFFFFC000
30FF00000000000030FF000000
30FF00000000000030FF000000
30FF00F0FFFFFFFFFFFFFFFF00
30FF00000000000030FF000000
30FF00000000000030FF000000
30FF000060F0FFFFFFFFFFFF20
30FF0010FF40000030FF000000
30FF0020FF00000030FF000000
30FF0000F040000080E0000000
30FF000060F0FFFFE040000000
10A00000000000000000000000
ENDCHAR
STARTCHAR  307C
ENCODING  12412
SWIDTH  1000 0
DWIDTH  14 0
BBX  14 12 1 -1
BITMAP
20FF0020FFFFFFFFFFFF40100000
20FF000000000000FF30E0808000
20FF000000000000FF30A080E000
20FF00FFFFFFFFFFFFFFFFFF0000
20FF000000000000FF3000000000
20FF000000000000FF3000000000
20FF000080F0FFFFFFFFFFFF6000
20FF0010FF400000FF3000000000
20FF0020FF000000FF2000000000
20FF0010FF400040FF1000000000
20FF000080F0F0F0600000000000
10A0000000000000000000000000
ENDCHAR
STARTCHAR  307D
ENCODING  12413
SWIDTH  1000 0
DWIDTH  14 0
BBX  13 13 1 -1
BITMAP
0000000000000000000080C030
20FF0000FFFFFFFFFFFFE020C0
20FF000000000000FF40C0E060
20FF000000000000FF30000000
20FF00FFFFFFFFFFFFFFFFFF00
20FF000000000000FF30000000
20FF000000000000FF30000000
20FF000060F0FFFFFFFFFFFFA0
20FF0000F0400000FF30000000
20FF0020FF100000FF20000000
20FF0000F0400040FF10000000
20FF000060F0FFF08000000000
10800000000010000000000000
ENDCHAR
STARTCHAR  307E
ENCODING  12414
SWIDTH  1000 0
DWIDTH  14 0
BBX  12 13 1 -1
BITMAP
000000000010600000000000
000000000030FF0000000000
00FFFFFFFFFFFFFFFFFFFF60
000000000030FF0000000000
000000000030FF0000000000
60FFFFFFFFFFFFFFFFFFFFFF
000000000030FF0000000000
000000000030FF0000000000
0080F0FFFFFFFFFFFFFFFF80
00FF40000030FF0000000000
00F040000040FF0000000000
0060F0FFFFF0800000000000
000000000000000000000000
ENDCHAR
STARTCHAR  307F
ENCODING  12415
SWIDTH  1000 0
DWIDTH  14 0
BBX  14 12 0 -1
BITMAP
0000FFFFFFFFFFFF000000000000
00001010101080E0000000806000
000000000000E080000010F04000
000000000020FF30000040F00000
000000101080E0101010A0A01000
0060F0FFFFFFFFFFFFFFFFFFFF00
00F0600030FF20000040F0000000
00FF200080C0000000A0A0000000
00FF2000F060000010F040000000
00FF3060FF10000060F000000000
00A0FFF06000C0FFF06000000000
0000000000001010000000000000
ENDCHAR
STARTCHAR  3080
ENCODING  12416
SWIDTH  1000 0
DWIDTH  14 0
BBX  13 13 1 -1
BITMAP
00000000008010000000000000
0000000000FF30000000000000
60FFFFFFFFFFFFFFFFFFFFFF00
0000000000FF30001000000000
0000001000FF3010F060000000
0080F0FFFFFF300080E0100000
00F0600010F0400000E0800000
00FF200000E040000030E0FF00
00E0600020F030000000000000
0060F0FFFFC00000000020C000
00000000F0400000000060E000
00000000A0F0FFFFFFFFE06000
00000000000000001000000000
ENDCHAR
STARTCHAR  3081
ENCODING  12417
SWIDTH  1000 0
DWIDTH  14 0
BBX  13 12 0 -1
BITMAP
0000E06000000000A080000000
000080C000000020FF20000000
0000A0FFFFF0F0FFFFF0C02000
0080E0E0800000E06020A0E000
00E06060E00040E0000010FF20
00FF2010F030A080000000F030
00FF2000A0A0F020000000F030
00FF200040FFC000000000F030
00F0200000F04000000000FF10
00C0800060E00000001080E000
0020A0FFE04020FFFFF0C03000
00000000000000000000000000
ENDCHAR
STARTCHAR  3082
ENCODING  12418
SWIDTH  1000 0
DWIDTH  14 0
BBX  12 12 1 -1
BITMAP
000000E02000000000000000
001010FF3010101010101000
40FFFFFFFFFFFFFFFFFFFF00
000000FF3000000000000000
000000FF30000000000020E0
A0FFFFFFFFFFFFFFFF0020FF
001010FF30101010100020FF
000000FF30000000000020FF
000000FF30000000000030FF
000000E0800000000020A0C0
00000060F0FFFFFFFFF0C020
000000000010100000000000
ENDCHAR
STARTCHAR  3083
ENCODING  12419
SWIDTH  1000 0
DWIDTH  14 0
BBX  11 10 1 -1
BITMAP
0020A00030800000000000
0000F01010F00000000000
10E0F0E0E0F0E0E0E04000
0000808000A0600040E000
000060A00060A00000FF00
000020E00010E0C000FF00
000000E01000000040E000
000000A04060E0E0E04000
0000008080000000000000
0000002040000000000000
ENDCHAR
STARTCHAR  3084
ENCODING  12420
SWIDTH  1000 0
DWIDTH  14 0
BBX  12 13 1 -1
BITMAP
000000000030300000000000
0020E0000060C00000000000
0000F0300030FF1000000000
60FFFFFFFFFFFFFFFFF0C020
0000A0A00000A0800010A0C0
000060E0000060C0000030F0
000030FF000030FF100020FF
000000F0300000A0FF4020FF
000000C060000000000040F0
00000080A00000000010A0A0
00000060E00080FFFFF0C020
00000030FF00000000000000
000000003000000000000000
ENDCHAR
STARTCHAR  3085
ENCODING  12421
SWIDTH  1000 0
DWIDTH  14 0
BBX  9 10 3 0
BITMAP
000000002000000000
00000000FF00000000
F060C0E0FFE0E0A020
FF801000FF001080C0
F0000000FF000000F0
F0000000FF000000F0
FF600000FF000060E0
F0A0E0E0FFE0E0E040
F0000010FF10100000
E000E0E0A000000000
ENDCHAR
STARTCHAR  3086
ENCODING  12422
SWIDTH  1000 0
DWIDTH  14 0
BBX  13 12 1 0
BITMAP
00000000000010800000000000
30FF0000000030FF0000000000
30FF40A0E0F0FFFFFFF0A02000
30FFE060200030FF0020C0C000
30FF1000000030FF000040F000
30FF0000000030FF000020FF00
30FF0000000030FF000020FF00
30FF3000000030FF000040F000
30FFF060200030FF0020C0A000
30FF40C0F0FFFFFFFFF0A01000
30FF0000000040FF0000000000
00200000C0FFF0800000000000
ENDCHAR
STARTCHAR  3087
ENCODING  12423
SWIDTH  1000 0
DWIDTH  14 0
BBX  11 10 2 -1
BITMAP
0000000000F00000000000
0000000010FF0000000000
0000000010FFE0E0E08000
0000000010FF0000000000
0000000010FF0000000000
0060E0E0E0FFE0E0E0E010
00FF200010FF0000000000
00FF100010FF0000000000
0080E0E0E0A00000000000
0000000000000000000000
ENDCHAR
STARTCHAR  3088
ENCODING  12424
SWIDTH  1000 0
DWIDTH  14 0
BBX  13 13 1 -1
BITMAP
00000000001060000000000000
000000000030FF000000000000
000000000030FF000000000000
000000000030FFFFFFFFFFA000
000000000030FF101010100000
000000000030FF000000000000
000000000030FF000000000000
00A0F0FFFFFFFFFFFFFFFFFF20
20FF30000030FF000000000000
30FF00000030FF000000000000
20FF30000060F0000000000000
00A0FFFFFFF080000000000000
00000010100000000000000000
ENDCHAR
STARTCHAR  3089
ENCODING  12425
SWIDTH  1000 0
DWIDTH  14 0
BBX  11 12 2 0
BITMAP
0060601000000000000000
0020A0F080200000000000
00000020A0F0FFFFFFFF40
C020000000000000000000
FF30000010101010000000
FF80E0FFFFFFFFFFE06000
FFE040000000000060F010
FF4000000000000000FF20
000000000000000000FF30
000000000000000000FF20
000000000000000060F010
60FFFFFFFFFFFFFFE04000
ENDCHAR
STARTCHAR  308A
ENCODING  12426
SWIDTH  1000 0
DWIDTH  14 0
BBX  10 13 2 -1
BITMAP
00000000000000000000
E02000000000000030FF
FF3000000000000030FF
FF3000000000000030FF
FF3000000000000030FF
FF3000000000000030FF
FF3000000000000030FF
F06000000000000030FF
60F0FFFFC000000030FF
000000000000000030FF
0000000000000010A0E0
0040FFFFFFFFFFFFE030
00000000000000000000
ENDCHAR
STARTCHAR  308B
ENCODING  12427
SWIDTH  1000 0
DWIDTH  14 0
BBX  13 12 1 -1
BITMAP
60FFFFFFFFFFFFFFFFFFFFFF00
00000060F02000000000000000
000030F0400010100000000000
0010E0E0E0FFFFF0FFF0C02000
00A0E060200000000020A0C000
20A0200000000000000030FF00
0040E0FFFFFFFFFFFFFFFFFF10
00E0600000000000000030FF00
00FF300000000000000040F000
00E08000000000000010C0C000
0040E0FFFFFFFFFFFFFFC02000
00000000001010100000000000
ENDCHAR
STARTCHAR  308C
ENCODING  12428
SWIDTH  1000 0
DWIDTH  14 0
BBX  13 12 0 -1
BITMAP
00000020FF1000000000000000
00000020FF30A0E0FFF0600000
00C0FFFFFFF080300060F00000
00101020FF4000000000FF2000
00000020FF1000000000FF2000
00000060FF1000000000FF2000
000010F0FF1000000000FF2000
0000A0C0FF1000000000FF2000
10FFE030FF1000000000FF2000
00100020FF1000000000FF4000
00000020FF1000000000A0FFC0
00000010A01000000000000010
ENDCHAR
STARTCHAR  308D
ENCODING  12429
SWIDTH  1000 0
DWIDTH  14 0
BBX  13 12 1 -1
BITMAP
40FFFFFFFFFFFFFFFFFFFFFF00
0000000000A0F0200000000000
0000000080F030000000000000
00000060FF4010100000000000
000040FFF0F0FFFFFFF0C03000
0040F0C040100000001080E000
0080600000000000000020FF10
0000000000000000000020FF10
0000000000000000000020FF00
0000000000000000000080E000
0060FFFFFFFFFFFFFFFFE04000
00001010101010101010000000
ENDCHAR
STARTCHAR  308E
ENCODING  12430
SWIDTH  1000 0
DWIDTH  14 0
BBX  10 10 1 -1
BITMAP
000000F0000000000000
000000F040C0E0E0E030
00E0E0FFE030000060E0
000000F01000000000F0
000000F00000000000F0
000080FF0000000000F0
0030E0F00000000000F0
40E040F00000000040E0
000000F00060E0E0E040
00000020000000000000
ENDCHAR
STARTCHAR  308F
ENCODING  12431
SWIDTH  1000 0
DWIDTH  14 0
BBX  12 12 1 -1
BITMAP
000020FF1000000000000000
000020FF30A0E0FFFFC02000
A0FFFFFFF080200010A0E000
101030FF400000000010FF20
000020FF100000000000FF30
000060FF100000000000FF30
0010F0FF100000000000FF30
00A0C0FF100000000000FF30
F0E030FF100000000010FF10
100020FF100010101080E000
000020FF1020FFFFFFE03000
000010A00000000000000000
ENDCHAR
STARTCHAR  3090
ENCODING  12432
SWIDTH  1000 0
DWIDTH  14 0
BBX  13 12 0 -1
BITMAP
0010F0F0F0F0FFFF0000000000
000000000010FFA00000000000
000000000080E0100000000000
0020A0F0FFFFFFFFF0E0A02000
00C0A02030E000000020C0E000
00F0300080800000000020FF10
00FF2000E0300000000000FF20
00FF2040E00060E0F0F0F0FF20
00FF20A08000F040000010FF10
00F060F01000F040000060E000
0080F080000060F0FFF0C03000
00000000000000000000000000
ENDCHAR
STARTCHAR  3091
ENCODING  12433
SWIDTH  1000 0
DWIDTH  14 0
BBX  13 12 1 -1
BITMAP
00FFFFFFFFFFFFFFFFFFFFC000
0000000040F060000000000000
00000080FF6010100000000000
0000A0FFFFF0F0F0FFF0600000
10C0E060200000000060FF1000
00000040300000000000FF2000
000000F0E01000000060FF1000
000010F0E0F0F0F0FFF0600000
0000A0F0E0F0A080E0F0800000
0040FF801020F0A01060FF4000
10E060000000C0800000F0C000
30600000000030400000406000
ENDCHAR
STARTCHAR  3092
ENCODING  12434
SWIDTH  1000 0
DWIDTH  14 0
BBX  13 13 1 -1
BITMAP
00000000206000000000000000
00000000C0A000000000000000
60FFFFFFFFFFFFFFFFFFFFFF00
000000A0A00000000000000000
000030FF400000000000000000
0000A0FFC0F0FFF08000000000
0020FFC040100030FF20000000
00A0E00040E0FFFFFFFFFFC000
10F04000E0800000FF20000000
20400000FF300000A010000000
00000000E08000000000000000
0000000040E0FFFFF0F0F0F000
00000000000000001010100000
ENDCHAR
STARTCHAR  3093
ENCODING  12435
SWIDTH  1000 0
DWIDTH  14 0
BBX  13 13 1 -1
BITMAP
00000020200000000000000000
000000C0800000000000000000
000010FF200000000000000000
000060E0000000000000000000
0000A0A0000000000000000000
0000F0A0E0FFF0600000000000
0040FFC0401040FF0000108000
0080C000000010FF100020FF00
00E06000000010FF100020FF00
20FF1000000010FF100030F000
60C00000000010FF400080E000
C080000000000080F0FFE06000
10000000000000000000000000
ENDCHAR
STARTCHAR  30A1
ENCODING  12449
SWIDTH  1000 0
DWIDTH  14 0
BBX  10 9 2 0
BITMAP
E0E0E0E0E0E0E0E0E030
0000000000000000E020
0000000080200010E000
00000000F0200040A000
00000000FF1000A06000
00000010FFE0E0A01000
00000020E00000000000
00000040E00000000000
00E0E0E0600000000000
ENDCHAR
STARTCHAR  30A2
ENCODING  12450
SWIDTH  1000 0
DWIDTH  14 0
BBX  12 12 1 -1
BITMAP
80FFFFFFFFFFFFFFFFFFFFFF
0000000000000000000060E0
00000000006020000000A0A0
0000000000F040000000E060
0000000000FF30000030FF10
0000000020FF30101080C000
0000000030FFFFFFFFE03000
0000000040FF000000000000
0000000060E0000000000000
00000000A0C0000000000000
0080FFFFE040000000000000
000000000000000000000000
ENDCHAR
STARTCHAR  30A3
ENCODING  12451
SWIDTH  1000 0
DWIDTH  14 0
BBX  10 11 2 -1
BITMAP
00000000000000002020
0000000000000080E030
000000000010C0C01000
0000000030E080000000
00000060E0FF00000000
40E0E0C020FF00000000
0000000000FF00000000
0000000000FF00000000
0000000000FF00000000
0000000000FF00000000
00000000002000000000
ENDCHAR
STARTCHAR  30A4
ENCODING  12452
SWIDTH  1000 0
DWIDTH  14 0
BBX  13 13 1 -1
BITMAP
00000000000000000010606000
000000000000000020E0E02000
0000000000000060F0A0100000
000000000000A0F06000000000
0000000020E0FF300000000000
00000060F0C0FF000000000000
80FFFFE06030FF000000000000
101010000030FF000000000000
000000000030FF000000000000
000000000030FF000000000000
000000000030FF000000000000
000000000030FF000000000000
00000000001060000000000000
ENDCHAR
STARTCHAR  30A5
ENCODING  12453
SWIDTH  1000 0
DWIDTH  14 0
BBX  10 9 2 0
BITMAP
0000000000A000000000
0000000010FF00000000
10FFF0F0F0F0F0F0F0FF
10FF00000000000000FF
10FF00000000000000FF
10FF00000000000000FF
000000000000000000FF
000000000000000040F0
000010F0F0F0F0F0E060
ENDCHAR
STARTCHAR  30A6
ENCODING  12454
SWIDTH  1000 0
DWIDTH  14 0
BBX  12 13 1 -1
BITMAP
000000000000000000000000
000000000030FF0000000000
001010101030FF1010101010
20FFFFFFFFFFFFFFFFFFFFFF
20FF000000000000000020FF
20FF000000000000000020FF
20FF000000000000000020FF
20FF000000000000000020FF
0020000000000000000020FF
0000000000000000000020FF
0000000000000000000080E0
000000C0FFFFFFFFFFFFE040
000000001010101010000000
ENDCHAR
STARTCHAR  30A7
ENCODING  12455
SWIDTH  1000 0
DWIDTH  14 0
BBX  10 9 2 0
BITMAP
00E0E0E0E0E0E0E0E080
0000000000F000000000
0000000000F000000000
0000000000F000000000
0000000000F000000000
0000000000F000000000
0000000000F000000000
0000000000F000000000
60E0E0E0E0FFE0E0E0E0
ENDCHAR
STARTCHAR  30A8
ENCODING  12456
SWIDTH  1000 0
DWIDTH  14 0
BBX  12 11 1 0
BITMAP
00FFFFFFFFFFFFFFFFFFFFA0
001010101030FF1010101000
000000000030FF0000000000
000000000030FF0000000000
000000000030FF0000000000
000000000030FF0000000000
000000000030FF0000000000
000000000030FF0000000000
000000000030FF0000000000
001010101030FF1010101010
A0FFFFFFFFFFFFFFFFFFFFFF
ENDCHAR
STARTCHAR  30A9
ENCODING  12457
SWIDTH  1000 0
DWIDTH  14 0
BBX  10 10 2 0
BITMAP
00000000000000200000
00000000000000FF0000
00000000000000FF0000
E0F0F0F0F0F0F0FFF030
000000E0400000FF0000
000030E0000000FF0000
0000A080000000FF0000
0000F030000000FF0000
0060E000000010F00000
E0F04000C0E0F0A00000
ENDCHAR
STARTCHAR  30AA
ENCODING  12458
SWIDTH  1000 0
DWIDTH  14 0
BBX  12 12 1 -1
BITMAP
0000000000000000FF300000
1010101010101010FF301000
F0FFFFFFFFFFFFFFFFFFFF80
00000080A0000000FF300000
000000E060000000FF300000
000020FF10000000FF300000
000060E000000000FF300000
0000A08000000000FF300000
0000F04000000000FF300000
1060F00000000040FF100000
FFF06000A0FFFFF080000000
000000000010100000000000
ENDCHAR
STARTCHAR  30AB
ENCODING  12459
SWIDTH  1000 0
DWIDTH  14 0
BBX  12 13 1 -1
BITMAP
000000001000000000000000
00000000F040000000000000
10101030FF10101010101000
E0FFFFFFFFFFFFFFFFFFFF30
000000A0800000000000FF30
000000F0400000000000FF30
000030FF100000000000FF30
000080C0000000000000FF30
0000C080000000000000FF30
0000F040000000000000FF20
0060F000000000000060FF10
F0F0600000C0FFFFFFF08000
000000000010101010000000
ENDCHAR
STARTCHAR  30AC
ENCODING  12460
SWIDTH  1000 0
DWIDTH  14 0
BBX  13 13 1 -1
BITMAP
00000000000000001000100000
00000000E0400000A060E04000
00000040F010000030E060E010
E0FFFFFFFFFFFFFFFFFFFF3000
101010E0801010101010FF3000
000010FF300000000000FF3000
000040F0000000000000FF3000
000080C0000000000000FF3000
0000C080000000000000FF3000
0010FF30000000000000FF2000
0060F000000000000060FF1000
FFFF800000E0FFFFFFF0600000
10000000001010101000000000
ENDCHAR
STARTCHAR  30AD
ENCODING  12461
SWIDTH  1000 0
DWIDTH  14 0
BBX  12 13 1 -1
BITMAP
000000001040000000000000
0000000020FF100000000000
0000000000FF300000000000
10FFFFFFFFFFFFFFFFFFFF60
0000000000C0800000000000
0000000000A0800000000000
000000000080A00000000000
000000000060E00000000000
80FFFFFFFFFFFFFFFFFFFFFF
000000000020FF1000000000
000000000000F03000000000
000000000000E06000000000
000000000000806000000000
ENDCHAR
STARTCHAR  30AE
ENCODING  12462
SWIDTH  1000 0
DWIDTH  14 0
BBX  12 13 1 -1
BITMAP
000000000000001010100000
0000000080800060A0808000
0000000060C00010C080C040
80FFFFFFFFFFFFFFFFFFFF00
0000000020FF100000000000
0000000000FF200000000000
0000000000E0400000000000
0000000000C0600000000000
FFFFFFFFFFFFFFFFFFFFFF80
000000000080A00000000000
000000000060C00000000000
000000000040F00000000000
000000000010C01000000000
ENDCHAR
STARTCHAR  30AF
ENCODING  12463
SWIDTH  1000 0
DWIDTH  14 0
BBX  12 12 1 0
BITMAP
00000030A000000000000000
000000A0A000000000000000
000010F0FFFFFFFFFFFFFFA0
000060C0000000000000E080
0000E060000000000040F010
0030F0100000000000A0A000
10A0A0000000000010FF3000
C0E020000000000080E00000
0000000000000000E0600000
0000000000000040F0000000
00000000000040E080000000
00A0FFFFFFFFE08000000000
ENDCHAR
STARTCHAR  30B0
ENCODING  12464
SWIDTH  1000 0
DWIDTH  14 0
BBX  13 12 1 0
BITMAP
00000000000000002000200000
00000060E0000000C040E03000
000000E08000000040C060E000
000040FFFFFFFFFFFFFFFFA000
0000A0A0000000000000E06000
0020FF20000000000040F01000
10A0C0000000000000C0800000
C0E030000000000030F0100000
0000000000000000A080000000
0000000000000020F020000000
00000000000020C0A000000000
00A0FFFFFFFFF0A01000000000
ENDCHAR
STARTCHAR  30B1
ENCODING  12465
SWIDTH  1000 0
DWIDTH  14 0
BBX  13 12 0 0
BITMAP
00000000000000000000000000
00000080C00000000000000000
000000E0800000000000000000
000030FFFFFFFFFFFFFFFFFFF0
000080E0000000000010FF3000
0010E060000000000060E00000
20FFE0100000000000A0A00000
001000000000000000F0400000
000000000000000040F0000000
000000000000000080C0000000
0000000000000030F060000000
000080FFFFFFFFF08000000000
ENDCHAR
STARTCHAR  30B2
ENCODING  12466
SWIDTH  1000 0
DWIDTH  14 0
BBX  12 12 1 0
BITMAP
000000000000000010001000
000030FF10000000C040E030
000080C00000000040C060E0
0000E0FFFFFFFFFFFFFFFFF0
0030FF200000000000F06000
00A0C0000000000030FF1000
E0F040000000000080C00000
1000000000000000E0800000
0000000000000010FF200000
0000000000000060E0000000
00000000000020E080000000
0080FFFFFFFFF0A010000000
ENDCHAR
STARTCHAR  30B3
ENCODING  12467
SWIDTH  1000 0
DWIDTH  14 0
BBX  13 11 0 0
BITMAP
10FFFFFFFFFFFFFFFFFFFFFF30
0000000000000000000000FF30
0000000000000000000000FF30
0000000000000000000000FF30
0000000000000000000000FF30
0000000000000000000000FF30
0000000000000000000000FF30
0000000000000000000000FF30
0000000000000000000010FF20
00000000000000000010A0E000
00F0FFFFFFFFFFFFFFFFE03000
ENDCHAR
STARTCHAR  30B4
ENCODING  12468
SWIDTH  1000 0
DWIDTH  14 0
BBX  13 14 0 -1
BITMAP
00000000000000001020101000
000000000000000010F040E010
00FFFFFFFFFFFFFFFFFFFFFFA0
0000000000000000000000FF30
0000000000000000000000FF30
0000000000000000000000FF30
0000000000000000000000FF30
0000000000000000000000FF30
0000000000000000000000FF30
0000000000000000000000FF30
0000000000000000000010FF20
0000000000000000001080F010
00FFFFFFFFFFFFFFFFFFE04000
00000000000000000000000000
ENDCHAR
STARTCHAR  30B5
ENCODING  12469
SWIDTH  1000 0
DWIDTH  14 0
BBX  12 13 1 -1
BITMAP
000030000000000000300000
0000FF200000000010FF2000
0000FF200000000010FF2000
1010FF301010101010FF2010
E0FFFFFFFFFFFFFFFFFFFFFF
0000FF200000000010FF2000
0000FF200000000010FF2000
0000FF200000000010FF2000
0000FF200000000010FF2000
000020000000000010FF1000
0000000000000010A0E00000
000010FFFFFFFFFFE0300000
000000101010100000000000
ENDCHAR
STARTCHAR  30B6
ENCODING  12470
SWIDTH  1000 0
DWIDTH  14 0
BBX  13 13 1 -1
BITMAP
00003000000000004010101000
0020FF0000000010FF8080E000
0020FF0000000010FF40E08060
1030FF1010101010FF30101000
F0FFFFFFFFFFFFFFFFFFFFFF00
0020FF0000000010FF20000000
0020FF0000000010FF20000000
0020FF0000000010FF20000000
0020FF0000000010FF20000000
0000200000000010FF20000000
0000000000001080F000000000
0000FFFFFFFFFFE04000000000
00000010101000000000000000
ENDCHAR
STARTCHAR  30B7
ENCODING  12471
SWIDTH  1000 0
DWIDTH  14 0
BBX  13 13 1 -1
BITMAP
20601000000000000000000000
00C0C000000000000000000000
0010E0A0100000000000000000
000020E0FFFF60000000A0C000
40800000001000000030FF3000
10E080000000000000E0A00000
0030F0600000000060E0100000
000040E0FFFF6020F060000000
00000000000000A0C000000000
00000000000040FF3000000000
000000000030E0800000000000
40FFFFFFFFF080000000000000
00000000000000000000000000
ENDCHAR
STARTCHAR  30B8
ENCODING  12472
SWIDTH  1000 0
DWIDTH  14 0
BBX  13 13 1 -1
BITMAP
00000000000000001000100000
20E0600000000000E040E02000
0030F0801000000040E060C000
000030E0FFFF60000000A0C000
40800000101000000040FF3000
10E080000000000000E0800000
0030F0600000000080E0100000
000040E0FFFF6020F060000000
00000000000000A0C000000000
00000000000040FF2000000000
000000000030E0800000000000
40FFFFFFFFF080000000000000
00000000000000000000000000
ENDCHAR
STARTCHAR  30B9
ENCODING  12473
SWIDTH  1000 0
DWIDTH  14 0
BBX  12 12 1 -1
BITMAP
00FFFFFFFFFFFFFFFFFFC000
001010101010101030F06000
0000000000000000E0A00000
00000000000000A0E0100000
00000000000040FF30000000
000000000020F08000000000
0000000000C0FF6000000000
0000000080E060F030000000
00000040FF400080E0100000
000030F080000000C0C01000
A0FFF0A00000000010C0FFFF
001000000000000000000010
ENDCHAR
STARTCHAR  30BA
ENCODING  12474
SWIDTH  1000 0
DWIDTH  14 0
BBX  13 13 1 -1
BITMAP
00000000000000000010101000
20FFFFFFFFFFFFFFFFC0A0C030
0010101010101040F030C080C0
00000000000000E08000000000
00000000000080F01000000000
000000000020F0600000000000
0000000000A0F0000000000000
0000000040FFE0800000000000
00000000E0A030F04000000000
00000060F0100060E010000000
000030F060000000C0C0100000
A0FFF0800000000010C0FFFF00
00000000000000000000000000
ENDCHAR
STARTCHAR  30BB
ENCODING  12475
SWIDTH  1000 0
DWIDTH  14 0
BBX  12 12 1 0
BITMAP
000060100000000000000000
0000FF300000000000000000
0000FF300000102040608040
6080FFC0E0F0FFE0C0A0F060
8080FF60302000000010FF20
0000FF30000000000060E000
0000FF300000000000C08000
0000FF300000000040FF2000
0000FF300080FFFFF0600000
0000FF300000000000000000
0000E0A01000000000000000
000030C0FFFFFFFFFFFFFFA0
ENDCHAR
STARTCHAR  30BC
ENCODING  12476
SWIDTH  1000 0
DWIDTH  14 0
BBX  12 12 1 0
BITMAP
000000000000000010101000
0000E02000000010E040E010
0000FF300000000060C080A0
0000FF403040608080A0C060
C0F0FFE0C0A0A0806060F040
1000FF30000000000040E000
0000FF300000000000C08000
0000FF300000000040FF2000
0000FF300080FFFFF0600000
0000FF300000000000000000
0000E0A01000000000000000
000030C0FFFFFFFFFFFFFFA0
ENDCHAR
STARTCHAR  30BD
ENCODING  12477
SWIDTH  1000 0
DWIDTH  14 0
BBX  12 13 1 -1
BITMAP
303000000000000000002040
60E00000000000000000A0A0
10FF4000000000000010F040
00A0A000000000000060E000
0060F0000000000000C08000
0010F0800000000020FF3000
000060E0FFE0000080E00000
0000000000000000E0800000
0000000000000030FF200000
0000000000000080C0000000
00000000000060FF40000000
00A0FFFFFFFFF08000000000
000010101000000000000000
ENDCHAR
STARTCHAR  30BE
ENCODING  12478
SWIDTH  1000 0
DWIDTH  14 0
BBX  12 13 1 -1
BITMAP
303000000000000020001000
60E0000000000000E040E020
10FF40000000000040E060E0
00A0A000000000000000C060
0060F000000000000040F010
0010F0800000000000A0A000
000060E0FFF0000020FF3000
000000000000000080C00000
0000000000000010F0400000
0000000000000080E0000000
00000000000040F060000000
00A0FFFFFFFFF08000000000
000010101000000000000000
ENDCHAR
STARTCHAR  30BF
ENCODING  12479
SWIDTH  1000 0
DWIDTH  14 0
BBX  12 13 1 -1
BITMAP
000000408000000000000000
000000C08000000000000000
000030FFFFFFFFFFFFFFFF60
0000A0A0101010101030FF20
0020FF200000000000A0A000
0080C0304000000010F03000
E0E03020E0A0000080C00000
1000000020E0A010F0400000
000000000010E0E0E0000000
00000000000020FFE0200000
000000000010A0E0A0F0FFE0
60FFFFFFFFFFC02000000000
000000000000000000000000
ENDCHAR
STARTCHAR  30C0
ENCODING  12480
SWIDTH  1000 0
DWIDTH  14 0
BBX  13 13 1 -1
BITMAP
0000000000000000A040C02000
00000080E000000060E080E000
000010F0601010101010100000
000080FFFFFFFFFFFFFFFF6000
0010E060000000000030F02000
0080E0304000000000C0800000
C0F04010E0A0000040F0100000
1000000010E0C010E080000000
000000000010C0E0E010000000
00000000000010F0E030000000
00000000001080E080F0FFE000
40FFFFFFFFFFE0300000000000
00000000000000000000000000
ENDCHAR
STARTCHAR  30C1
ENCODING  12481
SWIDTH  1000 0
DWIDTH  14 0
BBX  12 12 1 -1
BITMAP
00101010101010101010C020
40FFFFFFFFFFFFFFFFFFE010
000000000030FF0000000000
000000000030FF0000000000
60FFFFFFFFFFFFFFFFFFFFFF
000000000030FF0000000000
000000000030FF0000000000
000000000030FF0000000000
000000000030FF0000000000
000000000080E00000000000
10FFFFFFFFE0400000000000
001010100000000000000000
ENDCHAR
STARTCHAR  30C2
ENCODING  12482
SWIDTH  1000 0
DWIDTH  14 0
BBX  13 12 1 -1
BITMAP
0000101010101010101030C000
0080FFFFFFFFFFFFFFFFFFA000
000000000030FF000000000000
000000000030FF000000000000
60FFFFFFFFFFFFFFFFFFFFFF10
000000000030FF000000000000
000000000030FF00A040C06000
000000000030FF0040E080F000
000000000030FF000000000000
000000000080E0000000000000
0040FFFFFFF040000000000000
00001010000000000000000000
ENDCHAR
STARTCHAR  30C3
ENCODING  12483
SWIDTH  1000 0
DWIDTH  14 0
BBX  10 10 2 0
BITMAP
20100000200000001020
80800000F000000080A0
60C00000E0300000A060
20F00000A0600000E020
00E0300060A00020F000
0060E08010E0E060C000
00000000000000A08000
00000000000000E04000
00000000000040F00000
00E0E0E0E0E0E0400000
ENDCHAR
STARTCHAR  30C4
ENCODING  12484
SWIDTH  1000 0
DWIDTH  14 0
BBX  12 12 1 0
BITMAP
603000003060000000002080
A080000030F00000000080C0
80C0000010FF20000000A080
40E0000000E040000000E040
10FF100000A080000020FF10
00E060000080C0100060E000
0060F0FF4020E0FF60A0A000
000000100000000000E06000
000000000000000010FF2000
000000000000000040F00000
0000000000000030E0800000
00F0FFFFFFFFFFE0A0100000
ENDCHAR
STARTCHAR  30C5
ENCODING  12485
SWIDTH  1000 0
DWIDTH  14 0
BBX  12 12 1 0
BITMAP
8040000040A00000A040C010
A080000030F0000060E080E0
80C0000000FF200000004060
40E0000000E040000000A080
10FF100000A080000000E040
00E060000080C0100030F000
0040F0FF4020E0FF6060C000
000000100000000000C08000
000000000000000000F03000
000000000000000040E00000
0000000000000030E0800000
00F0FFFFFFFFFFE080000000
ENDCHAR
STARTCHAR  30C6
ENCODING  12486
SWIDTH  1000 0
DWIDTH  14 0
BBX  12 11 1 0
BITMAP
20FFFFFFFFFFFFFFFFFFFF60
000000000000000000000000
000000000000000000000000
000000000000000000000000
A0FFFFFFFFFFFFFFFFFFFFFF
000000000060E00000000000
0000000000A0A00000000000
0000000000C0800000000000
0000000000E0600000000000
0000000060FF200000000000
30FFFFFFE060000000000000
ENDCHAR
STARTCHAR  30C7
ENCODING  12487
SWIDTH  1000 0
DWIDTH  14 0
BBX  12 11 1 0
BITMAP
80FFFFFFFFFFFFFFFFFFFF00
000000000000000000000000
000000000000000000000000
000000000000000000000000
FFFFFFFFFFFFFFFFFFFFFFA0
0000000000C0600000000000
0000000000F04030A0608000
0000000010FF2000E0A0E060
0000000040F0000000000000
00000010A0C0000000000000
80FFFFFFE030000000000000
ENDCHAR
STARTCHAR  30C8
ENCODING  12488
SWIDTH  1000 0
DWIDTH  14 0
BBX  10 12 3 -1
BITMAP
30FF0000000000000000
30FF0000000000000000
30FF0020C02000000000
30FF0000C08000000000
30FF000060F010000000
30FF000000E060000000
30FF00000080E0000000
30FF00000010F0600000
30FF0000000060F0FFF0
30FF0000000000001010
30FF0000000000000000
20A00000000000000000
ENDCHAR
STARTCHAR  30C9
ENCODING  12489
SWIDTH  1000 0
DWIDTH  14 0
BBX  10 13 3 -1
BITMAP
00200000000000000000
30FF00000010F030E010
30FF0000000060C080A0
30FF0020E02000000000
30FF0000C0A000000000
30FF000040F010000000
30FF000000E060000000
30FF00000060E0000000
30FF00000010F0600000
30FF0000000040E0FFF0
30FF0000000000001010
30FF0000000000000000
10800000000000000000
ENDCHAR
STARTCHAR  30CA
ENCODING  12490
SWIDTH  1000 0
DWIDTH  14 0
BBX  12 12 1 -1
BITMAP
000000000020E00000000000
000000000030FF0000000000
000000000030FF0000000000
000000000030FF0000000000
80FFFFFFFFFFFFFFFFFFFFFF
000000000030FF0000000000
000000000030FF0000000000
000000000030FF0000000000
000000000030FF0000000000
0000000010A0E00000000000
00C0FFFFFFE0300000000000
000000000000000000000000
ENDCHAR
STARTCHAR  30CB
ENCODING  12491
SWIDTH  1000 0
DWIDTH  14 0
BBX  12 11 1 0
BITMAP
00FFFFFFFFFFFFFFFFFFFFC0
001010101010101010101010
000000000000000000000000
000000000000000000000000
000000000000000000000000
000000000000000000000000
000000000000000000000000
000000000000000000000000
000000000000000000000000
001010101010101010101010
A0FFFFFFFFFFFFFFFFFFFFFF
ENDCHAR
STARTCHAR  30CC
ENCODING  12492
SWIDTH  1000 0
DWIDTH  14 0
BBX  13 12 1 -1
BITMAP
40FFFFFFFFFFFFFFFFFFFFFF00
00101010101010101010A0C000
00204000000000000030FF3000
0020E0C01000000000C0A00000
000010C0E010000060F0100000
00000010C0E02000E080000000
0000000000A0E0A0E000000000
000000000000A0FF8000000000
000000000000A0E0F060101000
000000001080F02060E0FFFF40
00E0FFFFFFE040000000000000
00000000000000000000000000
ENDCHAR
STARTCHAR  30CD
ENCODING  12493
SWIDTH  1000 0
DWIDTH  14 0
BBX  12 13 1 -1
BITMAP
000000000060100000000000
0000000000FF200000000000
E0FFFFFFFFFFFFFFFFFFFF30
101010101010101060FFA000
0000000000000080FF600000
000000000000A0F040000000
0000000010C0E08080000000
00000020E0FF3030FF300000
101040F0A0FF3000A0C01000
FFFFE06000FF300020E0FF60
0000000000FF300000000000
0000000000FF300000000000
000000000030000000000000
ENDCHAR
STARTCHAR  30CE
ENCODING  12494
SWIDTH  1000 0
DWIDTH  14 0
BBX  12 13 1 -1
BITMAP
000000000000000000006020
00000000000000000060E010
000000000000000010F06000
000000000000000080E00000
0000000000000010F0600000
0000000000000080E0000000
00000000000020F040000000
000000000000A0C000000000
000000000020FF3000000000
0000000000A0A00000000000
0000001060FF200000000000
C0FFFFFFE060000000000000
101010100000000000000000
ENDCHAR
STARTCHAR  30CF
ENCODING  12495
SWIDTH  1000 0
DWIDTH  14 0
BBX  12 13 1 -1
BITMAP
000000304000004030000000
000000A0A0000080C0000000
000000E060000040F0000000
000010FF20000010FF200000
000040E000000000E0600000
000080A000000000A0A00000
0000C0800000000060E00000
0000F0300000000020FF1000
0030F0000000000000E06000
0060C0000000000000A08000
00C08000000000000060E000
E0E02000000000000010E0FF
000000000000000000000000
ENDCHAR
STARTCHAR  30D0
ENCODING  12496
SWIDTH  1000 0
DWIDTH  14 0
BBX  13 13 1 -1
BITMAP
00000000000000000020101000
000000A0800000C080E060C000
000000E060000080C060A0A040
000010FF20000030F000000000
000040E000000000F040000000
000080A000000000C080000000
0000C0800000000080C0000000
0000F0300000000030FF100000
0030F0000000000000F0400000
0060C0000000000000C0800000
00A08000000000000080E00000
E0E02000000000000010E0FF00
00000000000000000000000000
ENDCHAR
STARTCHAR  30D1
ENCODING  12497
SWIDTH  1000 0
DWIDTH  14 0
BBX  12 13 1 -1
BITMAP
00000030400000602040C040
000000C0800000C080C020C0
000000F040000080C060E080
000020FF10000030F0000000
000060E000000000F0400000
000080A000000000C0800000
0000C0600000000080C00000
0000F0300000000030FF1000
0030F0000000000000F04000
0060C0000000000000C08000
00A08000000000000080E000
E0E02000000000000010E0FF
000000000000000000000000
ENDCHAR
STARTCHAR  30D2
ENCODING  12498
SWIDTH  1000 0
DWIDTH  14 0
BBX  12 12 1 0
BITMAP
106000000000000000000000
30FF00000000000000000000
30FF00000000000000008080
30FF0000000000000010F040
30FF0000000000000080E000
30FF00000000000040F04000
30FFFFFFFFFFFFFFF0800000
30FF00000000000000000000
30FF00000000000000000000
20FF00000000000000000000
00F060000000000000000000
0040E0FFFFFFFFFFFFFFFFE0
ENDCHAR
STARTCHAR  30D3
ENCODING  12499
SWIDTH  1000 0
DWIDTH  14 0
BBX  12 12 1 0
BITMAP
003000000000000020002000
30FF000000000000E040F010
30FF00000000000060C060C0
30FF00000000000000006060
30FF0000000000000030FF30
30FF00000000000020E08000
30FFFFFFFFFFFFFFF0800000
30FF00000000000000000000
30FF00000000000000000000
20FF00000000000000000000
00F060000000000000000000
0040E0FFFFFFFFFFFFFFFFE0
ENDCHAR
STARTCHAR  30D4
ENCODING  12500
SWIDTH  1000 0
DWIDTH  14 0
BBX  12 11 1 0
BITMAP
20FF0000000000000060E0A0
30FF00000000000000C020E0
30FF0000000000000040FFC0
30FF0000000000000040FF40
30FF00000000000020E08000
30FFFFFFFFFFFFFFF0A00000
30FF00000000000000000000
30FF00000000000000000000
20FF00000000000000000000
00F060000000000000000000
0040E0FFFFFFFFFFFFFFFFE0
ENDCHAR
STARTCHAR  30D5
ENCODING  12501
SWIDTH  1000 0
DWIDTH  14 0
BBX  12 11 1 0
BITMAP
FFFFFFFFFFFFFFFFFFFFFF60
10101010101010101010F040
00000000000000000060E000
000000000000000000C08000
000000000000000030FF2000
0000000000000000A0A00000
0000000000000010F0400000
0000000000000060E0000000
00000000000000E080000000
000000000020A0F010000000
40FFFFFFFFFFC03000000000
ENDCHAR
STARTCHAR  30D6
ENCODING  12502
SWIDTH  1000 0
DWIDTH  14 0
BBX  13 11 1 0
BITMAP
FFFFFFFFFFFFFFFFFFFFFF6000
00000000000000000030FF3000
000000000000000000A0C00000
000000000000000020FF400000
000000000000000080E0000000
0000000000000010F060000000
0000000000000080F010000000
00000000000010F0A000200000
00000000000080F0A060C04000
000000000040F08030E060E000
60FFFFFFFFE080000000000000
ENDCHAR
STARTCHAR  30D7
ENCODING  12503
SWIDTH  1000 0
DWIDTH  14 0
BBX  12 11 1 0
BITMAP
FFFFFFFFFFFFFFFFFFFFFF60
10101010101010101060FF30
000000000000000000C0C000
000000000000000030FF4000
0000000000000000A0E00000
0000000000000020FF600000
00000000000000A0E0000000
00000000000010F0A0C06000
00000000000080F0C020E000
000000001060FF6060E0A000
40FFFFFFFFE0800000000000
ENDCHAR
STARTCHAR  30D8
ENCODING  12504
SWIDTH  1000 0
DWIDTH  14 0
BBX  13 9 1 1
BITMAP
000000A0E01000000000000000
000010F0E0C000000000000000
000060E010E080000000000000
0000C0800040FF400000000000
0020FF20000080F02000000000
0080C000000000A0C000000000
10E0600000000010E0A0000000
E0C000000000000030F0600000
00000000000000000040E0FF10
ENDCHAR
STARTCHAR  30D9
ENCODING  12505
SWIDTH  1000 0
DWIDTH  14 0
BBX  13 10 1 1
BITMAP
0000003040000040A060800000
000000E0FF400010E080E06000
000020FF80F020000000000000
000080C000A0C0000000000000
0000E0600010E0800000000000
0030F010000040FF3000000000
0080A00000000080E010000000
10E0400000000000C0A0000000
E0C000000000000020F0600000
00000000000000000040E0FF10
ENDCHAR
STARTCHAR  30DA
ENCODING  12506
SWIDTH  1000 0
DWIDTH  14 0
BBX  13 10 1 1
BITMAP
000000406000000040C0400000
000000E0FF400000C020C00000
000040F080F0100080E0600000
0000A0A000C0C0000000000000
0000E0400020F0800000000000
0040F000000040F03000000000
00A0A00000000080E010000000
10F0400000000000E0A0000000
FFA000000000000020F0600000
00000000000000000040E0FF00
ENDCHAR
STARTCHAR  30DB
ENCODING  12507
SWIDTH  1000 0
DWIDTH  14 0
BBX  12 13 1 -1
BITMAP
000000000010800000000000
000000000030FF0000000000
001010101030FF1010101000
A0FFFFFFFFFFFFFFFFFFFFE0
000020400030FF0010400000
000080C00030FF0030F00000
0000C0800030FF0000FF2000
0000F0600030FF0000E04000
0020FF200030FF0000A08000
0060F0000030FF000080A000
00A0C0000040F0000040E000
E0F04030FFF080000000C0FF
000000000000000000000000
ENDCHAR
STARTCHAR  30DC
ENCODING  12508
SWIDTH  1000 0
DWIDTH  14 0
BBX  13 12 1 -1
BITMAP
000000000020F00080A0A06000
000000000030FF0010C080C040
60FFFFFFFFFFFFFFFFFFFFFF00
000020400030FF001060000000
000080C00030FF0010FF200000
0000A0800030FF0000F0400000
0000E0600030FF0000C0800000
0010FF300030FF000080A00000
0040F0000030FF000060E00000
0080C0000040F0000030FF2000
A0F06030FFF080000000A0FF40
00000000000000000000000000
ENDCHAR
STARTCHAR  30DD
ENCODING  12509
SWIDTH  1000 0
DWIDTH  14 0
BBX  13 13 1 -1
BITMAP
00000000000030000040C06000
000000000030FF0000C020E000
000000000030FF000040E08000
60FFFFFFFFFFFFFFFFFFFFFF00
000020400030FF003040000000
000080C00030FF0060E0000000
0000A0800030FF0030F0000000
0000E0600030FF0000F0300000
0010FF300030FF0000E0600000
0040F0000030FF0000A0800000
0080E0000040FF000060E00000
A0F06030FFF080000010E0FF10
00000000000000000000000000
ENDCHAR
STARTCHAR  30DE
ENCODING  12510
SWIDTH  1000 0
DWIDTH  14 0
BBX  12 12 1 -1
BITMAP
80FFFFFFFFFFFFFFFFFFFFFF
00000000000000000000C0A0
00000000000000000060F010
001010000000000020F06000
0040F04000000000C0C00000
000060F030000060F0200000
00000080F02020F060000000
00000000A0E0C0C000000000
0000000000C0FF2000000000
000000000010E0C020000000
00000000000010C0FFFFFF60
000000000000000000101000
ENDCHAR
STARTCHAR  30DF
ENCODING  12511
SWIDTH  1000 0
DWIDTH  14 0
BBX  13 13 0 -1
BITMAP
00108080000000000000000000
000020E0C01000000000000000
00000010A0E040000000000000
000000000080F0FFFFFFFFFFA0
0010C0C0100000101010101000
000010A0E02000000000000000
0000000080F060100000000000
003040000060E0FFFFFFFFFFA0
0030E0A0100000101010101000
000010C0E02000000000000000
0000000080F060100000000000
000000000060E0FFFFFFFFFFC0
00000000000000000000000000
ENDCHAR
STARTCHAR  30E0
ENCODING  12512
SWIDTH  1000 0
DWIDTH  14 0
BBX  12 13 1 -1
BITMAP
000000000040400000000000
0000000010F0600000000000
0000000080E0000000000000
00000000E060000000000000
00000060F010000000000000
000000E080000000A0800000
000040FF2000000060F01000
0000C0A00000000000E06000
0030FF30000000000060E000
00A0C000000000000010F060
10F0400000000000000080C0
40FFFFFFFFFFFFFFFFFFFFF0
001010101010101010101000
ENDCHAR
STARTCHAR  30E1
ENCODING  12513
SWIDTH  1000 0
DWIDTH  14 0
BBX  12 12 1 -1
BITMAP
00000000000000000080C000
0060C0100000000030FF4000
0010E0C000000000C0A00000
000020E0A0000060F0100000
00000030F08010F060000000
0000000060FFE0C000000000
000000000080FF6000000000
0000000000E0F0E020000000
0000000080E020C0E0301010
00000060FF400010A0F0FFA0
A0FFFFE06000000000000000
001000000000000000000000
ENDCHAR
STARTCHAR  30E2
ENCODING  12514
SWIDTH  1000 0
DWIDTH  14 0
BBX  12 12 1 -1
BITMAP
10FFFFFFFFFFFFFFFFFFFF60
00101010FF30101010101000
00000000FF30000000000000
00000000FF30000000000000
00101010FF30101010101010
A0FFFFFFFFFFFFFFFFFFFFFF
00000000FF30000000000000
00000000FF30000000000000
00000000FF30000000000000
00000000F060000000000000
0000000060F0FFFFFFFFFFA0
000000000000001010101000
ENDCHAR
STARTCHAR  30E3
ENCODING  12515
SWIDTH  1000 0
DWIDTH  14 0
BBX  10 10 2 -1
BITMAP
0000A010000000000000
0000C040000000103030
0020A0C0A0C0E0E0E080
80C0A0E040200000E020
000010F000000060C000
000000C0400010E04000
000000808080E0800000
00000040C00000000000
00000010F00000000000
00000000801000000000
ENDCHAR
STARTCHAR  30E4
ENCODING  12516
SWIDTH  1000 0
DWIDTH  14 0
BBX  12 13 1 -1
BITMAP
000020100000000000000000
0000C0600000000000000000
000080C00000000010306060
000030F04080A0E0F0E0E0A0
60E0F0FFE08060300000E060
404020A0800000000040F000
00000060E000000000A08000
00000020FF10000030F02000
00000000E06080FFF0800000
00000000A0A0000000000000
0000000060E0000000000000
0000000010FF200000000000
000000000060200000000000
ENDCHAR
STARTCHAR  30E5
ENCODING  12517
SWIDTH  1000 0
DWIDTH  14 0
BBX  10 9 2 0
BITMAP
00C0E0E0E0E0E0E0E000
0000000000000000FF00
0000000000000000FF00
0000000000000000FF00
0000000000000000FF00
0000000000000000FF00
0000000000000000FF00
0000000000000000FF00
60E0E0E0E0E0E0E0FFE0
ENDCHAR
STARTCHAR  30E6
ENCODING  12518
SWIDTH  1000 0
DWIDTH  14 0
BBX  12 12 1 -1
BITMAP
A0FFFFFFFFFFFFFFFFFF3000
000000000000000000FF3000
000000000000000000FF3000
000000000000000000FF3000
000000000000000000FF3000
000000000000000000FF3000
000000000000000000FF3000
000000000000000000FF3000
000000000000000000FF3000
000000000000000000FF3000
F0FFFFFFFFFFFFFFFFFFFFFF
000000000000000000000000
ENDCHAR
STARTCHAR  30E7
ENCODING  12519
SWIDTH  1000 0
DWIDTH  14 0
BBX  9 9 2 0
BITMAP
E0E0E0E0E0E0E0E0E0
0000000000000000FF
0000000000000000FF
0000000000000000FF
60E0E0E0E0E0E0E0FF
0000000000000000FF
0000000000000000FF
0000000000000030F0
C0E0E0E0E0E0E0E060
ENDCHAR
STARTCHAR  30E8
ENCODING  12520
SWIDTH  1000 0
DWIDTH  14 0
BBX  12 12 1 -1
BITMAP
F0FFFFFFFFFFFFFFFFFFFF30
00101010101010101010FF30
00000000000000000000FF30
00000000000000000000FF30
00000000000000000000FF30
80FFFFFFFFFFFFFFFFFFFF30
00000000000000000000FF30
00000000000000000000FF30
00000000000000000000FF20
00000000000000000080F010
F0FFFFFFFFFFFFFFFFE04000
000000000000000000000000
ENDCHAR
STARTCHAR  30E9
ENCODING  12521
SWIDTH  1000 0
DWIDTH  14 0
BBX  12 12 1 -1
BITMAP
00FFFFFFFFFFFFFFFFFFFF00
000000000000000000000000
000000000000000000000000
FFFFFFFFFFFFFFFFFFFFFF80
00000000000000000000C060
00000000000000000040E000
000000000000000000C06000
000000000000000030E01000
0000000000000000A0800000
0000000000000060F0100000
00A0FFFFFFFFFFE040000000
000000000000000000000000
ENDCHAR
STARTCHAR  30EA
ENCODING  12522
SWIDTH  1000 0
DWIDTH  14 0
BBX  10 12 2 -1
BITMAP
E020000000000000FF30
FF30000000000000FF30
FF30000000000000FF30
FF30000000000000FF30
FF30000000000000FF30
FF30000000000000FF30
FF30000000000000FF30
FF30000000000000FF30
F020000000000000FF20
0000000000000060FF10
0080FFFFFFFFFFF06000
00001010101010000000
ENDCHAR
STARTCHAR  30EB
ENCODING  12523
SWIDTH  1000 0
DWIDTH  14 0
BBX  12 13 1 -1
BITMAP
000000401000000080100000
000010FF10000000FF200000
000030F000000000FF200000
000060E000000000FF200000
000080A000000000FF200000
0000A08000000000FF200000
0000C06000000000FF200000
0000E04000000000FF200000
0000FF2000000000FF200000
0020FF0000000000FF200000
0060E00000000000F0400000
C0FF60000000000080FFFFFF
101000000000000000001010
ENDCHAR
STARTCHAR  30EC
ENCODING  12524
SWIDTH  1000 0
DWIDTH  14 0
BBX  12 13 2 -1
BITMAP
401000000000000000000000
FF3000000000000000000000
FF3000000000000000000000
FF3000000000000000000000
FF300000000000000020F000
FF300000000000000040F000
FF300000000000000060E000
FF3000000000000000A0A000
FF3000000000000010F06000
FF30000000000000A0E00000
FF300000002060E0E0200000
FFF0F0F0FFF0C06000000000
102020201000000000000000
ENDCHAR
STARTCHAR  30ED
ENCODING  12525
SWIDTH  1000 0
DWIDTH  14 0
BBX  12 11 1 0
BITMAP
30FFFFFFFFFFFFFFFFFFFF30
30FF1010101010101010FF30
30FF0000000000000000FF30
30FF0000000000000000FF30
30FF0000000000000000FF30
30FF0000000000000000FF30
30FF0000000000000000FF30
30FF0000000000000000FF30
30FF0000000000000010FF20
30FF10101010101020A0E000
30FFFFFFFFFFFFFFFFE03000
ENDCHAR
STARTCHAR  30EE
ENCODING  12526
SWIDTH  1000 0
DWIDTH  14 0
BBX  10 9 2 0
BITMAP
00E0E0E0E0E0E0E0E0E0
00FF00000000000000FF
00FF00000000000000FF
00FF00000000000000FF
00FF00000000000000FF
004000000000000000FF
000000000000000000FF
000000000000000040E0
000010E0E0E0E0E0E040
ENDCHAR
STARTCHAR  30EF
ENCODING  12527
SWIDTH  1000 0
DWIDTH  14 0
BBX  12 12 1 -1
BITMAP
30FFFFFFFFFFFFFFFFFFFFFF
30FF000000000000000020FF
30FF000000000000000020FF
30FF000000000000000020FF
30FF000000000000000020FF
30FF000000000000000020FF
1060000000000000000020FF
0000000000000000000020FF
0000000000000000000030FF
00000000000000000010A0C0
000000E0FFFFFFFFFFFFC020
000000101010101010000000
ENDCHAR
STARTCHAR  30F0
ENCODING  12528
SWIDTH  1000 0
DWIDTH  14 0
BBX  12 12 1 -1
BITMAP
00000000000000FF30000000
00000000000000FF30000000
E0FFFFFFFFFFFFFFFFFFFF00
0030FF00000000FF30000000
0030FF00000000FF30000000
0030FF00000000FF30000000
0030FF00000000FF30000000
0030FF00000000FF30000000
FFFFFFFFFFFFFFFFFFFFFFC0
00000000000000FF30000000
00000000000000FF30000000
00000000000000C020000000
ENDCHAR
STARTCHAR  30F1
ENCODING  12529
SWIDTH  1000 0
DWIDTH  14 0
BBX  12 12 1 -1
BITMAP
00FFFFFFFFFFFFFFFFFFFFF0
00000000000000000040F080
000000000000000060F06000
0000000000000080F0400000
000000000020E0E030000000
000000000030FF2000000000
000000000030FF0000000000
000000000030FF0000000000
000000000030FF0000000000
000000000030FF0000000000
80FFFFFFFFFFFFFFFFFFFFFF
000000000000000000000000
ENDCHAR
STARTCHAR  30F2
ENCODING  12530
SWIDTH  1000 0
DWIDTH  14 0
BBX  12 12 1 -1
BITMAP
60FFFFFFFFFFFFFFFFFFFFFF
0000000000000000000040F0
0000000000000000000060C0
00000000000000000000A080
00000000000000000000C060
00FFFFFFFFFFFFFFFFFFFF20
00000000000000000030F000
00000000000000000060C000
000000000000000000A08000
000000000000000040F04000
0000FFFFFFFFFFFFF0600000
000010101010101000000000
ENDCHAR
STARTCHAR  30F3
ENCODING  12531
SWIDTH  1000 0
DWIDTH  14 0
BBX  12 13 1 -1
BITMAP
306000000000000000000000
20FF20000000000000000000
00C080000000000000008080
0040F030000000000030FF30
000080F0FFFF000000C0A000
000000000000000060E01000
0000000000000020F0600000
00000000000000A0C0000000
00000000000040F020000000
000000000010E08000000000
0000000020A0E00000000000
A0FFFFFFFFC0200000000000
000000000000000000000000
ENDCHAR
STARTCHAR  30F4
ENCODING  12532
SWIDTH  1000 0
DWIDTH  14 0
BBX  13 13 1 -1
BITMAP
000000000000100000A060C020
000000000020FF000040F080C0
001010101030FF101010101000
20FFFFFFFFFFFFFFFFFFFFFF00
20FF000000000000000030FF00
20FF000000000000000030FF00
20FF000000000000000030FF00
20FF000000000000000030FF00
0000000000000000000030FF00
0000000000000000000030FF00
00000000000000000010A0E000
000000C0FFFFFFFFFFFFE03000
00000000101010101000000000
ENDCHAR
STARTCHAR  30F5
ENCODING  12533
SWIDTH  1000 0
DWIDTH  14 0
BBX  9 9 2 0
BITMAP
000000604000000000
000000E03000000000
A0E0E0FFE0E0E0E0FF
000060A000000000FF
0000A06000000000FF
0000F02000000000FF
0030E00000000000FF
0080A00000000010F0
E0E03010E0E0E0E080
ENDCHAR
STARTCHAR  30F6
ENCODING  12534
SWIDTH  1000 0
DWIDTH  14 0
BBX  10 9 2 0
BITMAP
00004060000000000000
0000E060000000000000
0030FFF0F0F0F0F0F0E0
00A0A000000000A06000
A0E02000000000F01000
00000000000040C00000
000000000000A0600000
000000000010E0200000
0080E0E0E0E060000000
ENDCHAR
STARTCHAR  3105
ENCODING  12549
SWIDTH  1000 0
DWIDTH  14 0
BBX  10 12 2 -1
BITMAP
00004020000000000000
0000A080000000000000
0000E030000000302000
0040A03080C0E0F0F010
20F0E0A060200040E000
0030000000000040C000
0000000000000060A000
00000000000000808000
00000000000000C04000
00000000004030E00000
000000000080FF600000
00000000000010000000
ENDCHAR
STARTCHAR  3106
ENCODING  12550
SWIDTH  1000 0
DWIDTH  14 0
BBX  9 12 2 -1
BITMAP
000000100000000000
000000E02000000000
000040A00000000000
0000A0104080E0A000
00A0C0804020A0A000
001000100010E01000
000000608080800000
0000000080F0100000
00000040C060E02000
000060A0100080E010
40804000000000A040
000000000000000000
ENDCHAR
STARTCHAR  3107
ENCODING  12551
SWIDTH  1000 0
DWIDTH  14 0
BBX  10 8 2 1
BITMAP
00000000001030606000
20C0A0A0C0A08080F030
00E0100000000000C000
00E0000000000000E000
00E0100000000000E000
00E0200000000000E000
00E0300000000000E000
00801000000000008000
ENDCHAR
STARTCHAR  3108
ENCODING  12552
SWIDTH  1000 0
DWIDTH  14 0
BBX  10 10 2 0
BITMAP
10404030302010000000
30FFFFFFFFF0F0F0C010
00E06020000000000000
00C03000000000000000
00E01000000000000000
00E00000000000000000
00E00000000000000000
00E04000000000002000
0040E0E0C0C0E0F0FFA0
00000000101010100000
ENDCHAR
STARTCHAR  3109
ENCODING  12553
SWIDTH  1000 0
DWIDTH  14 0
BBX  11 12 1 -1
BITMAP
0000004010000000000000
000000C060000000000000
000010E010000000101000
000080806080C0C0E0E020
0010E0A060FF200000FF10
0000000020F0000010E000
0000000080A0000040C000
00000010E0200000608000
000000A060000000C04000
0000808000003030E00000
10804000000040F0800000
1000000000000010000000
ENDCHAR
STARTCHAR  310A
ENCODING  12554
SWIDTH  1000 0
DWIDTH  14 0
BBX  11 10 2 0
BITMAP
0000000060300000000000
0000000080800000000000
0000000080602010101000
F0FFFFFFFFFFFFFFF0F040
00000000E0301000000000
00000040E0000000000000
000010E020004020000000
0000A0606080A0E0200000
0060F0A0603010A0800000
0000000000000020000000
ENDCHAR
STARTCHAR  310B
ENCODING  12555
SWIDTH  1000 0
DWIDTH  14 0
BBX  10 12 2 -1
BITMAP
00000000000010000000
00103060A0E0F0300000
20C080401020E0100000
0000000000A040000000
0000000040C080A0A010
0000000080804030F030
0000000000000000E000
0000000000000020C000
00000000000000608000
00000000003010E02000
000000000020F0800000
00000000000010000000
ENDCHAR
STARTCHAR  310C
ENCODING  12556
SWIDTH  1000 0
DWIDTH  14 0
BBX  10 12 2 -1
BITMAP
00000000008000000000
0000400000FF20000000
0010F00000F000000000
0030A00010E000001000
0080604080E0A0E0FF30
10E0C080A0802000E030
00000000C0200000E000
00000030A0000030C000
000000C0200000808000
00008060002010E04000
008040000020E0E00000
20100000000020200000
ENDCHAR
STARTCHAR  310D
ENCODING  12557
SWIDTH  1000 0
DWIDTH  14 0
BBX  8 11 3 0
BITMAP
0000000000001000
0020E0000020E000
0060E0000060E000
00A0400000A04000
20C0000020A00000
A0300000A0300000
40C0000030C01000
008080000080C000
0010F0400000E060
000080A0000060C0
0000203000000020
ENDCHAR
STARTCHAR  310E
ENCODING  12558
SWIDTH  1000 0
DWIDTH  14 0
BBX  11 11 1 -1
BITMAP
000010102030406080A060
20E0E0C0A0E08040404040
0000000000E02000000000
0000000040A02060801000
00000000E0E0A080C08000
0000000010000000806000
0000000000000000C03000
0000000000000010E00000
0000000000102060A00000
000000000000C0F0200000
0000000000001020000000
ENDCHAR
STARTCHAR  310F
ENCODING  12559
SWIDTH  1000 0
DWIDTH  14 0
BBX  11 11 2 0
BITMAP
0000000000000000101000
10A0A0A0C0C0E0E0FFF030
0040FF3020100000000000
0000F00000000000000000
0000F00000000000000000
0010F00000000000000000
0020E00000000000000000
0040A00000000000000000
0080400000000000000000
10C0000000000000000000
6020000000000000000000
ENDCHAR
STARTCHAR  3110
ENCODING  12560
SWIDTH  1000 0
DWIDTH  14 0
BBX  6 12 4 -1
BITMAP
000000002040
0010000040F0
00F0400020E0
00E0400020C0
00E0200020C0
10E0000010C0
4080004080C0
C0E0E08040C0
4040000010C0
0000000010C0
0000000010C0
000000000040
ENDCHAR
STARTCHAR  3111
ENCODING  12561
SWIDTH  1000 0
DWIDTH  14 0
BBX  6 11 4 0
BITMAP
000000000000
000000C03000
000030F02000
0000A0800000
0020C0000000
00A020000000
20C030000000
0020E0600000
000020E08000
00000020F040
000000006030
ENDCHAR
STARTCHAR  3112
ENCODING  12562
SWIDTH  1000 0
DWIDTH  14 0
BBX  10 11 2 -1
BITMAP
00000000001020406040
A0F0F0F0F0F0C0C0C0A0
1040200010E000000000
0000000000E000000000
0000000000E000000000
0000000000E000000000
0000000000E000000000
0000000000E000000000
0000000010E000000000
0000000020E000000000
00000000003000000000
ENDCHAR
STARTCHAR  3113
ENCODING  12563
SWIDTH  1000 0
DWIDTH  14 0
BBX  11 12 1 -1
BITMAP
0000000000200000000000
0000000020FF1000000000
0000000000FF0000200000
0010C00000E00000E03000
0000F00000E00000E01000
0000E00000E00000E00000
0000C00000E00000C00000
0000E0A0C0F0C0C0C00000
0000000000E00000000000
0000000000E00000001000
20C0C0C0C0F0C0E0E0F060
0020201000000000000000
ENDCHAR
STARTCHAR  3114
ENCODING  12564
SWIDTH  1000 0
DWIDTH  14 0
BBX  7 12 3 -1
BITMAP
00000000104000
00000000A0A000
00000060E02000
000040C010C030
0060800060E010
10200040E02000
000040E0E00000
0060A010E00000
30400000E00000
00000000E00000
00000000E01000
00000000400000
ENDCHAR
STARTCHAR  3115
ENCODING  12565
SWIDTH  1000 0
DWIDTH  14 0
BBX  10 12 1 -1
BITMAP
00000000000010206060
000000A0F0E0C0A0A0E0
00000000000000004080
00000040C080A0C0E0C0
00000010FF4020000000
00000000F00000000000
00000030E00000000000
00000060800000000000
000000E0200000000000
0000A060000000000000
00806000000000000000
00000000000000000000
ENDCHAR
STARTCHAR  3116
ENCODING  12566
SWIDTH  1000 0
DWIDTH  14 0
BBX  9 10 3 0
BITMAP
30C0A0A0A080C0C010
20E00000000010FF20
00E00000000000E000
00E00060100000E000
00E00060F02000E000
00E00000A01000E000
00E00000000000E000
00E00000000010E000
00F0C0C0C0E0E0E000
00800000000040A000
ENDCHAR
STARTCHAR  3117
ENCODING  12567
SWIDTH  1000 0
DWIDTH  14 0
BBX  10 12 2 -1
BITMAP
00000000001020403000
10C0E0E0C0C0A0C0F000
002010F000000060C000
000000F0000000A06000
000000F0000000F01000
000000E0003060C00000
000000E000A0FF400000
000000E0001040000000
000000E0000000000000
000000E0000000000000
000000A0000000000000
00000010000000000000
ENDCHAR
STARTCHAR  3118
ENCODING  12568
SWIDTH  1000 0
DWIDTH  14 0
BBX  12 12 1 -1
BITMAP
000000002080000000000000
0000000030F0000000000000
0000102080C04060A0F0C000
A0E0C0A0E060302010102000
10000010C000000000000000
000000A0A060A0E0A0000000
000000A080603080F0000000
0000000000000060A0000000
00000000000000A040000000
00000000000020C000000000
000000000010A02000000000
000000000010100000000000
ENDCHAR
STARTCHAR  3119
ENCODING  12569
SWIDTH  1000 0
DWIDTH  14 0
BBX  10 11 2 -1
BITMAP
0000000020A000000000
0000000060FF10000000
00000000A0A000000000
00000000E03000000000
00000040A00000000000
000000A0300000000000
000030A0000000100000
0000C02000000020A010
0080A0306080A0C0E0C0
00C0E0A06040100040E0
00000000000000000000
ENDCHAR
STARTCHAR  311A
ENCODING  12570
SWIDTH  1000 0
DWIDTH  14 0
BBX  9 12 2 -1
BITMAP
000000000000006000
30400000000040FF10
0080C0200000A08000
000080E00040A00000
0000008060A0000000
00000000FF10000000
00000000F000000000
00000000E000000000
00000000E000000000
00000000E000000000
00000000E000000000
000000003000000000
ENDCHAR
STARTCHAR  311B
ENCODING  12571
SWIDTH  1000 0
DWIDTH  14 0
BBX  10 10 2 0
BITMAP
00000000001000102000
A0F0E0E0E0F0E0C0E060
0010000010E000000000
0000001030E000000000
0010A0E0A08000000000
00A08000000000000000
00F01000000000000000
00E03000000000000000
0060E040000000206000
000040A0E0C0C0802000
ENDCHAR
STARTCHAR  311C
ENCODING  12572
SWIDTH  1000 0
DWIDTH  14 0
BBX  12 11 1 0
BITMAP
000000000010000000000000
000000000040C00000000000
000000000020C00000202000
00608080A0A0F0A0C0C0C030
004040301000E00000000000
00000040A0E0C00000000000
000080C03000000000000000
0000E0200000000000000000
0000E0200000000000000000
000060E02000000030400000
00000060E0E0C0A060000000
ENDCHAR
STARTCHAR  311D
ENCODING  12573
SWIDTH  1000 0
DWIDTH  14 0
BBX  11 11 1 0
BITMAP
0000000000000020000000
00003080000000E0300000
000020F0000000C0300000
000010E0000000A0201000
000000E0003060E0E0E080
3080A0F0A08040C0000000
206030E0000000A0000000
000000E010004060000000
000000A040006010000000
00000060C0200010306020
0000000060C0E0E0E0C060
ENDCHAR
STARTCHAR  311E
ENCODING  12574
SWIDTH  1000 0
DWIDTH  14 0
BBX  10 12 2 -1
BITMAP
00001030406080A0C080
A0C0A08060F030303030
0000E00000FF00000000
0020E00000FF00000000
0060803060FFC0E0FF60
00A0C080A0C01000A080
0000000080600000A060
00000010E0100000E020
0000008060000020E000
000040A0000000A06000
00606000000000801000
00100000000000000000
ENDCHAR
STARTCHAR  311F
ENCODING  12575
SWIDTH  1000 0
DWIDTH  14 0
BBX  13 9 1 0
BITMAP
00000000206000000000000000
0000006080F020000000000000
0020A06000C000000000000000
40A0300000A010000000000000
00000000004080000000000000
000000000000A0600000000000
00000000000010E0A010000000
0000000000000010C0F0A04000
00000000000000000060603000
ENDCHAR
STARTCHAR  3120
ENCODING  12576
SWIDTH  1000 0
DWIDTH  14 0
BBX  9 12 3 -1
BITMAP
000000203000000000
00000080A000000000
000000E03000000000
000080A00000401000
0020E0100010E06000
00C0804060A0C00000
20E0A080A0E0100000
00000020E030101000
000010E0400010C010
0030E0604080C0E0C0
00E0F0C080401040E0
001000000000000020
ENDCHAR
STARTCHAR  3121
ENCODING  12577
SWIDTH  1000 0
DWIDTH  14 0
BBX  10 10 1 0
BITMAP
00000000000000301000
0000406080A0C0FFC000
00003060300000C08000
00000000000010F01000
00000020600080800000
0000000030A0E0100000
0000000010C0E0400000
00000020C04020E06000
000060C020000030F040
30804000000000004040
ENDCHAR
STARTCHAR  3122
ENCODING  12578
SWIDTH  1000 0
DWIDTH  14 0
BBX  10 12 2 -1
BITMAP
00000010203040100000
60F0C0A08060A0E00000
0000C0000000A0600000
0020F0000010E0000000
00608000006060000000
00C020304080A0C0C010
40FFE0A080403030F030
0000000000000030C000
00000000000000A04000
00000000000020E00000
000000000000A0800000
00000000000060100000
ENDCHAR
STARTCHAR  3123
ENCODING  12579
SWIDTH  1000 0
DWIDTH  14 0
BBX  10 11 2 0
BITMAP
10300000000000000000
10FF1000000000000000
00F01000000000000000
00E00000000000000000
00E00000000000000000
00C000204080A0E0F0C0
40F0E0A08040100040C0
00100000000000006080
0000000000000000A040
0000000000000000F010
0000000000000000A000
ENDCHAR
STARTCHAR  3124
ENCODING  12580
SWIDTH  1000 0
DWIDTH  14 0
BBX  12 12 1 -1
BITMAP
000000004030000000000000
0000000060E0000000000000
0000000040E0000000000000
0000102080E060A0E0E03000
10E0E0A0C080FF1000000000
00000000A020E00000000000
00000000C000C00000000000
000000408000E00000000000
000000C01000E00000000000
000080600000E03000204000
10804000000030A0E0E0C010
200000000000000000000000
ENDCHAR
STARTCHAR  3125
ENCODING  12581
SWIDTH  1000 0
DWIDTH  14 0
BBX  11 11 1 0
BITMAP
0000000000100000000000
0000000010F01000000000
0000000040F00000000000
00000000A0800000000000
00000000E0200000000000
00000060A0000000000000
000000C020000000000000
0000408000000000000000
0000C01000000000000000
10A0C080A0A0C0E0E0E060
0080604030100000102040
ENDCHAR
STARTCHAR  3126
ENCODING  12582
SWIDTH  1000 0
DWIDTH  14 0
BBX  11 11 1 -1
BITMAP
0000001030006000000000
00000020F000E060000000
00000010E000C010000000
00000010E000A000000000
00000010C000A000000000
00000020A000A000000020
000000608000A000008010
000000C03000C010804000
000060800000E0E0A00000
0060600000001080100000
1000000000000000000000
ENDCHAR
ENDFONT
